Gayathri-Bold.ufo
<glyph name="exclam" format="2">
  <advance height="2048" width="420.0"/>
  <unicode hex="0021"/>
  <outline>
    <contour>
      <point x="291.0" y="372.0" type="curve" smooth="yes"/>
      <point x="320.0" y="1303.0" type="line" smooth="yes"/>
      <point x="320.0" y="1353.0"/>
      <point x="254.0" y="1381.0"/>
      <point x="211.0" y="1381.0" type="curve" smooth="yes"/>
      <point x="167.0" y="1381.0"/>
      <point x="100.0" y="1351.0"/>
      <point x="100.0" y="1302.0" type="curve" smooth="yes"/>
      <point x="129.0" y="372.0" type="line" smooth="yes"/>
      <point x="130.0" y="329.0"/>
      <point x="172.0" y="316.0"/>
      <point x="209.0" y="316.0" type="curve" smooth="yes"/>
      <point x="246.0" y="316.0"/>
      <point x="289.0" y="327.0"/>
    </contour>
    <contour>
      <point x="210.0" y="-24.0" type="curve" smooth="yes"/>
      <point x="264.0" y="-24.0"/>
      <point x="312.0" y="17.0"/>
      <point x="312.0" y="78.0" type="curve" smooth="yes"/>
      <point x="312.0" y="140.0"/>
      <point x="264.0" y="181.0"/>
      <point x="210.0" y="181.0" type="curve" smooth="yes"/>
      <point x="156.0" y="181.0"/>
      <point x="108.0" y="140.0"/>
      <point x="108.0" y="78.0" type="curve" smooth="yes"/>
      <point x="108.0" y="17.0"/>
      <point x="156.0" y="-24.0"/>
    </contour>
  </outline>
</glyph>
<glyph name="numbersign" format="2">
	<unicode hex="0023"/>
	<advance height="2048" width="1389"/>
	<outline>
		<contour>
			<point x="763" y="-24" type="curve" smooth="yes"/>
			<point x="795" y="-24"/>
			<point x="849" y="-13"/>
			<point x="855" y="21" type="curve" smooth="yes"/>
			<point x="925" y="380" type="line"/>
			<point x="1119" y="380" type="line" smooth="yes"/>
			<point x="1152" y="380"/>
			<point x="1221" y="394"/>
			<point x="1221" y="436" type="curve" smooth="yes"/>
			<point x="1221" y="478"/>
			<point x="1152" y="492"/>
			<point x="1119" y="492" type="curve" smooth="yes"/>
			<point x="946" y="492" type="line"/>
			<point x="1016" y="854" type="line"/>
			<point x="1188" y="854" type="line" smooth="yes"/>
			<point x="1220" y="854"/>
			<point x="1289" y="868"/>
			<point x="1289" y="910" type="curve" smooth="yes"/>
			<point x="1289" y="952"/>
			<point x="1220" y="966"/>
			<point x="1188" y="966" type="curve" smooth="yes"/>
			<point x="1038" y="966" type="line"/>
			<point x="1108" y="1331" type="line"/>
			<point x="1108" y="1367"/>
			<point x="1047" y="1381"/>
			<point x="1018" y="1381" type="curve" smooth="yes"/>
			<point x="985" y="1381"/>
			<point x="931" y="1370"/>
			<point x="925" y="1336" type="curve" smooth="yes"/>
			<point x="854" y="966" type="line"/>
			<point x="632" y="966" type="line"/>
			<point x="702" y="1331" type="line"/>
			<point x="702" y="1367"/>
			<point x="641" y="1381"/>
			<point x="612" y="1381" type="curve" smooth="yes"/>
			<point x="579" y="1381"/>
			<point x="525" y="1370"/>
			<point x="519" y="1336" type="curve" smooth="yes"/>
			<point x="448" y="966" type="line"/>
			<point x="270" y="966" type="line" smooth="yes"/>
			<point x="237" y="966"/>
			<point x="168" y="952"/>
			<point x="168" y="910" type="curve" smooth="yes"/>
			<point x="168" y="868"/>
			<point x="237" y="854"/>
			<point x="270" y="854" type="curve" smooth="yes"/>
			<point x="427" y="854" type="line"/>
			<point x="357" y="492" type="line"/>
			<point x="201" y="492" type="line" smooth="yes"/>
			<point x="169" y="492"/>
			<point x="100" y="478"/>
			<point x="100" y="436" type="curve" smooth="yes"/>
			<point x="100" y="394"/>
			<point x="169" y="380"/>
			<point x="201" y="380" type="curve" smooth="yes"/>
			<point x="335" y="380" type="line"/>
			<point x="267" y="26" type="line"/>
			<point x="267" y="-10"/>
			<point x="328" y="-24"/>
			<point x="357" y="-24" type="curve" smooth="yes"/>
			<point x="390" y="-24"/>
			<point x="444" y="-13"/>
			<point x="450" y="21" type="curve" smooth="yes"/>
			<point x="519" y="380" type="line"/>
			<point x="741" y="380" type="line"/>
			<point x="673" y="26" type="line"/>
			<point x="673" y="-10"/>
			<point x="734" y="-24"/>
		</contour>
		<contour>
			<point x="763" y="492" type="line"/>
			<point x="540" y="492" type="line"/>
			<point x="610" y="854" type="line"/>
			<point x="832" y="854" type="line"/>
		</contour>
	</outline>
</glyph>
<glyph name="dollar" format="2">
	<unicode hex="0024"/>
	<advance height="2048" width="1182"/>
	<outline>
		<contour>
			<point x="341" y="1007" type="curve" smooth="yes"/>
			<point x="340" y="952"/>
			<point x="363" y="903"/>
			<point x="405" y="867" type="curve" smooth="yes"/>
			<point x="438" y="838"/>
			<point x="479" y="818"/>
			<point x="521" y="805" type="curve"/>
			<point x="521" y="1249" type="line"/>
			<point x="489" y="1238"/>
			<point x="459" y="1220"/>
			<point x="434" y="1198" type="curve" smooth="yes"/>
			<point x="377" y="1149"/>
			<point x="344" y="1081"/>
		</contour>
		<contour>
			<point x="661" y="776" type="line"/>
			<point x="767" y="759"/>
			<point x="876" y="723"/>
			<point x="957" y="651" type="curve" smooth="yes"/>
			<point x="1037" y="581"/>
			<point x="1081" y="486"/>
			<point x="1082" y="381" type="curve" smooth="yes"/>
			<point x="1083" y="280"/>
			<point x="1038" y="183"/>
			<point x="968" y="111" type="curve" smooth="yes"/>
			<point x="887" y="27"/>
			<point x="777" y="-19"/>
			<point x="661" y="-30" type="curve"/>
			<point x="661" y="-184" type="line" smooth="yes"/>
			<point x="661" y="-212"/>
			<point x="612" y="-220"/>
			<point x="591" y="-220" type="curve" smooth="yes"/>
			<point x="570" y="-220"/>
			<point x="521" y="-212"/>
			<point x="521" y="-184" type="curve" smooth="yes"/>
			<point x="521" y="-28" type="line"/>
			<point x="429" y="-17"/>
			<point x="342" y="16"/>
			<point x="269" y="73" type="curve" smooth="yes"/>
			<point x="177" y="145"/>
			<point x="124" y="247"/>
			<point x="101" y="359" type="curve" smooth="yes"/>
			<point x="93" y="393"/>
			<point x="139" y="412"/>
			<point x="166" y="418" type="curve" smooth="yes"/>
			<point x="207" y="426"/>
			<point x="292" y="419"/>
			<point x="302" y="372" type="curve" smooth="yes"/>
			<point x="321" y="282"/>
			<point x="361" y="195"/>
			<point x="435" y="137" type="curve" smooth="yes"/>
			<point x="461" y="117"/>
			<point x="490" y="102"/>
			<point x="521" y="92" type="curve"/>
			<point x="521" y="614" type="line"/>
			<point x="429" y="635"/>
			<point x="337" y="672"/>
			<point x="265" y="734" type="curve" smooth="yes"/>
			<point x="183" y="805"/>
			<point x="133" y="909"/>
			<point x="140" y="1018" type="curve" smooth="yes"/>
			<point x="146" y="1113"/>
			<point x="190" y="1196"/>
			<point x="263" y="1259" type="curve" smooth="yes"/>
			<point x="335" y="1320"/>
			<point x="428" y="1357"/>
			<point x="521" y="1370" type="curve"/>
			<point x="521" y="1444" type="line" smooth="yes"/>
			<point x="521" y="1472"/>
			<point x="570" y="1480"/>
			<point x="591" y="1480" type="curve" smooth="yes"/>
			<point x="612" y="1480"/>
			<point x="661" y="1472"/>
			<point x="661" y="1444" type="curve" smooth="yes"/>
			<point x="661" y="1373" type="line"/>
			<point x="753" y="1364"/>
			<point x="842" y="1332"/>
			<point x="914" y="1272" type="curve" smooth="yes"/>
			<point x="989" y="1210"/>
			<point x="1033" y="1124"/>
			<point x="1051" y="1029" type="curve" smooth="yes"/>
			<point x="1058" y="994"/>
			<point x="1010" y="975"/>
			<point x="983" y="970" type="curve" smooth="yes"/>
			<point x="943" y="963"/>
			<point x="859" y="971"/>
			<point x="850" y="1017" type="curve" smooth="yes"/>
			<point x="835" y="1091"/>
			<point x="804" y="1162"/>
			<point x="745" y="1211" type="curve" smooth="yes"/>
			<point x="720" y="1231"/>
			<point x="692" y="1247"/>
			<point x="661" y="1256" type="curve"/>
		</contour>
		<contour>
			<point x="661" y="86" type="line"/>
			<point x="710" y="99"/>
			<point x="755" y="128"/>
			<point x="790" y="164" type="curve" smooth="yes"/>
			<point x="845" y="220"/>
			<point x="880" y="298"/>
			<point x="880" y="377" type="curve" smooth="yes"/>
			<point x="880" y="432"/>
			<point x="858" y="482"/>
			<point x="816" y="519" type="curve" smooth="yes"/>
			<point x="773" y="557"/>
			<point x="716" y="577"/>
			<point x="661" y="589" type="curve"/>
		</contour>
	</outline>
</glyph>
<glyph name="percent" format="2">
	<unicode hex="0025"/>
	<advance height="2048" width="1724"/>
	<outline>
		<contour>
			<point x="1276" y="84" type="curve" smooth="yes"/>
			<point x="1164" y="84"/>
			<point x="1131" y="255"/>
			<point x="1131" y="337" type="curve" smooth="yes"/>
			<point x="1131" y="420"/>
			<point x="1164" y="589"/>
			<point x="1276" y="589" type="curve" smooth="yes"/>
			<point x="1387" y="589"/>
			<point x="1421" y="423"/>
			<point x="1421" y="337" type="curve" smooth="yes"/>
			<point x="1421" y="255"/>
			<point x="1388" y="84"/>
		</contour>
		<contour>
			<point x="1276" y="-24" type="curve" smooth="yes"/>
			<point x="1492" y="-24"/>
			<point x="1624" y="135"/>
			<point x="1624" y="336" type="curve" smooth="yes"/>
			<point x="1624" y="538"/>
			<point x="1492" y="698"/>
			<point x="1276" y="698" type="curve" smooth="yes"/>
			<point x="1061" y="698"/>
			<point x="928" y="540"/>
			<point x="928" y="339" type="curve" smooth="yes"/>
			<point x="928" y="132"/>
			<point x="1064" y="-24"/>
		</contour>
		<contour>
			<point x="448" y="767" type="curve" smooth="yes"/>
			<point x="336" y="767"/>
			<point x="303" y="938"/>
			<point x="303" y="1020" type="curve" smooth="yes"/>
			<point x="303" y="1103"/>
			<point x="336" y="1272"/>
			<point x="448" y="1272" type="curve" smooth="yes"/>
			<point x="559" y="1272"/>
			<point x="593" y="1106"/>
			<point x="593" y="1020" type="curve" smooth="yes"/>
			<point x="593" y="938"/>
			<point x="560" y="767"/>
		</contour>
		<contour>
			<point x="448" y="659" type="curve" smooth="yes"/>
			<point x="664" y="659"/>
			<point x="796" y="818"/>
			<point x="796" y="1019" type="curve" smooth="yes"/>
			<point x="796" y="1221"/>
			<point x="664" y="1381"/>
			<point x="448" y="1381" type="curve" smooth="yes"/>
			<point x="233" y="1381"/>
			<point x="100" y="1223"/>
			<point x="100" y="1022" type="curve" smooth="yes"/>
			<point x="100" y="815"/>
			<point x="236" y="659"/>
		</contour>
		<contour>
			<point x="495" y="-24" type="curve" smooth="yes"/>
			<point x="524" y="-24"/>
			<point x="559" y="-16"/>
			<point x="572" y="7" type="curve" smooth="yes"/>
			<point x="1304" y="1324" type="line" smooth="yes"/>
			<point x="1307" y="1329"/>
			<point x="1308" y="1334"/>
			<point x="1308" y="1338" type="curve" smooth="yes"/>
			<point x="1308" y="1371"/>
			<point x="1255" y="1381"/>
			<point x="1229" y="1381" type="curve" smooth="yes"/>
			<point x="1200" y="1381"/>
			<point x="1165" y="1373"/>
			<point x="1152" y="1350" type="curve" smooth="yes"/>
			<point x="420" y="33" type="line" smooth="yes"/>
			<point x="417" y="28"/>
			<point x="416" y="23"/>
			<point x="416" y="19" type="curve" smooth="yes"/>
			<point x="416" y="-15"/>
			<point x="469" y="-24"/>
		</contour>
	</outline>
</glyph>
<glyph name="ampersand" format="2">
	<unicode hex="0026"/>
	<advance height="2048" width="1356"/>
	<outline>
		<contour>
			<point x="948" y="639" type="curve" smooth="yes"/>
			<point x="949" y="681"/>
			<point x="1018" y="695"/>
			<point x="1050" y="694" type="curve" smooth="yes"/>
			<point x="1082" y="694"/>
			<point x="1150" y="680"/>
			<point x="1150" y="639" type="curve"/>
			<point x="1149" y="516"/>
			<point x="1112" y="388"/>
			<point x="1049" y="282" type="curve"/>
			<point x="1115" y="206"/>
			<point x="1180" y="131"/>
			<point x="1246" y="56" type="curve" smooth="yes"/>
			<point x="1277" y="20"/>
			<point x="1232" y="-10"/>
			<point x="1199" y="-19" type="curve" smooth="yes"/>
			<point x="1158" y="-30"/>
			<point x="1092" y="-25"/>
			<point x="1064" y="7" type="curve" smooth="yes"/>
			<point x="1023" y="53"/>
			<point x="983" y="100"/>
			<point x="943" y="146" type="curve"/>
			<point x="828" y="34"/>
			<point x="679" y="-27"/>
			<point x="517" y="-24" type="curve" smooth="yes"/>
			<point x="311" y="-21"/>
			<point x="102" y="100"/>
			<point x="100" y="322" type="curve" smooth="yes"/>
			<point x="98" y="534"/>
			<point x="256" y="654"/>
			<point x="424" y="754" type="curve"/>
			<point x="343" y="851"/>
			<point x="218" y="981"/>
			<point x="218" y="1112" type="curve" smooth="yes"/>
			<point x="218" y="1295"/>
			<point x="423" y="1381"/>
			<point x="583" y="1381" type="curve" smooth="yes"/>
			<point x="759" y="1381"/>
			<point x="940" y="1291"/>
			<point x="940" y="1097" type="curve" smooth="yes"/>
			<point x="940" y="926"/>
			<point x="800" y="814"/>
			<point x="665" y="732" type="curve"/>
			<point x="704" y="685"/>
			<point x="745" y="636"/>
			<point x="787" y="587" type="curve" smooth="yes"/>
			<point x="827" y="539"/>
			<point x="870" y="489"/>
			<point x="913" y="439" type="curve"/>
			<point x="935" y="504"/>
			<point x="947" y="571"/>
		</contour>
		<contour>
			<point x="830" y="275" type="curve"/>
			<point x="778" y="335"/>
			<point x="719" y="405"/>
			<point x="654" y="480" type="curve" smooth="yes"/>
			<point x="606" y="536"/>
			<point x="559" y="592"/>
			<point x="516" y="644" type="curve"/>
			<point x="399" y="569"/>
			<point x="300" y="472"/>
			<point x="303" y="325" type="curve" smooth="yes"/>
			<point x="305" y="203"/>
			<point x="391" y="89"/>
			<point x="521" y="87" type="curve" smooth="yes"/>
			<point x="649" y="85"/>
			<point x="761" y="178"/>
		</contour>
		<contour>
			<point x="572" y="844" type="curve"/>
			<point x="660" y="903"/>
			<point x="737" y="986"/>
			<point x="737" y="1097" type="curve" smooth="yes"/>
			<point x="737" y="1187"/>
			<point x="681" y="1269"/>
			<point x="583" y="1269" type="curve" smooth="yes"/>
			<point x="495" y="1269"/>
			<point x="422" y="1200"/>
			<point x="422" y="1112" type="curve" smooth="yes"/>
			<point x="422" y="1015"/>
			<point x="512" y="915"/>
		</contour>
	</outline>
</glyph>
<glyph name="quotesingle" format="2">
	<unicode hex="0027"/>
	<advance height="2048" width="420"/>
	<outline>
		<contour>
			<point x="211" y="1402" type="curve" smooth="yes"/>
			<point x="253" y="1402"/>
			<point x="319" y="1376"/>
			<point x="320" y="1328" type="curve" smooth="yes"/>
			<point x="320" y="1327"/>
			<point x="320" y="1325"/>
			<point x="320" y="1323" type="curve"/>
			<point x="291" y="935" type="line" smooth="yes"/>
			<point x="288" y="892"/>
			<point x="248" y="880"/>
			<point x="209" y="880" type="curve" smooth="yes"/>
			<point x="171" y="880"/>
			<point x="132" y="893"/>
			<point x="129" y="935" type="curve" smooth="yes"/>
			<point x="100" y="1323" type="line"/>
			<point x="100" y="1324"/>
			<point x="100" y="1326"/>
			<point x="100" y="1327" type="curve" smooth="yes"/>
			<point x="100" y="1375"/>
			<point x="168" y="1402"/>
		</contour>
	</outline>
</glyph>
<glyph name="parenleft" format="2">
	<unicode hex="0028"/>
	<advance height="2048" width="719"/>
	<outline>
		<contour>
			<point x="607" y="-298" type="curve" smooth="yes"/>
			<point x="640" y="-332"/>
			<point x="599" y="-363"/>
			<point x="565" y="-373" type="curve" smooth="yes"/>
			<point x="524" y="-386"/>
			<point x="459" y="-382"/>
			<point x="429" y="-350" type="curve" smooth="yes"/>
			<point x="209" y="-122"/>
			<point x="100" y="202"/>
			<point x="100" y="514" type="curve" smooth="yes"/>
			<point x="100" y="828"/>
			<point x="208" y="1140"/>
			<point x="428" y="1370" type="curve" smooth="yes"/>
			<point x="459" y="1402"/>
			<point x="524" y="1406"/>
			<point x="565" y="1394" type="curve" smooth="yes"/>
			<point x="599" y="1384"/>
			<point x="640" y="1352"/>
			<point x="607" y="1318" type="curve" smooth="yes"/>
			<point x="401" y="1102"/>
			<point x="303" y="808"/>
			<point x="303" y="514" type="curve" smooth="yes"/>
			<point x="303" y="222"/>
			<point x="401" y="-84"/>
		</contour>
	</outline>
</glyph>
<glyph name="asterisk" format="2">
	<unicode hex="002A"/>
	<advance height="2048" width="638"/>
	<outline>
		<contour>
			<point x="264" y="811" type="line"/>
			<point x="276" y="982" type="line" smooth="yes"/>
			<point x="278" y="1006"/>
			<point x="296" y="1016"/>
			<point x="318" y="1016" type="curve" smooth="yes"/>
			<point x="341" y="1016"/>
			<point x="360" y="1006"/>
			<point x="361" y="982" type="curve" smooth="yes"/>
			<point x="373" y="812" type="line"/>
			<point x="539" y="853" type="line" smooth="yes"/>
			<point x="562" y="859"/>
			<point x="577" y="845"/>
			<point x="585" y="824" type="curve" smooth="yes"/>
			<point x="592" y="803"/>
			<point x="588" y="781"/>
			<point x="565" y="772" type="curve" smooth="yes"/>
			<point x="407" y="708" type="line"/>
			<point x="498" y="564" type="line" smooth="yes"/>
			<point x="510" y="543"/>
			<point x="502" y="524"/>
			<point x="484" y="511" type="curve" smooth="yes"/>
			<point x="466" y="498"/>
			<point x="445" y="495"/>
			<point x="429" y="514" type="curve" smooth="yes"/>
			<point x="319" y="644" type="line"/>
			<point x="210" y="513" type="line" smooth="yes"/>
			<point x="194" y="495"/>
			<point x="173" y="497"/>
			<point x="155" y="510" type="curve" smooth="yes"/>
			<point x="137" y="523"/>
			<point x="128" y="543"/>
			<point x="141" y="563" type="curve" smooth="yes"/>
			<point x="231" y="708" type="line"/>
			<point x="73" y="772" type="line" smooth="yes"/>
			<point x="50" y="781"/>
			<point x="47" y="801"/>
			<point x="53" y="822" type="curve" smooth="yes"/>
			<point x="60" y="844"/>
			<point x="75" y="858"/>
			<point x="99" y="853" type="curve" smooth="yes"/>
		</contour>
	</outline>
</glyph>
<glyph name="plus" format="2">
  <advance height="2048" width="1090.0"/>
  <unicode hex="002B"/>
  <outline>
    <contour>
      <point x="545.0" y="0.0" type="curve" smooth="yes"/>
      <point x="577.0" y="0.0"/>
      <point x="647.0" y="14.0"/>
      <point x="647.0" y="55.0" type="curve" smooth="yes"/>
      <point x="647.0" y="370.0" type="line"/>
      <point x="889.0" y="370.0" type="line" smooth="yes"/>
      <point x="921.0" y="370.0"/>
      <point x="990.0" y="384.0"/>
      <point x="990.0" y="425.0" type="curve" smooth="yes"/>
      <point x="990.0" y="466.0"/>
      <point x="921.0" y="480.0"/>
      <point x="889.0" y="480.0" type="curve" smooth="yes"/>
      <point x="647.0" y="480.0" type="line"/>
      <point x="647.0" y="795.0" type="line" smooth="yes"/>
      <point x="647.0" y="836.0"/>
      <point x="577.0" y="850.0"/>
      <point x="545.0" y="850.0" type="curve" smooth="yes"/>
      <point x="513.0" y="850.0"/>
      <point x="443.0" y="836.0"/>
      <point x="443.0" y="795.0" type="curve" smooth="yes"/>
      <point x="443.0" y="480.0" type="line"/>
      <point x="201.0" y="480.0" type="line" smooth="yes"/>
      <point x="169.0" y="480.0"/>
      <point x="100.0" y="466.0"/>
      <point x="100.0" y="425.0" type="curve" smooth="yes"/>
      <point x="100.0" y="384.0"/>
      <point x="169.0" y="370.0"/>
      <point x="201.0" y="370.0" type="curve" smooth="yes"/>
      <point x="443.0" y="370.0" type="line"/>
      <point x="443.0" y="55.0" type="line" smooth="yes"/>
      <point x="443.0" y="14.0"/>
      <point x="513.0" y="0.0"/>
    </contour>
  </outline>
</glyph>
<glyph name="comma" format="2">
	<unicode hex="002C"/>
	<advance height="2048" width="501"/>
	<outline>
		<contour>
			<point x="250" y="76.07" type="curve"/>
			<point x="241.001" y="74.07"/>
			<point x="233" y="74.07"/>
			<point x="227" y="74.07" type="curve" smooth="yes"/>
			<point x="144" y="74.07"/>
			<point x="80" y="140.055"/>
			<point x="80" y="222.035" type="curve" smooth="yes"/>
			<point x="80" y="305.016"/>
			<point x="142" y="372"/>
			<point x="226" y="372" type="curve" smooth="yes"/>
			<point x="350" y="372"/>
			<point x="421" y="279.022"/>
			<point x="421" y="161.05" type="curve" smooth="yes"/>
			<point x="421" y="28.453"/>
			<point x="337.574" y="-158.001"/>
			<point x="185.096" y="-158.001" type="curve" smooth="yes"/>
			<point x="160.462" y="-158.001"/>
			<point x="92.049" y="-147.09"/>
			<point x="92.053" y="-113.248" type="curve" smooth="yes"/>
			<point x="92.053" y="-109.332"/>
			<point x="95.597" y="-107.587"/>
			<point x="106.05" y="-104.81" type="curve" smooth="yes"/>
			<point x="217.487" y="-75.21"/>
			<point x="249.723" y="25.331"/>
		</contour>
	</outline>
</glyph>
<glyph name="hyphen" format="2">
  <advance height="2048" width="853.0"/>
  <unicode hex="002D"/>
  <outline>
    <contour>
      <point x="202.0" y="450.0" type="curve" smooth="yes"/>
      <point x="651.0" y="450.0" type="line" smooth="yes"/>
      <point x="684.0" y="450.0"/>
      <point x="753.0" y="464.0"/>
      <point x="753.0" y="505.0" type="curve" smooth="yes"/>
      <point x="753.0" y="546.0"/>
      <point x="684.0" y="560.0"/>
      <point x="651.0" y="560.0" type="curve" smooth="yes"/>
      <point x="202.0" y="560.0" type="line" smooth="yes"/>
      <point x="169.0" y="560.0"/>
      <point x="100.0" y="546.0"/>
      <point x="100.0" y="505.0" type="curve" smooth="yes"/>
      <point x="100.0" y="464.0"/>
      <point x="169.0" y="450.0"/>
    </contour>
  </outline>
</glyph>
<glyph name="period" format="2">
	<unicode hex="002E"/>
	<advance height="2048" width="498"/>
	<outline>
		<contour>
			<point x="249" y="0" type="curve" smooth="yes"/>
			<point x="166.898" y="0"/>
			<point x="100" y="66.898"/>
			<point x="100" y="149" type="curve" smooth="yes"/>
			<point x="100" y="231.102"/>
			<point x="166.898" y="298"/>
			<point x="249" y="298" type="curve" smooth="yes"/>
			<point x="332.116" y="298"/>
			<point x="398" y="232.116"/>
			<point x="398" y="149" type="curve" smooth="yes"/>
			<point x="398" y="65.884"/>
			<point x="332.116" y="0"/>
		</contour>
	</outline>
</glyph>
<glyph name="slash" format="2">
	<unicode hex="002F"/>
	<advance height="2048" width="887"/>
	<outline>
		<contour>
			<point x="258" y="9" type="line" smooth="yes"/>
			<point x="248" y="-16"/>
			<point x="204" y="-24"/>
			<point x="180" y="-24" type="curve" smooth="yes"/>
			<point x="175" y="-24"/>
			<point x="170" y="-24"/>
			<point x="165" y="-23" type="curve"/>
			<point x="144" y="-21"/>
			<point x="100" y="-10"/>
			<point x="100" y="17" type="curve" smooth="yes"/>
			<point x="100" y="19"/>
			<point x="100" y="22"/>
			<point x="101" y="24" type="curve"/>
			<point x="629" y="1348" type="line" smooth="yes"/>
			<point x="639" y="1374"/>
			<point x="684" y="1381"/>
			<point x="708" y="1381" type="curve" smooth="yes"/>
			<point x="713" y="1381"/>
			<point x="718" y="1381"/>
			<point x="722" y="1380" type="curve"/>
			<point x="743" y="1378"/>
			<point x="787" y="1367"/>
			<point x="787" y="1341" type="curve" smooth="yes"/>
			<point x="787" y="1338"/>
			<point x="787" y="1335"/>
			<point x="786" y="1333" type="curve"/>
		</contour>
	</outline>
</glyph>
<glyph name="zero" format="2">
  <advance height="2048" width="1168.0"/>
  <unicode hex="0030"/>
  <outline>
    <contour>
      <point x="584.0" y="-24.0" type="curve" smooth="yes"/>
      <point x="952.0" y="-24.0"/>
      <point x="1088.0" y="376.0"/>
      <point x="1088.0" y="679.0" type="curve" smooth="yes"/>
      <point x="1088.0" y="981.0"/>
      <point x="953.0" y="1381.0"/>
      <point x="584.0" y="1381.0" type="curve" smooth="yes"/>
      <point x="215.0" y="1381.0"/>
      <point x="80.0" y="981.0"/>
      <point x="80.0" y="679.0" type="curve" smooth="yes"/>
      <point x="80.0" y="376.0"/>
      <point x="216.0" y="-24.0"/>
    </contour>
    <contour>
      <point x="584.0" y="88.0" type="curve" smooth="yes"/>
      <point x="345.0" y="88.0"/>
      <point x="289.0" y="507.0"/>
      <point x="289.0" y="678.0" type="curve" smooth="yes"/>
      <point x="289.0" y="850.0"/>
      <point x="346.0" y="1269.0"/>
      <point x="584.0" y="1269.0" type="curve" smooth="yes"/>
      <point x="823.0" y="1269.0"/>
      <point x="879.0" y="850.0"/>
      <point x="879.0" y="678.0" type="curve" smooth="yes"/>
      <point x="879.0" y="507.0"/>
      <point x="823.0" y="88.0"/>
    </contour>
  </outline>
</glyph>
<glyph name="one" format="2">
  <advance height="2048" width="657.0"/>
  <unicode hex="0031"/>
  <outline>
    <contour>
      <point x="455.0" y="-24.0" type="curve" smooth="yes"/>
      <point x="488.0" y="-24.0"/>
      <point x="557.0" y="-9.0"/>
      <point x="557.0" y="33.0" type="curve" smooth="yes"/>
      <point x="557.0" y="1324.0" type="line" smooth="yes"/>
      <point x="557.0" y="1366.0"/>
      <point x="488.0" y="1381.0"/>
      <point x="455.0" y="1381.0" type="curve" smooth="yes"/>
      <point x="420.0" y="1381.0"/>
      <point x="359.0" y="1367.0"/>
      <point x="353.0" y="1325.0" type="curve" smooth="yes"/>
      <point x="343.0" y="1252.0"/>
      <point x="315.0" y="1181.0"/>
      <point x="264.0" y="1126.0" type="curve" smooth="yes"/>
      <point x="228.0" y="1088.0"/>
      <point x="179.0" y="1054.0"/>
      <point x="126.0" y="1047.0" type="curve" smooth="yes"/>
      <point x="98.0" y="1043.0"/>
      <point x="50.0" y="1026.0"/>
      <point x="50.0" y="993.0" type="curve" smooth="yes"/>
      <point x="50.0" y="951.0"/>
      <point x="112.0" y="935.0"/>
      <point x="154.0" y="937.0" type="curve" smooth="yes"/>
      <point x="227.0" y="941.0"/>
      <point x="291.0" y="964.0"/>
      <point x="354.0" y="1002.0" type="curve"/>
      <point x="354.0" y="33.0" type="line" smooth="yes"/>
      <point x="354.0" y="-9.0"/>
      <point x="423.0" y="-24.0"/>
    </contour>
  </outline>
</glyph>
<glyph name="two" format="2">
  <advance height="2048" width="1159.0"/>
  <unicode hex="0032"/>
  <outline>
    <contour>
      <point x="951.0" y="-2.0" type="line" smooth="yes"/>
      <point x="983.0" y="-2.0"/>
      <point x="1052.0" y="13.0"/>
      <point x="1052.0" y="55.0" type="curve" smooth="yes"/>
      <point x="1052.0" y="96.0"/>
      <point x="983.0" y="111.0"/>
      <point x="951.0" y="111.0" type="curve" smooth="yes"/>
      <point x="304.0" y="111.0" type="line"/>
      <point x="308.0" y="184.0"/>
      <point x="321.0" y="266.0"/>
      <point x="360.0" y="330.0" type="curve" smooth="yes"/>
      <point x="409.0" y="411.0"/>
      <point x="498.0" y="449.0"/>
      <point x="580.0" y="489.0" type="curve" smooth="yes"/>
      <point x="787.0" y="591.0"/>
      <point x="1059.0" y="723.0"/>
      <point x="1059.0" y="978.0" type="curve" smooth="yes"/>
      <point x="1059.0" y="1236.0"/>
      <point x="824.0" y="1383.0"/>
      <point x="586.0" y="1383.0" type="curve" smooth="yes"/>
      <point x="490.0" y="1383.0"/>
      <point x="394.0" y="1365.0"/>
      <point x="310.0" y="1320.0" type="curve" smooth="yes"/>
      <point x="198.0" y="1260.0"/>
      <point x="107.0" y="1126.0"/>
      <point x="107.0" y="996.0" type="curve" smooth="yes"/>
      <point x="107.0" y="982.0"/>
      <point x="108.0" y="968.0"/>
      <point x="110.0" y="954.0" type="curve" smooth="yes"/>
      <point x="116.0" y="916.0"/>
      <point x="176.0" y="904.0"/>
      <point x="211.0" y="904.0" type="curve" smooth="yes"/>
      <point x="244.0" y="904.0"/>
      <point x="312.0" y="917.0"/>
      <point x="312.0" y="959.0" type="curve" smooth="yes"/>
      <point x="312.0" y="980.0" type="line" smooth="yes"/>
      <point x="312.0" y="1068.0"/>
      <point x="345.0" y="1162.0"/>
      <point x="418.0" y="1218.0" type="curve" smooth="yes"/>
      <point x="468.0" y="1256.0"/>
      <point x="523.0" y="1270.0"/>
      <point x="586.0" y="1270.0" type="curve" smooth="yes"/>
      <point x="743.0" y="1270.0"/>
      <point x="855.0" y="1131.0"/>
      <point x="855.0" y="981.0" type="curve" smooth="yes"/>
      <point x="855.0" y="769.0"/>
      <point x="616.0" y="656.0"/>
      <point x="446.0" y="573.0" type="curve" smooth="yes"/>
      <point x="337.0" y="519.0"/>
      <point x="233.0" y="473.0"/>
      <point x="168.0" y="365.0" type="curve" smooth="yes"/>
      <point x="113.0" y="274.0"/>
      <point x="100.0" y="159.0"/>
      <point x="100.0" y="55.0" type="curve" smooth="yes"/>
      <point x="100.0" y="13.0"/>
      <point x="169.0" y="-2.0"/>
      <point x="202.0" y="-2.0" type="curve" smooth="yes"/>
    </contour>
  </outline>
</glyph>
<glyph name="three" format="2">
	<unicode hex="0033"/>
	<advance height="2048" width="1149"/>
	<outline>
		<contour>
			<point x="304" y="973" type="curve" smooth="yes"/>
			<point x="306" y="932"/>
			<point x="238" y="917"/>
			<point x="206" y="916" type="curve" smooth="yes"/>
			<point x="173" y="915"/>
			<point x="104" y="928"/>
			<point x="101" y="970" type="curve" smooth="yes"/>
			<point x="86" y="1234"/>
			<point x="303" y="1380"/>
			<point x="552" y="1381" type="curve" smooth="yes"/>
			<point x="780" y="1381"/>
			<point x="1010" y="1258"/>
			<point x="1011" y="1008" type="curve" smooth="yes"/>
			<point x="1011" y="880"/>
			<point x="937" y="776"/>
			<point x="824" y="716" type="curve"/>
			<point x="965" y="651"/>
			<point x="1049" y="526"/>
			<point x="1049" y="373" type="curve" smooth="yes"/>
			<point x="1049" y="120"/>
			<point x="827" y="-24"/>
			<point x="589" y="-24" type="curve" smooth="yes"/>
			<point x="337" y="-24"/>
			<point x="100" y="102"/>
			<point x="100" y="375" type="curve" smooth="yes"/>
			<point x="100" y="417"/>
			<point x="169" y="431"/>
			<point x="201" y="431" type="curve" smooth="yes"/>
			<point x="234" y="431"/>
			<point x="303" y="417"/>
			<point x="303" y="375" type="curve" smooth="yes"/>
			<point x="303" y="205"/>
			<point x="414" y="88"/>
			<point x="589" y="88" type="curve" smooth="yes"/>
			<point x="749" y="88"/>
			<point x="847" y="227"/>
			<point x="847" y="375" type="curve" smooth="yes"/>
			<point x="847" y="500"/>
			<point x="777" y="612"/>
			<point x="649" y="643" type="curve" smooth="yes"/>
			<point x="605" y="654"/>
			<point x="566" y="649"/>
			<point x="522" y="649" type="curve" smooth="yes"/>
			<point x="490" y="649"/>
			<point x="421" y="663"/>
			<point x="421" y="705" type="curve" smooth="yes"/>
			<point x="421" y="745"/>
			<point x="486" y="759"/>
			<point x="516" y="761" type="curve" smooth="yes"/>
			<point x="560" y="763"/>
			<point x="596" y="764"/>
			<point x="638" y="778" type="curve" smooth="yes"/>
			<point x="743" y="812"/>
			<point x="809" y="900"/>
			<point x="809" y="1008" type="curve" smooth="yes"/>
			<point x="808" y="1159"/>
			<point x="697" y="1268"/>
			<point x="544" y="1269" type="curve" smooth="yes"/>
			<point x="382" y="1271"/>
			<point x="295" y="1119"/>
		</contour>
	</outline>
</glyph>
<glyph name="four" format="2">
  <advance height="2048" width="1196.0"/>
  <unicode hex="0034"/>
  <outline>
    <contour>
      <point x="797.0" y="-24.0" type="curve" smooth="yes"/>
      <point x="830.0" y="-24.0"/>
      <point x="899.0" y="-10.0"/>
      <point x="899.0" y="33.0" type="curve" smooth="yes"/>
      <point x="899.0" y="333.0" type="line"/>
      <point x="1044.0" y="333.0" type="line" smooth="yes"/>
      <point x="1077.0" y="333.0"/>
      <point x="1146.0" y="348.0"/>
      <point x="1146.0" y="389.0" type="curve" smooth="yes"/>
      <point x="1146.0" y="431.0"/>
      <point x="1077.0" y="445.0"/>
      <point x="1044.0" y="445.0" type="curve" smooth="yes"/>
      <point x="899.0" y="445.0" type="line"/>
      <point x="899.0" y="1324.0" type="line" smooth="yes"/>
      <point x="899.0" y="1367.0"/>
      <point x="830.0" y="1381.0"/>
      <point x="797.0" y="1381.0" type="curve" smooth="yes"/>
      <point x="764.0" y="1381.0"/>
      <point x="720.0" y="1370.0"/>
      <point x="700.0" y="1341.0" type="curve" smooth="yes"/>
      <point x="58.0" y="411.0" type="line" smooth="yes"/>
      <point x="54.0" y="405.0"/>
      <point x="50.0" y="397.0"/>
      <point x="50.0" y="389.0" type="curve" smooth="yes"/>
      <point x="50.0" y="348.0"/>
      <point x="119.0" y="333.0"/>
      <point x="152.0" y="333.0" type="curve" smooth="yes"/>
      <point x="696.0" y="333.0" type="line"/>
      <point x="696.0" y="33.0" type="line" smooth="yes"/>
      <point x="696.0" y="-10.0"/>
      <point x="765.0" y="-24.0"/>
    </contour>
    <contour>
      <point x="696.0" y="445.0" type="line"/>
      <point x="259.0" y="445.0" type="line"/>
      <point x="696.0" y="1079.0" type="line"/>
    </contour>
  </outline>
</glyph>
<glyph name="five" format="2">
	<unicode hex="0035"/>
	<advance height="2048" width="1173"/>
	<outline>
		<contour>
			<point x="144" y="641" type="curve" smooth="yes"/>
			<point x="233" y="1303" type="line" smooth="yes"/>
			<point x="238" y="1343"/>
			<point x="300" y="1357"/>
			<point x="334" y="1357" type="curve" smooth="yes"/>
			<point x="927" y="1357" type="line" smooth="yes"/>
			<point x="959" y="1357"/>
			<point x="1028" y="1343"/>
			<point x="1028" y="1301" type="curve" smooth="yes"/>
			<point x="1028" y="1259"/>
			<point x="959" y="1245"/>
			<point x="927" y="1245" type="curve" smooth="yes"/>
			<point x="428" y="1245" type="line"/>
			<point x="373" y="831" type="line"/>
			<point x="447" y="860"/>
			<point x="529" y="871"/>
			<point x="608" y="868" type="curve" smooth="yes"/>
			<point x="870" y="856"/>
			<point x="1073" y="690"/>
			<point x="1073" y="422" type="curve" smooth="yes"/>
			<point x="1073" y="145"/>
			<point x="856" y="-21"/>
			<point x="586" y="-24" type="curve" smooth="yes"/>
			<point x="366" y="-26"/>
			<point x="154" y="87"/>
			<point x="101" y="309" type="curve" smooth="yes"/>
			<point x="90" y="356"/>
			<point x="169" y="372"/>
			<point x="202" y="372" type="curve" smooth="yes"/>
			<point x="234" y="372"/>
			<point x="293" y="360"/>
			<point x="302" y="324" type="curve" smooth="yes"/>
			<point x="333" y="193"/>
			<point x="441" y="86"/>
			<point x="583" y="88" type="curve" smooth="yes"/>
			<point x="767" y="89"/>
			<point x="870" y="255"/>
			<point x="870" y="422" type="curve" smooth="yes"/>
			<point x="870" y="586"/>
			<point x="772" y="748"/>
			<point x="592" y="756" type="curve" smooth="yes"/>
			<point x="492" y="761"/>
			<point x="400" y="708"/>
			<point x="346" y="626" type="curve" smooth="yes"/>
			<point x="321" y="587"/>
			<point x="294" y="576"/>
			<point x="248" y="576" type="curve" smooth="yes"/>
			<point x="209" y="576"/>
			<point x="137" y="589"/>
		</contour>
	</outline>
</glyph>
<glyph name="six" format="2">
	<unicode hex="0036"/>
	<advance height="2048" width="1197"/>
	<outline>
		<contour>
			<point x="134" y="955" type="curve" smooth="yes"/>
			<point x="203" y="1209"/>
			<point x="371" y="1382"/>
			<point x="650" y="1381" type="curve" smooth="yes"/>
			<point x="849" y="1380"/>
			<point x="1021" y="1272"/>
			<point x="1069" y="1075" type="curve" smooth="yes"/>
			<point x="1080" y="1030"/>
			<point x="1002" y="1013"/>
			<point x="969" y="1013" type="curve" smooth="yes"/>
			<point x="933" y="1013"/>
			<point x="877" y="1025"/>
			<point x="868" y="1061" type="curve" smooth="yes"/>
			<point x="844" y="1162"/>
			<point x="763" y="1269"/>
			<point x="648" y="1270" type="curve" smooth="yes"/>
			<point x="473" y="1271"/>
			<point x="374" y="1083"/>
			<point x="334" y="939" type="curve" smooth="yes"/>
			<point x="318" y="879"/>
			<point x="308" y="817"/>
			<point x="303" y="756" type="curve"/>
			<point x="387" y="840"/>
			<point x="502" y="877"/>
			<point x="621" y="877" type="curve" smooth="yes"/>
			<point x="741" y="877"/>
			<point x="861" y="842"/>
			<point x="952" y="763" type="curve" smooth="yes"/>
			<point x="1051" y="676"/>
			<point x="1096" y="556"/>
			<point x="1096" y="427" type="curve" smooth="yes"/>
			<point x="1096" y="325"/>
			<point x="1067" y="226"/>
			<point x="1003" y="145" type="curve" smooth="yes"/>
			<point x="911" y="29"/>
			<point x="767" y="-23"/>
			<point x="621" y="-23" type="curve" smooth="yes"/>
			<point x="478" y="-23"/>
			<point x="346" y="16"/>
			<point x="251" y="126" type="curve" smooth="yes"/>
			<point x="183" y="205"/>
			<point x="145" y="302"/>
			<point x="124" y="402" type="curve" smooth="yes"/>
			<point x="105" y="489"/>
			<point x="99" y="580"/>
			<point x="100" y="670" type="curve" smooth="yes"/>
			<point x="101" y="763"/>
			<point x="109" y="864"/>
		</contour>
		<contour>
			<point x="893" y="427" type="curve" smooth="yes"/>
			<point x="893" y="586"/>
			<point x="802" y="766"/>
			<point x="621" y="766" type="curve" smooth="yes"/>
			<point x="439" y="766"/>
			<point x="348" y="586"/>
			<point x="348" y="427" type="curve" smooth="yes"/>
			<point x="348" y="269"/>
			<point x="439" y="89"/>
			<point x="621" y="89" type="curve" smooth="yes"/>
			<point x="802" y="89"/>
			<point x="893" y="269"/>
		</contour>
	</outline>
</glyph>
<glyph name="seven" format="2">
	<unicode hex="0037"/>
	<advance height="2048" width="1066"/>
	<outline>
		<contour>
			<point x="132" y="1266" type="line" smooth="yes"/>
			<point x="87" y="1266"/>
			<point x="50" y="1286"/>
			<point x="50" y="1311" type="curve" smooth="yes"/>
			<point x="50" y="1337"/>
			<point x="87" y="1357"/>
			<point x="132" y="1357" type="curve" smooth="yes"/>
			<point x="934" y="1357" type="line" smooth="yes"/>
			<point x="979" y="1357"/>
			<point x="1016" y="1337"/>
			<point x="1016" y="1311" type="curve" smooth="yes"/>
			<point x="1016" y="1304"/>
			<point x="1012" y="1297"/>
			<point x="1007" y="1290" type="curve"/>
			<point x="860" y="1109"/>
			<point x="751" y="929"/>
			<point x="675" y="727" type="curve" smooth="yes"/>
			<point x="598" y="523"/>
			<point x="555" y="295"/>
			<point x="541" y="20" type="curve" smooth="yes"/>
			<point x="539" y="-5"/>
			<point x="502" y="-25"/>
			<point x="457" y="-24" type="curve" smooth="yes"/>
			<point x="412" y="-23"/>
			<point x="377" y="-2"/>
			<point x="378" y="23" type="curve" smooth="yes"/>
			<point x="393" y="304"/>
			<point x="437" y="536"/>
			<point x="516" y="745" type="curve" smooth="yes"/>
			<point x="586" y="932"/>
			<point x="683" y="1099"/>
			<point x="810" y="1266" type="curve"/>
		</contour>
	</outline>
</glyph>
<glyph name="eight" format="2">
  <advance height="2048" width="1189.0"/>
  <unicode hex="0038"/>
  <outline>
    <contour>
      <point x="595.0" y="-24.0" type="curve" smooth="yes"/>
      <point x="836.0" y="-24.0"/>
      <point x="1089.0" y="105.0"/>
      <point x="1089.0" y="370.0" type="curve" smooth="yes"/>
      <point x="1089.0" y="530.0"/>
      <point x="997.0" y="647.0"/>
      <point x="853.0" y="712.0" type="curve"/>
      <point x="976.0" y="774.0"/>
      <point x="1051.0" y="879.0"/>
      <point x="1051.0" y="1018.0" type="curve" smooth="yes"/>
      <point x="1051.0" y="1263.0"/>
      <point x="818.0" y="1381.0"/>
      <point x="595.0" y="1381.0" type="curve" smooth="yes"/>
      <point x="371.0" y="1381.0"/>
      <point x="138.0" y="1263.0"/>
      <point x="138.0" y="1018.0" type="curve" smooth="yes"/>
      <point x="138.0" y="879.0"/>
      <point x="213.0" y="774.0"/>
      <point x="336.0" y="712.0" type="curve"/>
      <point x="192.0" y="647.0"/>
      <point x="100.0" y="530.0"/>
      <point x="100.0" y="370.0" type="curve" smooth="yes"/>
      <point x="100.0" y="105.0"/>
      <point x="353.0" y="-24.0"/>
    </contour>
    <contour>
      <point x="595.0" y="766.0" type="curve" smooth="yes"/>
      <point x="446.0" y="766.0"/>
      <point x="341.0" y="872.0"/>
      <point x="341.0" y="1018.0" type="curve" smooth="yes"/>
      <point x="341.0" y="1163.0"/>
      <point x="446.0" y="1269.0"/>
      <point x="595.0" y="1269.0" type="curve" smooth="yes"/>
      <point x="743.0" y="1269.0"/>
      <point x="848.0" y="1163.0"/>
      <point x="848.0" y="1018.0" type="curve" smooth="yes"/>
      <point x="848.0" y="872.0"/>
      <point x="743.0" y="766.0"/>
    </contour>
    <contour>
      <point x="595.0" y="88.0" type="curve" smooth="yes"/>
      <point x="426.0" y="88.0"/>
      <point x="303.0" y="203.0"/>
      <point x="303.0" y="370.0" type="curve" smooth="yes"/>
      <point x="303.0" y="537.0"/>
      <point x="426.0" y="653.0"/>
      <point x="595.0" y="653.0" type="curve" smooth="yes"/>
      <point x="763.0" y="653.0"/>
      <point x="886.0" y="537.0"/>
      <point x="886.0" y="370.0" type="curve" smooth="yes"/>
      <point x="886.0" y="203.0"/>
      <point x="763.0" y="88.0"/>
    </contour>
  </outline>
</glyph>
<glyph name="nine" format="2">
	<unicode hex="0039"/>
	<advance height="2048" width="1197"/>
	<outline>
		<contour>
			<point x="1062" y="403" type="curve" smooth="yes"/>
			<point x="993" y="149"/>
			<point x="825" y="-24"/>
			<point x="546" y="-23" type="curve" smooth="yes"/>
			<point x="347" y="-22"/>
			<point x="175" y="86"/>
			<point x="128" y="283" type="curve" smooth="yes"/>
			<point x="117" y="328"/>
			<point x="194" y="345"/>
			<point x="227" y="345" type="curve" smooth="yes"/>
			<point x="264" y="345"/>
			<point x="320" y="332"/>
			<point x="328" y="297" type="curve" smooth="yes"/>
			<point x="352" y="196"/>
			<point x="434" y="89"/>
			<point x="548" y="88" type="curve" smooth="yes"/>
			<point x="723" y="87"/>
			<point x="823" y="275"/>
			<point x="862" y="419" type="curve" smooth="yes"/>
			<point x="878" y="479"/>
			<point x="888" y="541"/>
			<point x="893" y="602" type="curve"/>
			<point x="809" y="518"/>
			<point x="694" y="480"/>
			<point x="576" y="480" type="curve" smooth="yes"/>
			<point x="455" y="480"/>
			<point x="336" y="516"/>
			<point x="244" y="595" type="curve" smooth="yes"/>
			<point x="146" y="682"/>
			<point x="100" y="802"/>
			<point x="100" y="931" type="curve" smooth="yes"/>
			<point x="100" y="1033"/>
			<point x="129" y="1132"/>
			<point x="194" y="1213" type="curve" smooth="yes"/>
			<point x="286" y="1329"/>
			<point x="429" y="1381"/>
			<point x="576" y="1381" type="curve" smooth="yes"/>
			<point x="718" y="1381"/>
			<point x="851" y="1342"/>
			<point x="945" y="1232" type="curve" smooth="yes"/>
			<point x="1013" y="1153"/>
			<point x="1052" y="1056"/>
			<point x="1073" y="956" type="curve" smooth="yes"/>
			<point x="1091" y="869"/>
			<point x="1097" y="778"/>
			<point x="1096" y="688" type="curve" smooth="yes"/>
			<point x="1095" y="594"/>
			<point x="1087" y="494"/>
		</contour>
		<contour>
			<point x="303" y="931" type="curve" smooth="yes"/>
			<point x="303" y="772"/>
			<point x="394" y="592"/>
			<point x="576" y="592" type="curve" smooth="yes"/>
			<point x="757" y="592"/>
			<point x="848" y="772"/>
			<point x="848" y="931" type="curve" smooth="yes"/>
			<point x="848" y="1089"/>
			<point x="757" y="1269"/>
			<point x="576" y="1269" type="curve" smooth="yes"/>
			<point x="394" y="1269"/>
			<point x="303" y="1089"/>
		</contour>
	</outline>
</glyph>
<glyph name="colon" format="2">
	<unicode hex="003A"/>
	<advance height="2048" width="380"/>
	<outline>
		<contour>
			<point x="190" y="330" type="curve" smooth="yes"/>
			<point x="240" y="330"/>
			<point x="280" y="290"/>
			<point x="280" y="240" type="curve" smooth="yes"/>
			<point x="280" y="190"/>
			<point x="240" y="150"/>
			<point x="190" y="150" type="curve" smooth="yes"/>
			<point x="140" y="150"/>
			<point x="100" y="190"/>
			<point x="100" y="240" type="curve" smooth="yes"/>
			<point x="100" y="290"/>
			<point x="140" y="330"/>
		</contour>
		<contour>
			<point x="190" y="1076" type="curve" smooth="yes"/>
			<point x="240" y="1076"/>
			<point x="280" y="1036"/>
			<point x="280" y="986" type="curve" smooth="yes"/>
			<point x="280" y="936"/>
			<point x="240" y="896"/>
			<point x="190" y="896" type="curve" smooth="yes"/>
			<point x="140" y="896"/>
			<point x="100" y="936"/>
			<point x="100" y="986" type="curve" smooth="yes"/>
			<point x="100" y="1036"/>
			<point x="140" y="1076"/>
		</contour>
	</outline>
</glyph>
<glyph name="semicolon" format="2">
	<unicode hex="003B"/>
	<advance height="2048" width="422"/>
	<outline>
		<contour>
			<point x="203" y="690" type="curve" smooth="yes"/>
			<point x="256" y="690"/>
			<point x="305" y="649"/>
			<point x="305" y="588" type="curve" smooth="yes"/>
			<point x="305" y="527"/>
			<point x="256" y="485"/>
			<point x="203" y="485" type="curve" smooth="yes"/>
			<point x="149" y="485"/>
			<point x="100" y="527"/>
			<point x="100" y="588" type="curve" smooth="yes"/>
			<point x="100" y="649"/>
			<point x="149" y="690"/>
		</contour>
		<contour>
			<point x="220" y="-14" type="curve"/>
			<point x="214" y="-15"/>
			<point x="208" y="-16"/>
			<point x="203" y="-16" type="curve" smooth="yes"/>
			<point x="149" y="-16"/>
			<point x="100" y="26"/>
			<point x="100" y="87" type="curve" smooth="yes"/>
			<point x="100" y="148"/>
			<point x="149" y="189"/>
			<point x="203" y="189" type="curve" smooth="yes"/>
			<point x="236" y="189"/>
			<point x="263" y="178"/>
			<point x="283" y="159" type="curve" smooth="yes"/>
			<point x="311" y="132"/>
			<point x="322" y="96"/>
			<point x="322" y="58" type="curve" smooth="yes"/>
			<point x="322" y="22"/>
			<point x="311" y="-17"/>
			<point x="293" y="-52" type="curve" smooth="yes"/>
			<point x="276" y="-85"/>
			<point x="245" y="-125"/>
			<point x="208" y="-145" type="curve" smooth="yes"/>
			<point x="189" y="-155"/>
			<point x="169" y="-161"/>
			<point x="148" y="-157" type="curve" smooth="yes"/>
			<point x="134" y="-155"/>
			<point x="123" y="-145"/>
			<point x="141" y="-137" type="curve" smooth="yes"/>
			<point x="163" y="-128"/>
			<point x="185" y="-103"/>
			<point x="200" y="-77" type="curve" smooth="yes"/>
			<point x="212" y="-55"/>
			<point x="220" y="-32"/>
		</contour>
	</outline>
</glyph>
<glyph name="less" format="2">
  <advance height="2048" width="1236.0"/>
  <unicode hex="003C"/>
  <outline>
    <contour>
      <point x="1035.0" y="80.0" type="curve" smooth="yes"/>
      <point x="1062.0" y="80.0"/>
      <point x="1089.0" y="86.0"/>
      <point x="1109.0" y="98.0" type="curve" smooth="yes"/>
      <point x="1127.0" y="109.0"/>
      <point x="1136.0" y="122.0"/>
      <point x="1136.0" y="135.0" type="curve" smooth="yes"/>
      <point x="1136.0" y="151.0"/>
      <point x="1124.0" y="166.0"/>
      <point x="1103.0" y="176.0" type="curve" smooth="yes"/>
      <point x="351.0" y="553.0" type="line"/>
      <point x="1103.0" y="929.0" type="line" smooth="yes"/>
      <point x="1124.0" y="939.0"/>
      <point x="1136.0" y="954.0"/>
      <point x="1136.0" y="970.0" type="curve" smooth="yes"/>
      <point x="1136.0" y="983.0"/>
      <point x="1127.0" y="996.0"/>
      <point x="1109.0" y="1007.0" type="curve" smooth="yes"/>
      <point x="1089.0" y="1019.0"/>
      <point x="1062.0" y="1025.0"/>
      <point x="1035.0" y="1025.0" type="curve" smooth="yes"/>
      <point x="1011.0" y="1025.0"/>
      <point x="986.0" y="1020.0"/>
      <point x="967.0" y="1010.0" type="curve" smooth="yes"/>
      <point x="133.0" y="593.0" type="line" smooth="yes"/>
      <point x="117.0" y="585.0"/>
      <point x="100.0" y="572.0"/>
      <point x="100.0" y="553.0" type="curve" smooth="yes"/>
      <point x="100.0" y="534.0"/>
      <point x="117.0" y="520.0"/>
      <point x="133.0" y="512.0" type="curve" smooth="yes"/>
      <point x="967.0" y="95.0" type="line" smooth="yes"/>
      <point x="986.0" y="85.0"/>
      <point x="1011.0" y="80.0"/>
    </contour>
  </outline>
</glyph>
<glyph name="equal" format="2">
  <advance height="2048" width="1108.0"/>
  <unicode hex="003D"/>
  <outline>
    <contour>
      <point x="906.0" y="681.0" type="line" smooth="yes"/>
      <point x="939.0" y="681.0"/>
      <point x="1008.0" y="695.0"/>
      <point x="1008.0" y="736.0" type="curve" smooth="yes"/>
      <point x="1008.0" y="777.0"/>
      <point x="939.0" y="791.0"/>
      <point x="906.0" y="791.0" type="curve" smooth="yes"/>
      <point x="202.0" y="791.0" type="line" smooth="yes"/>
      <point x="169.0" y="791.0"/>
      <point x="100.0" y="777.0"/>
      <point x="100.0" y="736.0" type="curve" smooth="yes"/>
      <point x="100.0" y="695.0"/>
      <point x="169.0" y="681.0"/>
      <point x="202.0" y="681.0" type="curve" smooth="yes"/>
    </contour>
    <contour>
      <point x="906.0" y="380.0" type="line" smooth="yes"/>
      <point x="939.0" y="380.0"/>
      <point x="1008.0" y="394.0"/>
      <point x="1008.0" y="435.0" type="curve" smooth="yes"/>
      <point x="1008.0" y="476.0"/>
      <point x="939.0" y="490.0"/>
      <point x="906.0" y="490.0" type="curve" smooth="yes"/>
      <point x="202.0" y="490.0" type="line" smooth="yes"/>
      <point x="169.0" y="490.0"/>
      <point x="100.0" y="476.0"/>
      <point x="100.0" y="435.0" type="curve" smooth="yes"/>
      <point x="100.0" y="394.0"/>
      <point x="169.0" y="380.0"/>
      <point x="202.0" y="380.0" type="curve" smooth="yes"/>
    </contour>
  </outline>
</glyph>
<glyph name="question" format="2">
	<unicode hex="003F"/>
	<advance height="2048" width="1136"/>
	<outline>
		<contour>
			<point x="302" y="982" type="curve" smooth="yes"/>
			<point x="302" y="940"/>
			<point x="234" y="926"/>
			<point x="201" y="926" type="curve" smooth="yes"/>
			<point x="169" y="926"/>
			<point x="100" y="940"/>
			<point x="100" y="981" type="curve" smooth="yes"/>
			<point x="100" y="1071"/>
			<point x="128" y="1163"/>
			<point x="188" y="1233" type="curve" smooth="yes"/>
			<point x="284" y="1346"/>
			<point x="433" y="1381"/>
			<point x="577" y="1381" type="curve" smooth="yes"/>
			<point x="801" y="1381"/>
			<point x="1036" y="1253"/>
			<point x="1036" y="1009" type="curve" smooth="yes"/>
			<point x="1036" y="858"/>
			<point x="951" y="757"/>
			<point x="844" y="660" type="curve" smooth="yes"/>
			<point x="834" y="650" type="line" smooth="yes"/>
			<point x="779" y="600"/>
			<point x="725" y="551"/>
			<point x="695" y="502" type="curve" smooth="yes"/>
			<point x="655" y="436"/>
			<point x="662" y="363"/>
			<point x="664" y="291" type="curve" smooth="yes"/>
			<point x="664" y="250"/>
			<point x="598" y="236"/>
			<point x="566" y="235" type="curve" smooth="yes"/>
			<point x="533" y="235"/>
			<point x="464" y="247"/>
			<point x="461" y="289" type="curve" smooth="yes"/>
			<point x="456" y="376"/>
			<point x="457" y="465"/>
			<point x="505" y="541" type="curve" smooth="yes"/>
			<point x="545" y="604"/>
			<point x="615" y="667"/>
			<point x="671" y="717" type="curve" smooth="yes"/>
			<point x="760" y="799"/>
			<point x="834" y="882"/>
			<point x="834" y="1009" type="curve" smooth="yes"/>
			<point x="834" y="1150"/>
			<point x="724" y="1270"/>
			<point x="577" y="1270" type="curve" smooth="yes"/>
			<point x="497" y="1270"/>
			<point x="423" y="1247"/>
			<point x="371" y="1186" type="curve" smooth="yes"/>
			<point x="323" y="1130"/>
			<point x="302" y="1054"/>
		</contour>
		<contour>
			<point x="561" y="181" type="curve" smooth="yes"/>
			<point x="615" y="181"/>
			<point x="663" y="140"/>
			<point x="663" y="78" type="curve" smooth="yes"/>
			<point x="663" y="17"/>
			<point x="615" y="-24"/>
			<point x="561" y="-24" type="curve" smooth="yes"/>
			<point x="507" y="-24"/>
			<point x="458" y="17"/>
			<point x="458" y="78" type="curve" smooth="yes"/>
			<point x="458" y="140"/>
			<point x="507" y="181"/>
		</contour>
	</outline>
</glyph>
<glyph name="at" format="2">
  <advance height="2048" width="1988.0"/>
  <unicode hex="0040"/>
  <outline>
    <contour>
      <point x="970.0" y="-404.0" type="curve" smooth="yes"/>
      <point x="1072.0" y="-404.0"/>
      <point x="1174.0" y="-388.0"/>
      <point x="1273.0" y="-357.0" type="curve" smooth="yes"/>
      <point x="1298.0" y="-349.0"/>
      <point x="1324.0" y="-331.0"/>
      <point x="1324.0" y="-308.0" type="curve" smooth="yes"/>
      <point x="1324.0" y="-300.0"/>
      <point x="1320.0" y="-290.0"/>
      <point x="1310.0" y="-281.0" type="curve"/>
      <point x="1290.0" y="-261.0"/>
      <point x="1256.0" y="-253.0"/>
      <point x="1223.0" y="-253.0" type="curve" smooth="yes"/>
      <point x="1204.0" y="-253.0"/>
      <point x="1186.0" y="-255.0"/>
      <point x="1172.0" y="-260.0" type="curve" smooth="yes"/>
      <point x="1106.0" y="-281.0"/>
      <point x="1034.0" y="-292.0"/>
      <point x="964.0" y="-292.0" type="curve" smooth="yes"/>
      <point x="834.0" y="-291.0"/>
      <point x="708.0" y="-251.0"/>
      <point x="601.0" y="-178.0" type="curve" smooth="yes"/>
      <point x="388.0" y="-31.0"/>
      <point x="302.0" y="211.0"/>
      <point x="302.0" y="462.0" type="curve" smooth="yes"/>
      <point x="303.0" y="682.0"/>
      <point x="364.0" y="901.0"/>
      <point x="524.0" y="1062.0" type="curve" smooth="yes"/>
      <point x="654.0" y="1193.0"/>
      <point x="834.0" y="1265.0"/>
      <point x="1020.0" y="1265.0" type="curve" smooth="yes"/>
      <point x="1189.0" y="1265.0"/>
      <point x="1348.0" y="1207.0"/>
      <point x="1472.0" y="1090.0" type="curve" smooth="yes"/>
      <point x="1627.0" y="943.0"/>
      <point x="1686.0" y="739.0"/>
      <point x="1686.0" y="532.0" type="curve" smooth="yes"/>
      <point x="1686.0" y="409.0"/>
      <point x="1656.0" y="286.0"/>
      <point x="1584.0" y="185.0" type="curve" smooth="yes"/>
      <point x="1557.0" y="149.0"/>
      <point x="1499.0" y="87.0"/>
      <point x="1448.0" y="87.0" type="curve" smooth="yes"/>
      <point x="1390.0" y="87.0"/>
      <point x="1377.0" y="153.0"/>
      <point x="1377.0" y="214.0" type="curve" smooth="yes"/>
      <point x="1377.0" y="248.0"/>
      <point x="1381.0" y="281.0"/>
      <point x="1384.0" y="299.0" type="curve" smooth="yes"/>
      <point x="1468.0" y="860.0" type="line" smooth="yes"/>
      <point x="1473.0" y="892.0"/>
      <point x="1421.0" y="912.0"/>
      <point x="1369.0" y="912.0" type="curve" smooth="yes"/>
      <point x="1320.0" y="912.0"/>
      <point x="1270.0" y="896.0"/>
      <point x="1266.0" y="859.0" type="curve" smooth="yes"/>
      <point x="1258.0" y="795.0" type="line"/>
      <point x="1180.0" y="880.0"/>
      <point x="1068.0" y="913.0"/>
      <point x="954.0" y="913.0" type="curve" smooth="yes"/>
      <point x="671.0" y="913.0"/>
      <point x="517.0" y="689.0"/>
      <point x="517.0" y="429.0" type="curve" smooth="yes"/>
      <point x="517.0" y="161.0"/>
      <point x="689.0" y="-26.0"/>
      <point x="962.0" y="-26.0" type="curve" smooth="yes"/>
      <point x="1064.0" y="-26.0"/>
      <point x="1156.0" y="4.0"/>
      <point x="1229.0" y="78.0" type="curve"/>
      <point x="1270.0" y="-3.0"/>
      <point x="1357.0" y="-25.0"/>
      <point x="1442.0" y="-25.0" type="curve" smooth="yes"/>
      <point x="1577.0" y="-25.0"/>
      <point x="1691.0" y="35.0"/>
      <point x="1771.0" y="144.0" type="curve" smooth="yes"/>
      <point x="1855.0" y="258.0"/>
      <point x="1888.0" y="392.0"/>
      <point x="1888.0" y="532.0" type="curve" smooth="yes"/>
      <point x="1888.0" y="762.0"/>
      <point x="1820.0" y="984.0"/>
      <point x="1647.0" y="1147.0" type="curve" smooth="yes"/>
      <point x="1479.0" y="1305.0"/>
      <point x="1247.0" y="1377.0"/>
      <point x="1020.0" y="1377.0" type="curve" smooth="yes"/>
      <point x="770.0" y="1377.0"/>
      <point x="522.0" y="1293.0"/>
      <point x="346.0" y="1116.0" type="curve" smooth="yes"/>
      <point x="171.0" y="940.0"/>
      <point x="100.0" y="704.0"/>
      <point x="100.0" y="461.0" type="curve" smooth="yes"/>
      <point x="100.0" y="178.0"/>
      <point x="204.0" y="-83.0"/>
      <point x="444.0" y="-248.0" type="curve" smooth="yes"/>
      <point x="597.0" y="-354.0"/>
      <point x="783.0" y="-404.0"/>
    </contour>
    <contour>
      <point x="958.0" y="87.0" type="curve" smooth="yes"/>
      <point x="787.0" y="87.0"/>
      <point x="720.0" y="292.0"/>
      <point x="720.0" y="433.0" type="curve" smooth="yes"/>
      <point x="720.0" y="568.0"/>
      <point x="794.0" y="801.0"/>
      <point x="958.0" y="801.0" type="curve" smooth="yes"/>
      <point x="1134.0" y="801.0"/>
      <point x="1196.0" y="592.0"/>
      <point x="1196.0" y="449.0" type="curve" smooth="yes"/>
      <point x="1196.0" y="314.0"/>
      <point x="1118.0" y="87.0"/>
    </contour>
  </outline>
</glyph>
<glyph name="A" format="2">
	<unicode hex="0041"/>
	<advance height="2048" width="1413"/>
	<outline>
		<contour>
			<point x="595" y="1340" type="line" smooth="yes"/>
			<point x="608" y="1371"/>
			<point x="672" y="1380"/>
			<point x="703" y="1381" type="curve" smooth="yes"/>
			<point x="737" y="1382"/>
			<point x="798" y="1374"/>
			<point x="813" y="1339" type="curve" smooth="yes"/>
			<point x="1385" y="43" type="line" smooth="yes"/>
			<point x="1387" y="39"/>
			<point x="1388" y="36"/>
			<point x="1388" y="31" type="curve" smooth="yes"/>
			<point x="1388" y="-5"/>
			<point x="1329" y="-20"/>
			<point x="1301" y="-23" type="curve" smooth="yes"/>
			<point x="1293" y="-24"/>
			<point x="1286" y="-24"/>
			<point x="1279" y="-24" type="curve" smooth="yes"/>
			<point x="1246" y="-24"/>
			<point x="1185" y="-14"/>
			<point x="1171" y="19" type="curve" smooth="yes"/>
			<point x="988" y="434" type="line"/>
			<point x="365" y="434" type="line"/>
			<point x="181" y="7" type="line" smooth="yes"/>
			<point x="171" y="-16"/>
			<point x="131" y="-24"/>
			<point x="102" y="-24" type="curve" smooth="yes"/>
			<point x="97" y="-24"/>
			<point x="92" y="-24"/>
			<point x="88" y="-23" type="curve"/>
			<point x="68" y="-21"/>
			<point x="25" y="-10"/>
			<point x="25" y="16" type="curve" smooth="yes"/>
			<point x="25" y="19"/>
			<point x="26" y="22"/>
			<point x="27" y="25" type="curve"/>
		</contour>
		<contour>
			<point x="938" y="546" type="line"/>
			<point x="673" y="1147" type="line"/>
			<point x="414" y="546" type="line"/>
		</contour>
	</outline>
</glyph>
<glyph name="B" format="2">
  <advance height="2048" width="1305.0"/>
  <unicode hex="0042"/>
  <outline>
    <contour>
      <point x="819.0" y="0.0" type="line" smooth="yes"/>
      <point x="1033.0" y="0.0"/>
      <point x="1230.0" y="146.0"/>
      <point x="1230.0" y="367.0" type="curve" smooth="yes"/>
      <point x="1230.0" y="512.0"/>
      <point x="1139.0" y="636.0"/>
      <point x="1007.0" y="695.0" type="curve"/>
      <point x="1105.0" y="763.0"/>
      <point x="1165.0" y="872.0"/>
      <point x="1165.0" y="990.0" type="curve" smooth="yes"/>
      <point x="1165.0" y="1208.0"/>
      <point x="975.0" y="1357.0"/>
      <point x="762.0" y="1357.0" type="curve" smooth="yes"/>
      <point x="202.0" y="1357.0" type="line" smooth="yes"/>
      <point x="169.0" y="1357.0"/>
      <point x="100.0" y="1343.0"/>
      <point x="100.0" y="1301.0" type="curve" smooth="yes"/>
      <point x="100.0" y="56.0" type="line" smooth="yes"/>
      <point x="100.0" y="13.0"/>
      <point x="172.0" y="0.0"/>
      <point x="202.0" y="0.0" type="curve" smooth="yes"/>
    </contour>
    <contour>
      <point x="762.0" y="734.0" type="curve" smooth="yes"/>
      <point x="303.0" y="734.0" type="line"/>
      <point x="303.0" y="1245.0" type="line"/>
      <point x="762.0" y="1245.0" type="line" smooth="yes"/>
      <point x="883.0" y="1245.0"/>
      <point x="962.0" y="1095.0"/>
      <point x="962.0" y="990.0" type="curve" smooth="yes"/>
      <point x="962.0" y="885.0"/>
      <point x="883.0" y="734.0"/>
    </contour>
    <contour>
      <point x="819.0" y="112.0" type="curve" smooth="yes"/>
      <point x="303.0" y="112.0" type="line"/>
      <point x="303.0" y="623.0" type="line"/>
      <point x="819.0" y="623.0" type="line" smooth="yes"/>
      <point x="943.0" y="623.0"/>
      <point x="1027.0" y="477.0"/>
      <point x="1027.0" y="367.0" type="curve" smooth="yes"/>
      <point x="1027.0" y="258.0"/>
      <point x="943.0" y="112.0"/>
    </contour>
  </outline>
</glyph>
<glyph name="C" format="2">
	<unicode hex="0043"/>
	<advance height="2048" width="1482"/>
	<outline>
		<contour>
			<point x="1380" y="948" type="curve"/>
			<point x="1380" y="947"/>
			<point x="1380" y="945"/>
			<point x="1380" y="944" type="curve" smooth="yes"/>
			<point x="1380" y="905"/>
			<point x="1317" y="890"/>
			<point x="1286" y="888" type="curve" smooth="yes"/>
			<point x="1252" y="887"/>
			<point x="1183" y="899"/>
			<point x="1178" y="940" type="curve" smooth="yes"/>
			<point x="1152" y="1135"/>
			<point x="973" y="1272"/>
			<point x="777" y="1269" type="curve" smooth="yes"/>
			<point x="450" y="1265"/>
			<point x="300" y="956"/>
			<point x="302" y="670" type="curve" smooth="yes"/>
			<point x="305" y="389"/>
			<point x="447" y="85"/>
			<point x="773" y="87" type="curve" smooth="yes"/>
			<point x="966" y="89"/>
			<point x="1148" y="228"/>
			<point x="1180" y="418" type="curve" smooth="yes"/>
			<point x="1187" y="459"/>
			<point x="1256" y="470"/>
			<point x="1290" y="468" type="curve" smooth="yes"/>
			<point x="1321" y="467"/>
			<point x="1382" y="452"/>
			<point x="1382" y="413" type="curve" smooth="yes"/>
			<point x="1382" y="411"/>
			<point x="1382" y="409"/>
			<point x="1382" y="407" type="curve"/>
			<point x="1334" y="130"/>
			<point x="1041" y="-22"/>
			<point x="776" y="-24" type="curve" smooth="yes"/>
			<point x="347" y="-27"/>
			<point x="102" y="262"/>
			<point x="100" y="669" type="curve" smooth="yes"/>
			<point x="98" y="1079"/>
			<point x="341" y="1375"/>
			<point x="772" y="1381" type="curve" smooth="yes"/>
			<point x="1042" y="1385"/>
			<point x="1342" y="1236"/>
		</contour>
	</outline>
</glyph>
<glyph name="D" format="2">
  <advance height="2048" width="1355.0"/>
  <unicode hex="0044"/>
  <outline>
    <contour>
      <point x="667.0" y="0.0" type="line" smooth="yes"/>
      <point x="1069.0" y="0.0"/>
      <point x="1305.0" y="296.0"/>
      <point x="1305.0" y="674.0" type="curve" smooth="yes"/>
      <point x="1305.0" y="1051.0"/>
      <point x="1070.0" y="1357.0"/>
      <point x="667.0" y="1357.0" type="curve" smooth="yes"/>
      <point x="201.0" y="1357.0" type="line" smooth="yes"/>
      <point x="169.0" y="1357.0"/>
      <point x="100.0" y="1343.0"/>
      <point x="100.0" y="1301.0" type="curve" smooth="yes"/>
      <point x="100.0" y="56.0" type="line" smooth="yes"/>
      <point x="100.0" y="14.0"/>
      <point x="169.0" y="0.0"/>
      <point x="201.0" y="0.0" type="curve" smooth="yes"/>
    </contour>
    <contour>
      <point x="667.0" y="112.0" type="curve" smooth="yes"/>
      <point x="303.0" y="112.0" type="line"/>
      <point x="303.0" y="1245.0" type="line"/>
      <point x="667.0" y="1245.0" type="line" smooth="yes"/>
      <point x="966.0" y="1245.0"/>
      <point x="1103.0" y="926.0"/>
      <point x="1103.0" y="675.0" type="curve" smooth="yes"/>
      <point x="1103.0" y="421.0"/>
      <point x="967.0" y="112.0"/>
    </contour>
  </outline>
</glyph>
<glyph name="E" format="2">
  <advance height="2048" width="1284.0"/>
  <unicode hex="0045"/>
  <outline>
    <contour>
      <point x="1107.0" y="0.0" type="line" smooth="yes"/>
      <point x="1140.0" y="0.0"/>
      <point x="1209.0" y="14.0"/>
      <point x="1209.0" y="56.0" type="curve" smooth="yes"/>
      <point x="1209.0" y="98.0"/>
      <point x="1140.0" y="112.0"/>
      <point x="1107.0" y="112.0" type="curve" smooth="yes"/>
      <point x="303.0" y="112.0" type="line"/>
      <point x="303.0" y="623.0" type="line"/>
      <point x="980.0" y="623.0" type="line" smooth="yes"/>
      <point x="1012.0" y="623.0"/>
      <point x="1081.0" y="637.0"/>
      <point x="1081.0" y="679.0" type="curve" smooth="yes"/>
      <point x="1081.0" y="721.0"/>
      <point x="1012.0" y="735.0"/>
      <point x="980.0" y="735.0" type="curve" smooth="yes"/>
      <point x="303.0" y="735.0" type="line"/>
      <point x="303.0" y="1245.0" type="line"/>
      <point x="1107.0" y="1245.0" type="line" smooth="yes"/>
      <point x="1140.0" y="1245.0"/>
      <point x="1209.0" y="1259.0"/>
      <point x="1209.0" y="1301.0" type="curve" smooth="yes"/>
      <point x="1209.0" y="1343.0"/>
      <point x="1140.0" y="1357.0"/>
      <point x="1107.0" y="1357.0" type="curve" smooth="yes"/>
      <point x="209.0" y="1357.0" type="line" smooth="yes"/>
      <point x="177.0" y="1357.0"/>
      <point x="100.0" y="1339.0"/>
      <point x="100.0" y="1297.0" type="curve" smooth="yes"/>
      <point x="100.0" y="60.0" type="line" smooth="yes"/>
      <point x="100.0" y="18.0"/>
      <point x="176.0" y="0.0"/>
      <point x="209.0" y="0.0" type="curve" smooth="yes"/>
    </contour>
  </outline>
</glyph>
<glyph name="F" format="2">
  <advance height="2048" width="1193.0"/>
  <unicode hex="0046"/>
  <outline>
    <contour>
      <point x="201.0" y="-24.0" type="curve" smooth="yes"/>
      <point x="234.0" y="-24.0"/>
      <point x="303.0" y="-10.0"/>
      <point x="303.0" y="32.0" type="curve" smooth="yes"/>
      <point x="303.0" y="616.0" type="line"/>
      <point x="923.0" y="616.0" type="line" smooth="yes"/>
      <point x="955.0" y="616.0"/>
      <point x="1025.0" y="630.0"/>
      <point x="1025.0" y="672.0" type="curve" smooth="yes"/>
      <point x="1025.0" y="714.0"/>
      <point x="955.0" y="728.0"/>
      <point x="923.0" y="728.0" type="curve" smooth="yes"/>
      <point x="303.0" y="728.0" type="line"/>
      <point x="303.0" y="1245.0" type="line"/>
      <point x="1042.0" y="1245.0" type="line" smooth="yes"/>
      <point x="1074.0" y="1245.0"/>
      <point x="1143.0" y="1259.0"/>
      <point x="1143.0" y="1301.0" type="curve" smooth="yes"/>
      <point x="1143.0" y="1343.0"/>
      <point x="1074.0" y="1357.0"/>
      <point x="1042.0" y="1357.0" type="curve" smooth="yes"/>
      <point x="201.0" y="1357.0" type="line" smooth="yes"/>
      <point x="169.0" y="1357.0"/>
      <point x="100.0" y="1343.0"/>
      <point x="100.0" y="1301.0" type="curve" smooth="yes"/>
      <point x="100.0" y="32.0" type="line" smooth="yes"/>
      <point x="100.0" y="-10.0"/>
      <point x="169.0" y="-24.0"/>
    </contour>
  </outline>
</glyph>
<glyph name="G" format="2">
	<unicode hex="0047"/>
	<advance height="2048" width="1566"/>
	<outline>
		<contour>
			<point x="1464" y="948" type="curve"/>
			<point x="1464" y="947"/>
			<point x="1464" y="945"/>
			<point x="1464" y="944" type="curve" smooth="yes"/>
			<point x="1464" y="903"/>
			<point x="1398" y="888"/>
			<point x="1363" y="888" type="curve" smooth="yes"/>
			<point x="1331" y="888"/>
			<point x="1267" y="901"/>
			<point x="1261" y="940" type="curve" smooth="yes"/>
			<point x="1232" y="1148"/>
			<point x="1022" y="1272"/>
			<point x="821" y="1269" type="curve" smooth="yes"/>
			<point x="483" y="1265"/>
			<point x="300" y="981"/>
			<point x="302" y="671" type="curve" smooth="yes"/>
			<point x="305" y="363"/>
			<point x="477" y="85"/>
			<point x="818" y="88" type="curve" smooth="yes"/>
			<point x="918" y="88"/>
			<point x="1021" y="121"/>
			<point x="1103" y="178" type="curve" smooth="yes"/>
			<point x="1182" y="234"/>
			<point x="1264" y="313"/>
			<point x="1264" y="415" type="curve" smooth="yes"/>
			<point x="1264" y="583" type="line"/>
			<point x="818" y="583" type="line" smooth="yes"/>
			<point x="785" y="583"/>
			<point x="716" y="597"/>
			<point x="716" y="639" type="curve" smooth="yes"/>
			<point x="716" y="681"/>
			<point x="785" y="695"/>
			<point x="818" y="695" type="curve" smooth="yes"/>
			<point x="1365" y="695" type="line" smooth="yes"/>
			<point x="1397" y="695"/>
			<point x="1466" y="681"/>
			<point x="1466" y="639" type="curve" smooth="yes"/>
			<point x="1466" y="415" type="line" smooth="yes"/>
			<point x="1466" y="307"/>
			<point x="1347" y="169"/>
			<point x="1262" y="109" type="curve" smooth="yes"/>
			<point x="1135" y="21"/>
			<point x="974" y="-23"/>
			<point x="820" y="-24" type="curve" smooth="yes"/>
			<point x="386" y="-27"/>
			<point x="104" y="243"/>
			<point x="100" y="671" type="curve" smooth="yes"/>
			<point x="96" y="1099"/>
			<point x="385" y="1375"/>
			<point x="817" y="1381" type="curve" smooth="yes"/>
			<point x="1090" y="1384"/>
			<point x="1422" y="1245"/>
		</contour>
	</outline>
</glyph>
<glyph name="H" format="2">
  <advance height="2048" width="1386.0"/>
  <unicode hex="0048"/>
  <outline>
    <contour>
      <point x="1184.0" y="-24.0" type="curve" smooth="yes"/>
      <point x="1217.0" y="-24.0"/>
      <point x="1286.0" y="-10.0"/>
      <point x="1286.0" y="32.0" type="curve" smooth="yes"/>
      <point x="1286.0" y="1325.0" type="line" smooth="yes"/>
      <point x="1286.0" y="1367.0"/>
      <point x="1217.0" y="1381.0"/>
      <point x="1184.0" y="1381.0" type="curve" smooth="yes"/>
      <point x="1152.0" y="1381.0"/>
      <point x="1083.0" y="1367.0"/>
      <point x="1083.0" y="1325.0" type="curve" smooth="yes"/>
      <point x="1083.0" y="734.0" type="line"/>
      <point x="303.0" y="734.0" type="line"/>
      <point x="303.0" y="1325.0" type="line" smooth="yes"/>
      <point x="303.0" y="1367.0"/>
      <point x="234.0" y="1381.0"/>
      <point x="202.0" y="1381.0" type="curve" smooth="yes"/>
      <point x="169.0" y="1381.0"/>
      <point x="100.0" y="1367.0"/>
      <point x="100.0" y="1325.0" type="curve" smooth="yes"/>
      <point x="100.0" y="32.0" type="line" smooth="yes"/>
      <point x="100.0" y="-10.0"/>
      <point x="169.0" y="-24.0"/>
      <point x="202.0" y="-24.0" type="curve" smooth="yes"/>
      <point x="234.0" y="-24.0"/>
      <point x="303.0" y="-10.0"/>
      <point x="303.0" y="32.0" type="curve" smooth="yes"/>
      <point x="303.0" y="623.0" type="line"/>
      <point x="1083.0" y="623.0" type="line"/>
      <point x="1083.0" y="32.0" type="line" smooth="yes"/>
      <point x="1083.0" y="-10.0"/>
      <point x="1152.0" y="-24.0"/>
    </contour>
  </outline>
</glyph>
<glyph name="I" format="2">
	<unicode hex="0049"/>
	<advance height="2048" width="403"/>
	<outline>
		<contour>
			<point x="303" y="32" type="line" smooth="yes"/>
			<point x="303" y="-10"/>
			<point x="234" y="-24"/>
			<point x="202" y="-24" type="curve" smooth="yes"/>
			<point x="169" y="-24"/>
			<point x="100" y="-10"/>
			<point x="100" y="32" type="curve" smooth="yes"/>
			<point x="100" y="1325" type="line" smooth="yes"/>
			<point x="100" y="1367"/>
			<point x="169" y="1381"/>
			<point x="202" y="1381" type="curve" smooth="yes"/>
			<point x="234" y="1381"/>
			<point x="303" y="1367"/>
			<point x="303" y="1325" type="curve" smooth="yes"/>
		</contour>
	</outline>
</glyph>
<glyph name="J" format="2">
	<unicode hex="004A"/>
	<advance height="2048" width="900"/>
	<outline>
		<contour>
			<point x="151" y="393" type="curve" smooth="yes"/>
			<point x="184" y="393"/>
			<point x="253" y="379"/>
			<point x="253" y="337" type="curve" smooth="yes"/>
			<point x="253" y="212"/>
			<point x="330" y="87"/>
			<point x="469" y="87" type="curve" smooth="yes"/>
			<point x="608" y="88"/>
			<point x="687" y="215"/>
			<point x="687" y="342" type="curve" smooth="yes"/>
			<point x="687" y="1325" type="line" smooth="yes"/>
			<point x="687" y="1367"/>
			<point x="756" y="1381"/>
			<point x="789" y="1381" type="curve" smooth="yes"/>
			<point x="821" y="1381"/>
			<point x="890" y="1367"/>
			<point x="890" y="1325" type="curve" smooth="yes"/>
			<point x="890" y="342" type="line" smooth="yes"/>
			<point x="890" y="107"/>
			<point x="692" y="-24"/>
			<point x="469" y="-24" type="curve" smooth="yes"/>
			<point x="248" y="-24"/>
			<point x="50" y="103"/>
			<point x="50" y="337" type="curve" smooth="yes"/>
			<point x="50" y="379"/>
			<point x="119" y="393"/>
		</contour>
	</outline>
</glyph>
<glyph name="K" format="2">
	<unicode hex="004B"/>
	<advance height="2048" width="1267"/>
	<outline>
		<contour>
			<point x="100" y="1330" type="line" smooth="yes"/>
			<point x="100" y="1369"/>
			<point x="172" y="1381"/>
			<point x="201" y="1381" type="curve" smooth="yes"/>
			<point x="231" y="1381"/>
			<point x="303" y="1369"/>
			<point x="303" y="1330" type="curve" smooth="yes"/>
			<point x="303" y="653" type="line"/>
			<point x="1072" y="1358" type="line" smooth="yes"/>
			<point x="1099" y="1383"/>
			<point x="1156" y="1385"/>
			<point x="1192" y="1376" type="curve" smooth="yes"/>
			<point x="1220" y="1368"/>
			<point x="1261" y="1343"/>
			<point x="1229" y="1314" type="curve" smooth="yes"/>
			<point x="674" y="805" type="line"/>
			<point x="1235" y="57" type="line" smooth="yes"/>
			<point x="1267" y="14"/>
			<point x="1196" y="-14"/>
			<point x="1163" y="-20" type="curve" smooth="yes"/>
			<point x="1117" y="-29"/>
			<point x="1039" y="-23"/>
			<point x="1010" y="15" type="curve" smooth="yes"/>
			<point x="522" y="666" type="line"/>
			<point x="303" y="465" type="line"/>
			<point x="303" y="27" type="line" smooth="yes"/>
			<point x="303" y="-12"/>
			<point x="231" y="-24"/>
			<point x="201" y="-24" type="curve" smooth="yes"/>
			<point x="172" y="-24"/>
			<point x="100" y="-12"/>
			<point x="100" y="27" type="curve" smooth="yes"/>
		</contour>
	</outline>
</glyph>
<glyph name="L" format="2">
  <advance height="2048" width="1099.0"/>
  <unicode hex="004C"/>
  <outline>
    <contour>
      <point x="972.0" y="0.0" type="line" smooth="yes"/>
      <point x="1005.0" y="0.0"/>
      <point x="1074.0" y="14.0"/>
      <point x="1074.0" y="56.0" type="curve" smooth="yes"/>
      <point x="1074.0" y="98.0"/>
      <point x="1005.0" y="112.0"/>
      <point x="972.0" y="112.0" type="curve" smooth="yes"/>
      <point x="303.0" y="112.0" type="line"/>
      <point x="303.0" y="1325.0" type="line" smooth="yes"/>
      <point x="303.0" y="1367.0"/>
      <point x="234.0" y="1381.0"/>
      <point x="202.0" y="1381.0" type="curve" smooth="yes"/>
      <point x="169.0" y="1381.0"/>
      <point x="100.0" y="1367.0"/>
      <point x="100.0" y="1325.0" type="curve" smooth="yes"/>
      <point x="100.0" y="56.0" type="line" smooth="yes"/>
      <point x="100.0" y="14.0"/>
      <point x="169.0" y="0.0"/>
      <point x="202.0" y="0.0" type="curve" smooth="yes"/>
    </contour>
  </outline>
</glyph>
<glyph name="M" format="2">
  <advance height="2048" width="1589.0"/>
  <unicode hex="004D"/>
  <outline>
    <contour>
      <point x="1388.0" y="-24.0" type="curve" smooth="yes"/>
      <point x="1419.0" y="-24.0"/>
      <point x="1489.0" y="-10.0"/>
      <point x="1489.0" y="31.0" type="curve" smooth="yes"/>
      <point x="1489.0" y="1325.0" type="line" smooth="yes"/>
      <point x="1489.0" y="1369.0"/>
      <point x="1421.0" y="1381.0"/>
      <point x="1387.0" y="1381.0" type="curve" smooth="yes"/>
      <point x="1357.0" y="1381.0"/>
      <point x="1295.0" y="1370.0"/>
      <point x="1282.0" y="1339.0" type="curve" smooth="yes"/>
      <point x="824.0" y="219.0" type="line"/>
      <point x="323.0" y="1339.0" type="line" smooth="yes"/>
      <point x="308.0" y="1374.0"/>
      <point x="252.0" y="1381.0"/>
      <point x="217.0" y="1381.0" type="curve" smooth="yes"/>
      <point x="185.0" y="1381.0"/>
      <point x="100.0" y="1367.0"/>
      <point x="100.0" y="1325.0" type="curve" smooth="yes"/>
      <point x="100.0" y="15.0" type="line" smooth="yes"/>
      <point x="100.0" y="-17.0"/>
      <point x="156.0" y="-24.0"/>
      <point x="179.0" y="-24.0" type="curve" smooth="yes"/>
      <point x="202.0" y="-24.0"/>
      <point x="258.0" y="-17.0"/>
      <point x="258.0" y="15.0" type="curve" smooth="yes"/>
      <point x="258.0" y="976.0" type="line"/>
      <point x="688.0" y="18.0" type="line" smooth="yes"/>
      <point x="703.0" y="-15.0"/>
      <point x="766.0" y="-24.0"/>
      <point x="798.0" y="-24.0" type="curve" smooth="yes"/>
      <point x="830.0" y="-24.0"/>
      <point x="892.0" y="-16.0"/>
      <point x="906.0" y="19.0" type="curve" smooth="yes"/>
      <point x="1286.0" y="952.0" type="line"/>
      <point x="1286.0" y="31.0" type="line" smooth="yes"/>
      <point x="1286.0" y="-10.0"/>
      <point x="1356.0" y="-24.0"/>
    </contour>
  </outline>
</glyph>
<glyph name="N" format="2">
  <advance height="2048" width="1398.0"/>
  <unicode hex="004E"/>
  <outline>
    <contour>
      <point x="1178.0" y="-24.0" type="curve" smooth="yes"/>
      <point x="1216.0" y="-24.0"/>
      <point x="1298.0" y="-9.0"/>
      <point x="1298.0" y="40.0" type="curve" smooth="yes"/>
      <point x="1298.0" y="1338.0" type="line" smooth="yes"/>
      <point x="1298.0" y="1370.0"/>
      <point x="1244.0" y="1381.0"/>
      <point x="1219.0" y="1381.0" type="curve" smooth="yes"/>
      <point x="1194.0" y="1381.0"/>
      <point x="1140.0" y="1370.0"/>
      <point x="1140.0" y="1338.0" type="curve" smooth="yes"/>
      <point x="1140.0" y="255.0" type="line"/>
      <point x="330.0" y="1343.0" type="line" smooth="yes"/>
      <point x="308.0" y="1372.0"/>
      <point x="255.0" y="1381.0"/>
      <point x="220.0" y="1381.0" type="curve" smooth="yes"/>
      <point x="180.0" y="1381.0"/>
      <point x="100.0" y="1367.0"/>
      <point x="100.0" y="1315.0" type="curve" smooth="yes"/>
      <point x="100.0" y="18.0" type="line" smooth="yes"/>
      <point x="100.0" y="-14.0"/>
      <point x="155.0" y="-24.0"/>
      <point x="179.0" y="-24.0" type="curve" smooth="yes"/>
      <point x="203.0" y="-24.0"/>
      <point x="258.0" y="-14.0"/>
      <point x="258.0" y="18.0" type="curve" smooth="yes"/>
      <point x="258.0" y="1102.0" type="line"/>
      <point x="1067.0" y="14.0" type="line" smooth="yes"/>
      <point x="1089.0" y="-15.0"/>
      <point x="1143.0" y="-24.0"/>
    </contour>
  </outline>
</glyph>
<glyph name="O" format="2">
	<unicode hex="004F"/>
	<advance height="2048" width="1586"/>
	<outline>
		<contour>
			<point x="793" y="1381" type="curve" smooth="yes"/>
			<point x="1212" y="1381"/>
			<point x="1486" y="1084"/>
			<point x="1486" y="679" type="curve" smooth="yes"/>
			<point x="1486" y="273"/>
			<point x="1212" y="-24"/>
			<point x="793" y="-24" type="curve" smooth="yes"/>
			<point x="374" y="-24"/>
			<point x="100" y="273"/>
			<point x="100" y="679" type="curve" smooth="yes"/>
			<point x="100" y="1084"/>
			<point x="374" y="1381"/>
		</contour>
		<contour>
			<point x="793" y="1269" type="curve" smooth="yes"/>
			<point x="469" y="1269"/>
			<point x="303" y="965"/>
			<point x="303" y="679" type="curve" smooth="yes"/>
			<point x="303" y="392"/>
			<point x="469" y="88"/>
			<point x="793" y="88" type="curve" smooth="yes"/>
			<point x="1117" y="88"/>
			<point x="1283" y="392"/>
			<point x="1283" y="679" type="curve" smooth="yes"/>
			<point x="1283" y="965"/>
			<point x="1117" y="1269"/>
		</contour>
	</outline>
</glyph>
<glyph name="P" format="2">
  <advance height="2048" width="1312.0"/>
  <unicode hex="0050"/>
  <outline>
    <contour>
      <point x="202.0" y="-24.0" type="curve" smooth="yes"/>
      <point x="234.0" y="-24.0"/>
      <point x="303.0" y="-10.0"/>
      <point x="303.0" y="32.0" type="curve" smooth="yes"/>
      <point x="303.0" y="614.0" type="line"/>
      <point x="831.0" y="614.0" type="line" smooth="yes"/>
      <point x="1047.0" y="614.0"/>
      <point x="1262.0" y="758.0"/>
      <point x="1262.0" y="986.0" type="curve" smooth="yes"/>
      <point x="1262.0" y="1214.0"/>
      <point x="1047.0" y="1357.0"/>
      <point x="831.0" y="1357.0" type="curve" smooth="yes"/>
      <point x="202.0" y="1357.0" type="line" smooth="yes"/>
      <point x="169.0" y="1357.0"/>
      <point x="100.0" y="1343.0"/>
      <point x="100.0" y="1301.0" type="curve" smooth="yes"/>
      <point x="100.0" y="32.0" type="line" smooth="yes"/>
      <point x="100.0" y="-10.0"/>
      <point x="169.0" y="-24.0"/>
    </contour>
    <contour>
      <point x="831.0" y="726.0" type="curve" smooth="yes"/>
      <point x="303.0" y="726.0" type="line"/>
      <point x="303.0" y="1245.0" type="line"/>
      <point x="831.0" y="1245.0" type="line" smooth="yes"/>
      <point x="963.0" y="1245.0"/>
      <point x="1059.0" y="1107.0"/>
      <point x="1059.0" y="986.0" type="curve" smooth="yes"/>
      <point x="1059.0" y="865.0"/>
      <point x="963.0" y="726.0"/>
    </contour>
  </outline>
</glyph>
<glyph name="Q" format="2">
	<unicode hex="0051"/>
	<advance height="2048" width="1619"/>
	<outline>
		<contour>
			<point x="793" y="1381" type="curve" smooth="yes"/>
			<point x="1212" y="1381"/>
			<point x="1486" y="1084"/>
			<point x="1486" y="679" type="curve" smooth="yes"/>
			<point x="1486" y="507"/>
			<point x="1432" y="332"/>
			<point x="1319" y="200" type="curve"/>
			<point x="1360" y="144"/>
			<point x="1408" y="103"/>
			<point x="1474" y="78" type="curve" smooth="yes"/>
			<point x="1494" y="71"/>
			<point x="1519" y="55"/>
			<point x="1519" y="32" type="curve" smooth="yes"/>
			<point x="1519" y="19"/>
			<point x="1511" y="8"/>
			<point x="1502" y="1" type="curve" smooth="yes"/>
			<point x="1480" y="-17"/>
			<point x="1446" y="-24"/>
			<point x="1418" y="-24" type="curve" smooth="yes"/>
			<point x="1398" y="-24"/>
			<point x="1378" y="-21"/>
			<point x="1361" y="-14" type="curve" smooth="yes"/>
			<point x="1298" y="9"/>
			<point x="1241" y="42"/>
			<point x="1193" y="88" type="curve"/>
			<point x="1074" y="9"/>
			<point x="935" y="-24"/>
			<point x="793" y="-24" type="curve" smooth="yes"/>
			<point x="374" y="-24"/>
			<point x="100" y="273"/>
			<point x="100" y="679" type="curve" smooth="yes"/>
			<point x="100" y="1084"/>
			<point x="374" y="1381"/>
		</contour>
		<contour>
			<point x="774" y="481" type="curve" smooth="yes"/>
			<point x="745" y="485"/>
			<point x="692" y="501"/>
			<point x="692" y="536" type="curve" smooth="yes"/>
			<point x="691" y="583"/>
			<point x="775" y="595"/>
			<point x="812" y="591" type="curve" smooth="yes"/>
			<point x="993" y="572"/>
			<point x="1112" y="513"/>
			<point x="1212" y="364" type="curve"/>
			<point x="1260" y="461"/>
			<point x="1283" y="570"/>
			<point x="1283" y="679" type="curve" smooth="yes"/>
			<point x="1283" y="965"/>
			<point x="1117" y="1269"/>
			<point x="793" y="1269" type="curve" smooth="yes"/>
			<point x="469" y="1269"/>
			<point x="303" y="965"/>
			<point x="303" y="679" type="curve" smooth="yes"/>
			<point x="303" y="392"/>
			<point x="469" y="88"/>
			<point x="793" y="88" type="curve" smooth="yes"/>
			<point x="909" y="88"/>
			<point x="1013" y="127"/>
			<point x="1098" y="206" type="curve"/>
			<point x="1008" y="344"/>
			<point x="960" y="461"/>
		</contour>
	</outline>
</glyph>
<glyph name="R" format="2">
  <advance height="2048" width="1383.0"/>
  <unicode hex="0052"/>
  <outline>
    <contour>
      <point x="1232.0" y="-24.0" type="curve" smooth="yes"/>
      <point x="1259.0" y="-24.0"/>
      <point x="1287.0" y="-18.0"/>
      <point x="1307.0" y="-5.0" type="curve" smooth="yes"/>
      <point x="1325.0" y="6.0"/>
      <point x="1333.0" y="19.0"/>
      <point x="1333.0" y="32.0" type="curve" smooth="yes"/>
      <point x="1333.0" y="48.0"/>
      <point x="1321.0" y="63.0"/>
      <point x="1300.0" y="74.0" type="curve" smooth="yes"/>
      <point x="1190.0" y="129.0"/>
      <point x="1132.0" y="263.0"/>
      <point x="1085.0" y="368.0" type="curve" smooth="yes"/>
      <point x="1044.0" y="458.0"/>
      <point x="1000.0" y="556.0"/>
      <point x="925.0" y="625.0" type="curve"/>
      <point x="1104.0" y="660.0"/>
      <point x="1261.0" y="796.0"/>
      <point x="1261.0" y="986.0" type="curve" smooth="yes"/>
      <point x="1261.0" y="1217.0"/>
      <point x="1037.0" y="1357.0"/>
      <point x="820.0" y="1357.0" type="curve" smooth="yes"/>
      <point x="201.0" y="1357.0" type="line" smooth="yes"/>
      <point x="169.0" y="1357.0"/>
      <point x="100.0" y="1343.0"/>
      <point x="100.0" y="1301.0" type="curve" smooth="yes"/>
      <point x="100.0" y="32.0" type="line" smooth="yes"/>
      <point x="100.0" y="-10.0"/>
      <point x="169.0" y="-24.0"/>
      <point x="201.0" y="-24.0" type="curve" smooth="yes"/>
      <point x="234.0" y="-24.0"/>
      <point x="303.0" y="-10.0"/>
      <point x="303.0" y="32.0" type="curve" smooth="yes"/>
      <point x="303.0" y="614.0" type="line"/>
      <point x="642.0" y="614.0" type="line" smooth="yes"/>
      <point x="777.0" y="614.0"/>
      <point x="843.0" y="442.0"/>
      <point x="888.0" y="341.0" type="curve" smooth="yes"/>
      <point x="949.0" y="206.0"/>
      <point x="1012.0" y="67.0"/>
      <point x="1164.0" y="-9.0" type="curve" smooth="yes"/>
      <point x="1183.0" y="-19.0"/>
      <point x="1208.0" y="-24.0"/>
    </contour>
    <contour>
      <point x="820.0" y="726.0" type="curve" smooth="yes"/>
      <point x="303.0" y="726.0" type="line"/>
      <point x="303.0" y="1245.0" type="line"/>
      <point x="820.0" y="1245.0" type="line" smooth="yes"/>
      <point x="955.0" y="1245.0"/>
      <point x="1058.0" y="1112.0"/>
      <point x="1058.0" y="986.0" type="curve" smooth="yes"/>
      <point x="1058.0" y="860.0"/>
      <point x="955.0" y="726.0"/>
    </contour>
  </outline>
</glyph>
<glyph name="S" format="2">
	<unicode hex="0053"/>
	<advance height="2048" width="1379"/>
	<outline>
		<contour>
			<point x="1239" y="1037" type="curve"/>
			<point x="1240" y="1034"/>
			<point x="1240" y="1032"/>
			<point x="1240" y="1029" type="curve" smooth="yes"/>
			<point x="1240" y="992"/>
			<point x="1182" y="976"/>
			<point x="1152" y="974" type="curve" smooth="yes"/>
			<point x="1118" y="971"/>
			<point x="1049" y="981"/>
			<point x="1039" y="1022" type="curve" smooth="yes"/>
			<point x="998" y="1186"/>
			<point x="856" y="1272"/>
			<point x="690" y="1269" type="curve" smooth="yes"/>
			<point x="537" y="1267"/>
			<point x="339" y="1180"/>
			<point x="337" y="1006" type="curve" smooth="yes"/>
			<point x="336" y="925"/>
			<point x="408" y="876"/>
			<point x="477" y="846" type="curve" smooth="yes"/>
			<point x="556" y="813"/>
			<point x="651" y="794"/>
			<point x="736" y="786" type="curve" smooth="yes"/>
			<point x="866" y="772"/>
			<point x="1018" y="750"/>
			<point x="1129" y="679" type="curve" smooth="yes"/>
			<point x="1235" y="612"/>
			<point x="1280" y="514"/>
			<point x="1279" y="391" type="curve" smooth="yes"/>
			<point x="1276" y="130"/>
			<point x="980" y="-9"/>
			<point x="749" y="-22" type="curve" smooth="yes"/>
			<point x="463" y="-39"/>
			<point x="180" y="72"/>
			<point x="101" y="365" type="curve"/>
			<point x="100" y="368"/>
			<point x="100" y="371"/>
			<point x="100" y="374" type="curve" smooth="yes"/>
			<point x="100" y="411"/>
			<point x="157" y="426"/>
			<point x="187" y="429" type="curve" smooth="yes"/>
			<point x="222" y="431"/>
			<point x="291" y="422"/>
			<point x="302" y="381" type="curve" smooth="yes"/>
			<point x="356" y="179"/>
			<point x="519" y="77"/>
			<point x="728" y="89" type="curve" smooth="yes"/>
			<point x="888" y="98"/>
			<point x="1078" y="214"/>
			<point x="1077" y="388" type="curve" smooth="yes"/>
			<point x="1076" y="466"/>
			<point x="1018" y="515"/>
			<point x="951" y="546" type="curve" smooth="yes"/>
			<point x="879" y="580"/>
			<point x="791" y="597"/>
			<point x="712" y="605" type="curve" smooth="yes"/>
			<point x="585" y="618"/>
			<point x="445" y="640"/>
			<point x="331" y="699" type="curve" smooth="yes"/>
			<point x="209" y="762"/>
			<point x="137" y="858"/>
			<point x="134" y="997" type="curve" smooth="yes"/>
			<point x="129" y="1261"/>
			<point x="461" y="1377"/>
			<point x="684" y="1381" type="curve" smooth="yes"/>
			<point x="922" y="1385"/>
			<point x="1178" y="1285"/>
		</contour>
	</outline>
</glyph>
<glyph name="T" format="2">
  <advance height="2048" width="1265.0"/>
  <unicode hex="0054"/>
  <outline>
    <contour>
      <point x="633.0" y="-12.0" type="curve" smooth="yes"/>
      <point x="665.0" y="-12.0"/>
      <point x="734.0" y="2.0"/>
      <point x="734.0" y="44.0" type="curve" smooth="yes"/>
      <point x="734.0" y="1257.0" type="line"/>
      <point x="1139.0" y="1257.0" type="line" smooth="yes"/>
      <point x="1171.0" y="1257.0"/>
      <point x="1240.0" y="1271.0"/>
      <point x="1240.0" y="1313.0" type="curve" smooth="yes"/>
      <point x="1240.0" y="1355.0"/>
      <point x="1171.0" y="1369.0"/>
      <point x="1139.0" y="1369.0" type="curve" smooth="yes"/>
      <point x="126.0" y="1369.0" type="line" smooth="yes"/>
      <point x="94.0" y="1369.0"/>
      <point x="25.0" y="1355.0"/>
      <point x="25.0" y="1313.0" type="curve" smooth="yes"/>
      <point x="25.0" y="1271.0"/>
      <point x="94.0" y="1257.0"/>
      <point x="126.0" y="1257.0" type="curve" smooth="yes"/>
      <point x="531.0" y="1257.0" type="line"/>
      <point x="531.0" y="44.0" type="line" smooth="yes"/>
      <point x="531.0" y="2.0"/>
      <point x="600.0" y="-12.0"/>
    </contour>
  </outline>
</glyph>
<glyph name="U" format="2">
  <advance height="2048" width="1349.0"/>
  <unicode hex="0055"/>
  <outline>
    <contour>
      <point x="673.0" y="-24.0" type="curve" smooth="yes"/>
      <point x="936.0" y="-24.0"/>
      <point x="1249.0" y="141.0"/>
      <point x="1249.0" y="432.0" type="curve" smooth="yes"/>
      <point x="1249.0" y="1325.0" type="line" smooth="yes"/>
      <point x="1249.0" y="1367.0"/>
      <point x="1180.0" y="1381.0"/>
      <point x="1148.0" y="1381.0" type="curve" smooth="yes"/>
      <point x="1115.0" y="1381.0"/>
      <point x="1046.0" y="1367.0"/>
      <point x="1046.0" y="1325.0" type="curve" smooth="yes"/>
      <point x="1046.0" y="432.0" type="line" smooth="yes"/>
      <point x="1046.0" y="240.0"/>
      <point x="864.0" y="88.0"/>
      <point x="675.0" y="88.0" type="curve" smooth="yes"/>
      <point x="487.0" y="88.0"/>
      <point x="303.0" y="236.0"/>
      <point x="303.0" y="432.0" type="curve" smooth="yes"/>
      <point x="303.0" y="1325.0" type="line" smooth="yes"/>
      <point x="303.0" y="1367.0"/>
      <point x="234.0" y="1381.0"/>
      <point x="201.0" y="1381.0" type="curve" smooth="yes"/>
      <point x="169.0" y="1381.0"/>
      <point x="100.0" y="1367.0"/>
      <point x="100.0" y="1325.0" type="curve" smooth="yes"/>
      <point x="100.0" y="432.0" type="line" smooth="yes"/>
      <point x="100.0" y="143.0"/>
      <point x="410.0" y="-24.0"/>
    </contour>
  </outline>
</glyph>
<glyph name="V" format="2">
	<unicode hex="0056"/>
	<advance height="2048" width="1378"/>
	<outline>
		<contour>
			<point x="684" y="-23" type="curve" smooth="yes"/>
			<point x="718" y="-23"/>
			<point x="775" y="-15"/>
			<point x="790" y="21" type="curve" smooth="yes"/>
			<point x="1351" y="1334" type="line"/>
			<point x="1352" y="1337"/>
			<point x="1353" y="1340"/>
			<point x="1353" y="1343" type="curve" smooth="yes"/>
			<point x="1353" y="1367"/>
			<point x="1312" y="1381"/>
			<point x="1272" y="1381" type="curve" smooth="yes"/>
			<point x="1238" y="1381"/>
			<point x="1205" y="1371"/>
			<point x="1196" y="1350" type="curve" smooth="yes"/>
			<point x="713" y="219" type="line"/>
			<point x="235" y="1340" type="line" smooth="yes"/>
			<point x="223" y="1368"/>
			<point x="178" y="1381"/>
			<point x="134" y="1381" type="curve" smooth="yes"/>
			<point x="80" y="1381"/>
			<point x="25" y="1362"/>
			<point x="25" y="1330" type="curve" smooth="yes"/>
			<point x="25" y="1326"/>
			<point x="26" y="1322"/>
			<point x="28" y="1318" type="curve"/>
			<point x="582" y="19" type="line" smooth="yes"/>
			<point x="596" y="-15"/>
			<point x="653" y="-23"/>
		</contour>
	</outline>
</glyph>
<glyph name="W" format="2">
	<unicode hex="0057"/>
	<advance height="2048" width="1918"/>
	<outline>
		<contour>
			<point x="1439" y="22" type="curve" smooth="yes"/>
			<point x="1892" y="1334" type="line" smooth="yes"/>
			<point x="1893" y="1337"/>
			<point x="1893" y="1339"/>
			<point x="1893" y="1342" type="curve" smooth="yes"/>
			<point x="1893" y="1366"/>
			<point x="1852" y="1381"/>
			<point x="1812" y="1381" type="curve" smooth="yes"/>
			<point x="1778" y="1381"/>
			<point x="1745" y="1370"/>
			<point x="1737" y="1348" type="curve" smooth="yes"/>
			<point x="1369" y="283" type="line"/>
			<point x="1093" y="1333" type="line" smooth="yes"/>
			<point x="1083" y="1371"/>
			<point x="1021" y="1381"/>
			<point x="988" y="1381" type="curve" smooth="yes"/>
			<point x="959" y="1381"/>
			<point x="889" y="1369"/>
			<point x="880" y="1336" type="curve" smooth="yes"/>
			<point x="607" y="283" type="line"/>
			<point x="237" y="1334" type="line" smooth="yes"/>
			<point x="226" y="1365"/>
			<point x="179" y="1381"/>
			<point x="132" y="1381" type="curve" smooth="yes"/>
			<point x="79" y="1381"/>
			<point x="19" y="1360"/>
			<point x="26" y="1326" type="curve" smooth="yes"/>
			<point x="28" y="1316" type="line"/>
			<point x="485" y="19" type="line" smooth="yes"/>
			<point x="497" y="-16"/>
			<point x="557" y="-24"/>
			<point x="590" y="-24" type="curve" smooth="yes"/>
			<point x="622" y="-23"/>
			<point x="689" y="-13"/>
			<point x="698" y="23" type="curve" smooth="yes"/>
			<point x="959" y="1029" type="line"/>
			<point x="1225" y="22" type="line" smooth="yes"/>
			<point x="1234" y="-15"/>
			<point x="1295" y="-24"/>
			<point x="1330" y="-24" type="curve" smooth="yes"/>
			<point x="1363" y="-24"/>
			<point x="1426" y="-14"/>
		</contour>
	</outline>
</glyph>
<glyph name="X" format="2">
  <advance height="2048" width="1292.0"/>
  <unicode hex="0058"/>
  <outline>
    <contour>
      <point x="109.0" y="-24.0" type="curve" smooth="yes"/>
      <point x="138.0" y="-24.0"/>
      <point x="171.0" y="-17.0"/>
      <point x="186.0" y="2.0" type="curve" smooth="yes"/>
      <point x="631.0" y="549.0" type="line"/>
      <point x="1053.0" y="10.0" type="line" smooth="yes"/>
      <point x="1073.0" y="-16.0"/>
      <point x="1118.0" y="-24.0"/>
      <point x="1157.0" y="-24.0" type="curve" smooth="yes"/>
      <point x="1171.0" y="-24.0"/>
      <point x="1184.0" y="-23.0"/>
      <point x="1195.0" y="-21.0" type="curve" smooth="yes"/>
      <point x="1220.0" y="-16.0"/>
      <point x="1266.0" y="3.0"/>
      <point x="1266.0" y="30.0" type="curve" smooth="yes"/>
      <point x="1266.0" y="37.0"/>
      <point x="1264.0" y="44.0"/>
      <point x="1258.0" y="51.0" type="curve" smooth="yes"/>
      <point x="751.0" y="697.0" type="line"/>
      <point x="1260.0" y="1322.0" type="line" smooth="yes"/>
      <point x="1265.0" y="1328.0"/>
      <point x="1267.0" y="1334.0"/>
      <point x="1267.0" y="1339.0" type="curve" smooth="yes"/>
      <point x="1267.0" y="1360.0"/>
      <point x="1233.0" y="1374.0"/>
      <point x="1214.0" y="1378.0" type="curve" smooth="yes"/>
      <point x="1205.0" y="1380.0"/>
      <point x="1194.0" y="1381.0"/>
      <point x="1183.0" y="1381.0" type="curve" smooth="yes"/>
      <point x="1154.0" y="1381.0"/>
      <point x="1121.0" y="1374.0"/>
      <point x="1106.0" y="1355.0" type="curve" smooth="yes"/>
      <point x="662.0" y="810.0" type="line"/>
      <point x="242.0" y="1346.0" type="line" smooth="yes"/>
      <point x="222.0" y="1371.0"/>
      <point x="178.0" y="1380.0"/>
      <point x="140.0" y="1380.0" type="curve" smooth="yes"/>
      <point x="125.0" y="1380.0"/>
      <point x="112.0" y="1379.0"/>
      <point x="100.0" y="1377.0" type="curve" smooth="yes"/>
      <point x="75.0" y="1373.0"/>
      <point x="29.0" y="1354.0"/>
      <point x="29.0" y="1326.0" type="curve" smooth="yes"/>
      <point x="29.0" y="1320.0"/>
      <point x="31.0" y="1313.0"/>
      <point x="37.0" y="1305.0" type="curve" smooth="yes"/>
      <point x="542.0" y="662.0" type="line"/>
      <point x="32.0" y="35.0" type="line" smooth="yes"/>
      <point x="27.0" y="29.0"/>
      <point x="25.0" y="23.0"/>
      <point x="25.0" y="18.0" type="curve" smooth="yes"/>
      <point x="25.0" y="-3.0"/>
      <point x="59.0" y="-17.0"/>
      <point x="79.0" y="-21.0" type="curve" smooth="yes"/>
      <point x="88.0" y="-23.0"/>
      <point x="98.0" y="-24.0"/>
    </contour>
  </outline>
</glyph>
<glyph name="Y" format="2">
	<unicode hex="0059"/>
	<advance height="2048" width="1297"/>
	<outline>
		<contour>
			<point x="648" y="-24" type="curve" smooth="yes"/>
			<point x="681" y="-24"/>
			<point x="751" y="-10"/>
			<point x="751" y="31" type="curve" smooth="yes"/>
			<point x="751" y="643" type="line"/>
			<point x="1266" y="1324" type="line"/>
			<point x="1270" y="1330"/>
			<point x="1272" y="1335"/>
			<point x="1272" y="1340" type="curve" smooth="yes"/>
			<point x="1272" y="1367"/>
			<point x="1230" y="1381"/>
			<point x="1188" y="1381" type="curve" smooth="yes"/>
			<point x="1156" y="1381"/>
			<point x="1123" y="1373"/>
			<point x="1110" y="1355" type="curve" smooth="yes"/>
			<point x="675" y="782" type="line"/>
			<point x="239" y="1347" type="line" smooth="yes"/>
			<point x="221" y="1370"/>
			<point x="182" y="1381"/>
			<point x="142" y="1381" type="curve" smooth="yes"/>
			<point x="84" y="1381"/>
			<point x="25" y="1362"/>
			<point x="25" y="1328" type="curve" smooth="yes"/>
			<point x="25" y="1322"/>
			<point x="27" y="1315"/>
			<point x="33" y="1307" type="curve" smooth="yes"/>
			<point x="547" y="643" type="line"/>
			<point x="547" y="31" type="line" smooth="yes"/>
			<point x="547" y="-10"/>
			<point x="617" y="-24"/>
		</contour>
	</outline>
</glyph>
<glyph name="Z" format="2">
	<unicode hex="005A"/>
	<advance height="2048" width="1318"/>
	<outline>
		<contour>
			<point x="49" y="1302" type="curve" smooth="yes"/>
			<point x="49" y="1344"/>
			<point x="126" y="1357"/>
			<point x="159" y="1357" type="curve" smooth="yes"/>
			<point x="1181" y="1357" type="line" smooth="yes"/>
			<point x="1213" y="1357"/>
			<point x="1291" y="1344"/>
			<point x="1291" y="1302" type="curve" smooth="yes"/>
			<point x="1291" y="1294"/>
			<point x="1287" y="1286"/>
			<point x="1282" y="1280" type="curve" smooth="yes"/>
			<point x="300" y="111" type="line"/>
			<point x="1183" y="111" type="line" smooth="yes"/>
			<point x="1215" y="111"/>
			<point x="1293" y="98"/>
			<point x="1293" y="55" type="curve" smooth="yes"/>
			<point x="1293" y="13"/>
			<point x="1215" y="0"/>
			<point x="1183" y="0" type="curve" smooth="yes"/>
			<point x="135" y="0" type="line" smooth="yes"/>
			<point x="109" y="0"/>
			<point x="26" y="13"/>
			<point x="25" y="54" type="curve" smooth="yes"/>
			<point x="25" y="62"/>
			<point x="28" y="70"/>
			<point x="34" y="77" type="curve" smooth="yes"/>
			<point x="1016" y="1247" type="line"/>
			<point x="159" y="1247" type="line" smooth="yes"/>
			<point x="127" y="1247"/>
			<point x="49" y="1260"/>
		</contour>
	</outline>
</glyph>
<glyph name="bracketleft" format="2">
  <advance height="2048" width="814.0"/>
  <unicode hex="005B"/>
  <outline>
    <contour>
      <point x="613.0" y="-400.0" type="line" smooth="yes"/>
      <point x="645.0" y="-400.0"/>
      <point x="714.0" y="-386.0"/>
      <point x="714.0" y="-344.0" type="curve" smooth="yes"/>
      <point x="714.0" y="-302.0"/>
      <point x="645.0" y="-288.0"/>
      <point x="613.0" y="-288.0" type="curve" smooth="yes"/>
      <point x="303.0" y="-288.0" type="line"/>
      <point x="303.0" y="1268.0" type="line"/>
      <point x="613.0" y="1268.0" type="line" smooth="yes"/>
      <point x="645.0" y="1268.0"/>
      <point x="714.0" y="1282.0"/>
      <point x="714.0" y="1324.0" type="curve" smooth="yes"/>
      <point x="714.0" y="1366.0"/>
      <point x="645.0" y="1380.0"/>
      <point x="613.0" y="1380.0" type="curve" smooth="yes"/>
      <point x="201.0" y="1380.0" type="line" smooth="yes"/>
      <point x="169.0" y="1380.0"/>
      <point x="100.0" y="1366.0"/>
      <point x="100.0" y="1324.0" type="curve" smooth="yes"/>
      <point x="100.0" y="-344.0" type="line" smooth="yes"/>
      <point x="100.0" y="-386.0"/>
      <point x="169.0" y="-400.0"/>
      <point x="201.0" y="-400.0" type="curve" smooth="yes"/>
    </contour>
  </outline>
</glyph>
<glyph name="asciicircum" format="2">
	<unicode hex="005E"/>
	<advance height="2048" width="808"/>
	<outline>
		<contour>
			<point x="253" y="1109" type="line" smooth="yes"/>
			<point x="239" y="1083"/>
			<point x="188" y="1078"/>
			<point x="160" y="1081" type="curve" smooth="yes"/>
			<point x="139" y="1084"/>
			<point x="88" y="1099"/>
			<point x="103" y="1128" type="curve" smooth="yes"/>
			<point x="329" y="1574" type="line" smooth="yes"/>
			<point x="340" y="1596"/>
			<point x="381" y="1603"/>
			<point x="404" y="1603" type="curve" smooth="yes"/>
			<point x="427" y="1603"/>
			<point x="468" y="1596"/>
			<point x="479" y="1574" type="curve" smooth="yes"/>
			<point x="705" y="1128" type="line" smooth="yes"/>
			<point x="720" y="1099"/>
			<point x="669" y="1084"/>
			<point x="648" y="1081" type="curve" smooth="yes"/>
			<point x="620" y="1078"/>
			<point x="569" y="1083"/>
			<point x="556" y="1109" type="curve" smooth="yes"/>
			<point x="404" y="1408" type="line"/>
		</contour>
	</outline>
</glyph>
<glyph name="underscore" format="2">
  <advance height="2048" width="1279.0"/>
  <unicode hex="005F"/>
  <outline>
    <contour>
      <point x="1081.0" y="0.0" type="line" smooth="yes"/>
      <point x="1112.0" y="0.0"/>
      <point x="1179.0" y="14.0"/>
      <point x="1179.0" y="55.0" type="curve" smooth="yes"/>
      <point x="1179.0" y="96.0"/>
      <point x="1112.0" y="110.0"/>
      <point x="1081.0" y="110.0" type="curve" smooth="yes"/>
      <point x="198.0" y="110.0" type="line" smooth="yes"/>
      <point x="167.0" y="110.0"/>
      <point x="100.0" y="96.0"/>
      <point x="100.0" y="55.0" type="curve" smooth="yes"/>
      <point x="100.0" y="14.0"/>
      <point x="167.0" y="0.0"/>
      <point x="198.0" y="0.0" type="curve" smooth="yes"/>
    </contour>
  </outline>
</glyph>
<glyph name="grave" format="2">
	<unicode hex="0060"/>
	<advance height="2048" width="495"/>
	<outline>
		<contour>
			<point x="151" y="1506" type="curve" smooth="yes"/>
			<point x="474" y="1205" type="line" smooth="yes"/>
			<point x="504" y="1176"/>
			<point x="498" y="1141"/>
			<point x="472" y="1111" type="curve" smooth="yes"/>
			<point x="448" y="1082"/>
			<point x="414" y="1070"/>
			<point x="382" y="1094" type="curve" smooth="yes"/>
			<point x="26" y="1356" type="line" smooth="yes"/>
			<point x="-14" y="1386"/>
			<point x="-5" y="1439"/>
			<point x="25" y="1478" type="curve" smooth="yes"/>
			<point x="56" y="1519"/>
			<point x="111" y="1544"/>
		</contour>
	</outline>
</glyph>
<glyph name="a" format="2">
	<unicode hex="0061"/>
	<advance height="2048" width="1246"/>
	<outline>
		<contour>
			<point x="851" y="346" type="curve" smooth="yes"/>
			<point x="851" y="442" type="line"/>
			<point x="744" y="424"/>
			<point x="636" y="435"/>
			<point x="528" y="437" type="curve" smooth="yes"/>
			<point x="401" y="438"/>
			<point x="303" y="412"/>
			<point x="303" y="267" type="curve" smooth="yes"/>
			<point x="303" y="143"/>
			<point x="403" y="87"/>
			<point x="518" y="87" type="curve" smooth="yes"/>
			<point x="668" y="87"/>
			<point x="851" y="180"/>
		</contour>
		<contour>
			<point x="332" y="707" type="curve"/>
			<point x="332" y="665"/>
			<point x="262" y="651"/>
			<point x="229" y="652" type="curve" smooth="yes"/>
			<point x="197" y="652"/>
			<point x="130" y="666"/>
			<point x="130" y="707" type="curve" smooth="yes"/>
			<point x="130" y="793"/>
			<point x="195" y="867"/>
			<point x="264" y="913" type="curve" smooth="yes"/>
			<point x="359" y="975"/>
			<point x="483" y="1001"/>
			<point x="596" y="1000" type="curve" smooth="yes"/>
			<point x="808" y="999"/>
			<point x="1053" y="904"/>
			<point x="1053" y="664" type="curve" smooth="yes"/>
			<point x="1053" y="233" type="line" smooth="yes"/>
			<point x="1053" y="174"/>
			<point x="1060" y="103"/>
			<point x="1118" y="70" type="curve" smooth="yes"/>
			<point x="1132" y="62"/>
			<point x="1146" y="49"/>
			<point x="1146" y="32" type="curve" smooth="yes"/>
			<point x="1146" y="13"/>
			<point x="1130" y="-1"/>
			<point x="1115" y="-9" type="curve" smooth="yes"/>
			<point x="1094" y="-19"/>
			<point x="1069" y="-24"/>
			<point x="1045" y="-24" type="curve" smooth="yes"/>
			<point x="1021" y="-24"/>
			<point x="993" y="-19"/>
			<point x="971" y="-7" type="curve" smooth="yes"/>
			<point x="933" y="16"/>
			<point x="901" y="46"/>
			<point x="881" y="85" type="curve"/>
			<point x="781" y="12"/>
			<point x="642" y="-24"/>
			<point x="518" y="-24" type="curve" smooth="yes"/>
			<point x="335" y="-24"/>
			<point x="100" y="53"/>
			<point x="100" y="267" type="curve" smooth="yes"/>
			<point x="100" y="509"/>
			<point x="340" y="547"/>
			<point x="537" y="547" type="curve" smooth="yes"/>
			<point x="626" y="547"/>
			<point x="777" y="529"/>
			<point x="851" y="569" type="curve"/>
			<point x="851" y="664" type="line" smooth="yes"/>
			<point x="851" y="810"/>
			<point x="736" y="888"/>
			<point x="595" y="889" type="curve" smooth="yes"/>
			<point x="534" y="890"/>
			<point x="470" y="874"/>
			<point x="419" y="841" type="curve" smooth="yes"/>
			<point x="374" y="812"/>
			<point x="333" y="763"/>
		</contour>
	</outline>
</glyph>
<glyph name="b" format="2">
	<unicode hex="0062"/>
	<advance height="2048" width="1174"/>
	<outline>
		<contour>
			<point x="612" y="889" type="curve" smooth="yes"/>
			<point x="402" y="889"/>
			<point x="303" y="668"/>
			<point x="303" y="489" type="curve" smooth="yes"/>
			<point x="303" y="310"/>
			<point x="402" y="88"/>
			<point x="612" y="88" type="curve" smooth="yes"/>
			<point x="822" y="88"/>
			<point x="921" y="310"/>
			<point x="921" y="489" type="curve" smooth="yes"/>
			<point x="921" y="668"/>
			<point x="822" y="889"/>
		</contour>
		<contour>
			<point x="612" y="1001" type="curve" smooth="yes"/>
			<point x="921" y="1001"/>
			<point x="1124" y="789"/>
			<point x="1124" y="489" type="curve" smooth="yes"/>
			<point x="1124" y="188"/>
			<point x="921" y="-24"/>
			<point x="612" y="-24" type="curve" smooth="yes"/>
			<point x="499" y="-24"/>
			<point x="383" y="12"/>
			<point x="303" y="92" type="curve"/>
			<point x="303" y="31" type="line" smooth="yes"/>
			<point x="303" y="-11"/>
			<point x="234" y="-25"/>
			<point x="202" y="-25" type="curve" smooth="yes"/>
			<point x="169" y="-25"/>
			<point x="100" y="-11"/>
			<point x="100" y="31" type="curve" smooth="yes"/>
			<point x="100" y="1325" type="line" smooth="yes"/>
			<point x="100" y="1367"/>
			<point x="169" y="1381"/>
			<point x="202" y="1381" type="curve" smooth="yes"/>
			<point x="234" y="1381"/>
			<point x="303" y="1367"/>
			<point x="303" y="1325" type="curve" smooth="yes"/>
			<point x="303" y="885" type="line"/>
			<point x="383" y="965"/>
			<point x="499" y="1001"/>
		</contour>
	</outline>
</glyph>
<glyph name="c" format="2">
	<unicode hex="0063"/>
	<advance height="2048" width="1223"/>
	<outline>
		<contour>
			<point x="1121" y="680" type="curve"/>
			<point x="1122" y="678"/>
			<point x="1122" y="676"/>
			<point x="1122" y="675" type="curve"/>
			<point x="1121" y="634"/>
			<point x="1052" y="620"/>
			<point x="1020" y="620" type="curve" smooth="yes"/>
			<point x="988" y="620"/>
			<point x="925" y="633"/>
			<point x="919" y="671" type="curve" smooth="yes"/>
			<point x="901" y="804"/>
			<point x="771" y="891"/>
			<point x="639" y="889" type="curve" smooth="yes"/>
			<point x="412" y="886"/>
			<point x="302" y="683"/>
			<point x="302" y="482" type="curve" smooth="yes"/>
			<point x="303" y="282"/>
			<point x="412" y="87"/>
			<point x="638" y="87" type="curve" smooth="yes"/>
			<point x="767" y="87"/>
			<point x="898" y="178"/>
			<point x="921" y="306" type="curve" smooth="yes"/>
			<point x="928" y="343"/>
			<point x="990" y="356"/>
			<point x="1022" y="356" type="curve" smooth="yes"/>
			<point x="1053" y="356"/>
			<point x="1123" y="341"/>
			<point x="1123" y="301" type="curve" smooth="yes"/>
			<point x="1123" y="299"/>
			<point x="1123" y="297"/>
			<point x="1123" y="295" type="curve"/>
			<point x="1083" y="79"/>
			<point x="836" y="-24"/>
			<point x="634" y="-24" type="curve" smooth="yes"/>
			<point x="320" y="-25"/>
			<point x="102" y="164"/>
			<point x="100" y="478" type="curve" smooth="yes"/>
			<point x="97" y="793"/>
			<point x="315" y="996"/>
			<point x="635" y="1000" type="curve" smooth="yes"/>
			<point x="838" y="1003"/>
			<point x="1091" y="900"/>
		</contour>
	</outline>
</glyph>
<glyph name="d" format="2">
	<unicode hex="0064"/>
	<advance height="2048" width="1184"/>
	<outline>
		<contour>
			<point x="592" y="1001" type="curve" smooth="yes"/>
			<point x="287" y="1001"/>
			<point x="100" y="779"/>
			<point x="100" y="489" type="curve" smooth="yes"/>
			<point x="100" y="199"/>
			<point x="287" y="-23"/>
			<point x="592" y="-23" type="curve" smooth="yes"/>
			<point x="737" y="-23"/>
			<point x="846" y="27"/>
			<point x="921" y="111" type="curve"/>
			<point x="921" y="21" type="line" smooth="yes"/>
			<point x="921" y="-4"/>
			<point x="957" y="-24"/>
			<point x="1002" y="-24" type="curve" smooth="yes"/>
			<point x="1047" y="-24"/>
			<point x="1084" y="-4"/>
			<point x="1084" y="21" type="curve" smooth="yes"/>
			<point x="1084" y="1336" type="line" smooth="yes"/>
			<point x="1084" y="1361"/>
			<point x="1047" y="1381"/>
			<point x="1002" y="1381" type="curve" smooth="yes"/>
			<point x="957" y="1381"/>
			<point x="921" y="1361"/>
			<point x="921" y="1336" type="curve" smooth="yes"/>
			<point x="921" y="867" type="line"/>
			<point x="846" y="951"/>
			<point x="737" y="1001"/>
		</contour>
		<contour>
			<point x="592" y="910" type="curve" smooth="yes"/>
			<point x="814" y="910"/>
			<point x="921" y="683"/>
			<point x="921" y="489" type="curve" smooth="yes"/>
			<point x="921" y="295"/>
			<point x="814" y="68"/>
			<point x="592" y="68" type="curve" smooth="yes"/>
			<point x="370" y="68"/>
			<point x="263" y="295"/>
			<point x="263" y="489" type="curve" smooth="yes"/>
			<point x="263" y="683"/>
			<point x="370" y="910"/>
		</contour>
	</outline>
</glyph>
<glyph name="e" format="2">
	<unicode hex="0065"/>
	<advance height="2048" width="1186"/>
	<outline>
		<contour>
			<point x="931" y="586" type="line"/>
			<point x="912" y="768"/>
			<point x="786" y="890"/>
			<point x="596" y="889" type="curve" smooth="yes"/>
			<point x="417" y="888"/>
			<point x="299" y="747"/>
			<point x="264" y="586" type="curve"/>
		</contour>
		<contour>
			<point x="915" y="305" type="curve" smooth="yes"/>
			<point x="919" y="344"/>
			<point x="982" y="357"/>
			<point x="1014" y="357" type="curve" smooth="yes"/>
			<point x="1047" y="357"/>
			<point x="1122" y="343"/>
			<point x="1117" y="298" type="curve" smooth="yes"/>
			<point x="1107" y="205"/>
			<point x="1035" y="128"/>
			<point x="958" y="78" type="curve" smooth="yes"/>
			<point x="850" y="7"/>
			<point x="713" y="-25"/>
			<point x="583" y="-24" type="curve" smooth="yes"/>
			<point x="280" y="-21"/>
			<point x="51" y="173"/>
			<point x="50" y="478" type="curve" smooth="yes"/>
			<point x="49" y="790"/>
			<point x="281" y="999"/>
			<point x="595" y="1000" type="curve" smooth="yes"/>
			<point x="892" y="1001"/>
			<point x="1140" y="843"/>
			<point x="1136" y="530" type="curve" smooth="yes"/>
			<point x="1135" y="488"/>
			<point x="1068" y="475"/>
			<point x="1035" y="475" type="curve" smooth="yes"/>
			<point x="252" y="475" type="line"/>
			<point x="254" y="285"/>
			<point x="373" y="90"/>
			<point x="585" y="87" type="curve" smooth="yes"/>
			<point x="662" y="86"/>
			<point x="739" y="108"/>
			<point x="803" y="149" type="curve" smooth="yes"/>
			<point x="857" y="185"/>
			<point x="907" y="239"/>
		</contour>
	</outline>
</glyph>
<glyph name="f" format="2">
	<unicode hex="0066"/>
	<advance height="2048" width="807"/>
	<outline>
		<contour>
			<point x="337" y="-24" type="curve" smooth="yes"/>
			<point x="369" y="-24"/>
			<point x="438" y="-10"/>
			<point x="438" y="32" type="curve" smooth="yes"/>
			<point x="438" y="889" type="line"/>
			<point x="609" y="889" type="line" smooth="yes"/>
			<point x="641" y="889"/>
			<point x="711" y="903"/>
			<point x="711" y="945" type="curve" smooth="yes"/>
			<point x="711" y="987"/>
			<point x="641" y="1001"/>
			<point x="609" y="1001" type="curve" smooth="yes"/>
			<point x="438" y="1001" type="line"/>
			<point x="438" y="1105" type="line" smooth="yes"/>
			<point x="438" y="1194"/>
			<point x="470" y="1269"/>
			<point x="572" y="1269" type="curve" smooth="yes"/>
			<point x="610" y="1269"/>
			<point x="642" y="1258"/>
			<point x="677" y="1258" type="curve" smooth="yes"/>
			<point x="710" y="1258"/>
			<point x="782" y="1272"/>
			<point x="782" y="1316" type="curve" smooth="yes"/>
			<point x="782" y="1348"/>
			<point x="726" y="1365"/>
			<point x="698" y="1370" type="curve" smooth="yes"/>
			<point x="656" y="1377"/>
			<point x="614" y="1381"/>
			<point x="571" y="1381" type="curve" smooth="yes"/>
			<point x="388" y="1380"/>
			<point x="235" y="1303"/>
			<point x="235" y="1105" type="curve" smooth="yes"/>
			<point x="235" y="1001" type="line"/>
			<point x="126" y="1001" type="line" smooth="yes"/>
			<point x="94" y="1001"/>
			<point x="25" y="987"/>
			<point x="25" y="945" type="curve" smooth="yes"/>
			<point x="25" y="903"/>
			<point x="94" y="889"/>
			<point x="126" y="889" type="curve" smooth="yes"/>
			<point x="235" y="889" type="line"/>
			<point x="235" y="32" type="line" smooth="yes"/>
			<point x="235" y="-10"/>
			<point x="304" y="-24"/>
		</contour>
	</outline>
</glyph>
<glyph name="g" format="2">
	<unicode hex="0067"/>
	<advance height="2048" width="1222"/>
	<outline>
		<contour>
			<point x="108" y="-220" type="curve" smooth="yes"/>
			<point x="104" y="-214"/>
			<point x="102" y="-207"/>
			<point x="102" y="-200" type="curve" smooth="yes"/>
			<point x="102" y="-170"/>
			<point x="142" y="-153"/>
			<point x="167" y="-148" type="curve" smooth="yes"/>
			<point x="178" y="-146"/>
			<point x="190" y="-144"/>
			<point x="202" y="-144" type="curve" smooth="yes"/>
			<point x="233" y="-144"/>
			<point x="279" y="-153"/>
			<point x="298" y="-180" type="curve" smooth="yes"/>
			<point x="358" y="-267"/>
			<point x="503" y="-295"/>
			<point x="603" y="-292" type="curve" smooth="yes"/>
			<point x="805" y="-285"/>
			<point x="919" y="-158"/>
			<point x="919" y="40" type="curve" smooth="yes"/>
			<point x="919" y="80" type="line"/>
			<point x="833" y="6"/>
			<point x="724" y="-23"/>
			<point x="611" y="-23" type="curve" smooth="yes"/>
			<point x="302" y="-23"/>
			<point x="100" y="188"/>
			<point x="100" y="489" type="curve" smooth="yes"/>
			<point x="100" y="790"/>
			<point x="303" y="1001"/>
			<point x="612" y="1001" type="curve" smooth="yes"/>
			<point x="724" y="1001"/>
			<point x="834" y="973"/>
			<point x="921" y="901" type="curve"/>
			<point x="921" y="945" type="line" smooth="yes"/>
			<point x="921" y="987"/>
			<point x="990" y="1001"/>
			<point x="1022" y="1001" type="curve" smooth="yes"/>
			<point x="1055" y="1001"/>
			<point x="1122" y="987"/>
			<point x="1122" y="945" type="curve"/>
			<point x="1121" y="40" type="line"/>
			<point x="1121" y="-257"/>
			<point x="891" y="-394"/>
			<point x="615" y="-404" type="curve" smooth="yes"/>
			<point x="451" y="-409"/>
			<point x="207" y="-363"/>
		</contour>
		<contour>
			<point x="612" y="889" type="curve" smooth="yes"/>
			<point x="402" y="889"/>
			<point x="303" y="668"/>
			<point x="303" y="489" type="curve" smooth="yes"/>
			<point x="303" y="310"/>
			<point x="401" y="89"/>
			<point x="611" y="89" type="curve" smooth="yes"/>
			<point x="821" y="89"/>
			<point x="921" y="310"/>
			<point x="921" y="489" type="curve" smooth="yes"/>
			<point x="921" y="668"/>
			<point x="822" y="889"/>
		</contour>
	</outline>
</glyph>
<glyph name="h" format="2">
	<unicode hex="0068"/>
	<advance height="2048" width="1110"/>
	<outline>
		<contour>
			<point x="100" y="1325" type="line" smooth="yes"/>
			<point x="100" y="1367"/>
			<point x="169" y="1381"/>
			<point x="202" y="1381" type="curve" smooth="yes"/>
			<point x="234" y="1381"/>
			<point x="303" y="1367"/>
			<point x="303" y="1325" type="curve" smooth="yes"/>
			<point x="303" y="883" type="line"/>
			<point x="378" y="963"/>
			<point x="494" y="1000"/>
			<point x="603" y="1000" type="curve" smooth="yes"/>
			<point x="869" y="1000"/>
			<point x="1060" y="810"/>
			<point x="1060" y="550" type="curve" smooth="yes"/>
			<point x="1060" y="31" type="line" smooth="yes"/>
			<point x="1060" y="-11"/>
			<point x="991" y="-25"/>
			<point x="958" y="-25" type="curve" smooth="yes"/>
			<point x="926" y="-25"/>
			<point x="857" y="-11"/>
			<point x="857" y="31" type="curve" smooth="yes"/>
			<point x="857" y="549" type="line" smooth="yes"/>
			<point x="857" y="706"/>
			<point x="775" y="886"/>
			<point x="591" y="886" type="curve" smooth="yes"/>
			<point x="394" y="887"/>
			<point x="303" y="689"/>
			<point x="303" y="523" type="curve" smooth="yes"/>
			<point x="303" y="31" type="line" smooth="yes"/>
			<point x="303" y="-11"/>
			<point x="234" y="-25"/>
			<point x="202" y="-25" type="curve" smooth="yes"/>
			<point x="169" y="-25"/>
			<point x="100" y="-11"/>
			<point x="100" y="31" type="curve" smooth="yes"/>
		</contour>
	</outline>
</glyph>
<glyph name="i" format="2">
	<unicode hex="0069"/>
	<advance height="2048" width="405"/>
	<outline>
		<contour>
			<point x="203" y="1293" type="curve" smooth="yes"/>
			<point x="256" y="1293"/>
			<point x="305" y="1252"/>
			<point x="305" y="1190" type="curve" smooth="yes"/>
			<point x="305" y="1129"/>
			<point x="256" y="1088"/>
			<point x="203" y="1088" type="curve" smooth="yes"/>
			<point x="149" y="1088"/>
			<point x="100" y="1129"/>
			<point x="100" y="1190" type="curve" smooth="yes"/>
			<point x="100" y="1252"/>
			<point x="149" y="1293"/>
		</contour>
		<contour>
			<point x="101" y="944" type="line" smooth="yes"/>
			<point x="101" y="986"/>
			<point x="170" y="1000"/>
			<point x="203" y="1000" type="curve" smooth="yes"/>
			<point x="235" y="1000"/>
			<point x="304" y="986"/>
			<point x="304" y="944" type="curve" smooth="yes"/>
			<point x="304" y="32" type="line" smooth="yes"/>
			<point x="304" y="-10"/>
			<point x="235" y="-24"/>
			<point x="203" y="-24" type="curve" smooth="yes"/>
			<point x="170" y="-24"/>
			<point x="101" y="-10"/>
			<point x="101" y="32" type="curve" smooth="yes"/>
		</contour>
	</outline>
</glyph>
<glyph name="j" format="2">
	<unicode hex="006A"/>
	<advance height="2048" width="665"/>
	<outline>
		<contour>
			<point x="393" y="952" type="line" smooth="yes"/>
			<point x="393" y="977"/>
			<point x="430" y="998"/>
			<point x="475" y="998" type="curve" smooth="yes"/>
			<point x="520" y="998"/>
			<point x="556" y="977"/>
			<point x="556" y="952" type="curve" smooth="yes"/>
			<point x="556" y="-139" type="line" smooth="yes"/>
			<point x="556" y="-332"/>
			<point x="415" y="-408"/>
			<point x="240" y="-409" type="curve" smooth="yes"/>
			<point x="198" y="-409"/>
			<point x="158" y="-405"/>
			<point x="120" y="-398" type="curve" smooth="yes"/>
			<point x="93" y="-393"/>
			<point x="31" y="-375"/>
			<point x="55" y="-337" type="curve" smooth="yes"/>
			<point x="70" y="-313"/>
			<point x="117" y="-300"/>
			<point x="159" y="-309" type="curve" smooth="yes"/>
			<point x="184" y="-314"/>
			<point x="212" y="-318"/>
			<point x="240" y="-318" type="curve" smooth="yes"/>
			<point x="350" y="-317"/>
			<point x="393" y="-244"/>
			<point x="393" y="-139" type="curve" smooth="yes"/>
		</contour>
		<contour>
			<point x="475" y="1291" type="curve" smooth="yes"/>
			<point x="500" y="1291"/>
			<point x="522" y="1281"/>
			<point x="539" y="1265" type="curve"/>
			<point x="555" y="1248"/>
			<point x="565" y="1226"/>
			<point x="565" y="1201" type="curve" smooth="yes"/>
			<point x="565" y="1176"/>
			<point x="555" y="1154"/>
			<point x="539" y="1137" type="curve"/>
			<point x="522" y="1121"/>
			<point x="500" y="1111"/>
			<point x="475" y="1111" type="curve" smooth="yes"/>
			<point x="450" y="1111"/>
			<point x="428" y="1121"/>
			<point x="411" y="1137" type="curve"/>
			<point x="395" y="1154"/>
			<point x="385" y="1176"/>
			<point x="385" y="1201" type="curve" smooth="yes"/>
			<point x="385" y="1226"/>
			<point x="395" y="1248"/>
			<point x="411" y="1265" type="curve"/>
			<point x="428" y="1281"/>
			<point x="450" y="1291"/>
		</contour>
	</outline>
</glyph>
<glyph name="k" format="2">
	<unicode hex="006B"/>
	<advance height="2048" width="1108"/>
	<outline>
		<contour>
			<point x="100" y="1325" type="line" smooth="yes"/>
			<point x="100" y="1367"/>
			<point x="169" y="1381"/>
			<point x="202" y="1381" type="curve" smooth="yes"/>
			<point x="234" y="1381"/>
			<point x="303" y="1367"/>
			<point x="303" y="1325" type="curve" smooth="yes"/>
			<point x="303" y="517" type="line"/>
			<point x="856" y="978" type="line" smooth="yes"/>
			<point x="885" y="1002"/>
			<point x="942" y="1004"/>
			<point x="978" y="994" type="curve" smooth="yes"/>
			<point x="1007" y="986"/>
			<point x="1044" y="959"/>
			<point x="1011" y="931" type="curve" smooth="yes"/>
			<point x="586" y="579" type="line"/>
			<point x="1072" y="61" type="line" smooth="yes"/>
			<point x="1110" y="21"/>
			<point x="1048" y="-11"/>
			<point x="1013" y="-19" type="curve" smooth="yes"/>
			<point x="966" y="-30"/>
			<point x="888" y="-25"/>
			<point x="855" y="10" type="curve" smooth="yes"/>
			<point x="439" y="454" type="line"/>
			<point x="303" y="340" type="line"/>
			<point x="303" y="32" type="line" smooth="yes"/>
			<point x="303" y="-10"/>
			<point x="234" y="-24"/>
			<point x="202" y="-24" type="curve" smooth="yes"/>
			<point x="169" y="-24"/>
			<point x="100" y="-10"/>
			<point x="100" y="32" type="curve" smooth="yes"/>
		</contour>
	</outline>
</glyph>
<glyph name="l" format="2">
  <advance height="2048" width="353.0"/>
  <unicode hex="006C"/>
  <outline>
    <contour>
      <point x="177.0" y="-25.0" type="curve" smooth="yes"/>
      <point x="209.0" y="-25.0"/>
      <point x="278.0" y="-11.0"/>
      <point x="278.0" y="31.0" type="curve" smooth="yes"/>
      <point x="278.0" y="1325.0" type="line" smooth="yes"/>
      <point x="278.0" y="1367.0"/>
      <point x="209.0" y="1381.0"/>
      <point x="177.0" y="1381.0" type="curve" smooth="yes"/>
      <point x="144.0" y="1381.0"/>
      <point x="75.0" y="1367.0"/>
      <point x="75.0" y="1325.0" type="curve" smooth="yes"/>
      <point x="75.0" y="31.0" type="line" smooth="yes"/>
      <point x="75.0" y="-11.0"/>
      <point x="144.0" y="-25.0"/>
    </contour>
  </outline>
</glyph>
<glyph name="m" format="2">
  <advance height="2048" width="1765.0"/>
  <unicode hex="006D"/>
  <outline>
    <contour>
      <point x="1563.0" y="-24.0" type="curve" smooth="yes"/>
      <point x="1596.0" y="-24.0"/>
      <point x="1665.0" y="-10.0"/>
      <point x="1665.0" y="32.0" type="curve" smooth="yes"/>
      <point x="1665.0" y="552.0" type="line" smooth="yes"/>
      <point x="1665.0" y="812.0"/>
      <point x="1493.0" y="1000.0"/>
      <point x="1223.0" y="1000.0" type="curve" smooth="yes"/>
      <point x="1092.0" y="1000.0"/>
      <point x="967.0" y="954.0"/>
      <point x="883.0" y="853.0" type="curve"/>
      <point x="798.0" y="954.0"/>
      <point x="695.0" y="1000.0"/>
      <point x="564.0" y="1000.0" type="curve" smooth="yes"/>
      <point x="478.0" y="1000.0"/>
      <point x="380.0" y="975.0"/>
      <point x="303.0" y="883.0" type="curve"/>
      <point x="303.0" y="944.0" type="line" smooth="yes"/>
      <point x="303.0" y="986.0"/>
      <point x="234.0" y="1000.0"/>
      <point x="202.0" y="1000.0" type="curve" smooth="yes"/>
      <point x="169.0" y="1000.0"/>
      <point x="100.0" y="986.0"/>
      <point x="100.0" y="944.0" type="curve" smooth="yes"/>
      <point x="100.0" y="32.0" type="line" smooth="yes"/>
      <point x="100.0" y="-10.0"/>
      <point x="169.0" y="-24.0"/>
      <point x="202.0" y="-24.0" type="curve" smooth="yes"/>
      <point x="234.0" y="-24.0"/>
      <point x="303.0" y="-10.0"/>
      <point x="303.0" y="32.0" type="curve" smooth="yes"/>
      <point x="303.0" y="553.0" type="line" smooth="yes"/>
      <point x="303.0" y="630.0"/>
      <point x="318.0" y="716.0"/>
      <point x="359.0" y="783.0" type="curve" smooth="yes"/>
      <point x="400.0" y="850.0"/>
      <point x="461.0" y="886.0"/>
      <point x="541.0" y="886.0" type="curve" smooth="yes"/>
      <point x="726.0" y="886.0"/>
      <point x="782.0" y="702.0"/>
      <point x="782.0" y="552.0" type="curve" smooth="yes"/>
      <point x="782.0" y="32.0" type="line" smooth="yes"/>
      <point x="782.0" y="-10.0"/>
      <point x="851.0" y="-24.0"/>
      <point x="883.0" y="-24.0" type="curve" smooth="yes"/>
      <point x="915.0" y="-24.0"/>
      <point x="985.0" y="-10.0"/>
      <point x="985.0" y="32.0" type="curve" smooth="yes"/>
      <point x="985.0" y="553.0" type="line" smooth="yes"/>
      <point x="985.0" y="699.0"/>
      <point x="1039.0" y="886.0"/>
      <point x="1222.0" y="886.0" type="curve" smooth="yes"/>
      <point x="1406.0" y="886.0"/>
      <point x="1462.0" y="702.0"/>
      <point x="1462.0" y="552.0" type="curve" smooth="yes"/>
      <point x="1462.0" y="32.0" type="line" smooth="yes"/>
      <point x="1462.0" y="-10.0"/>
      <point x="1531.0" y="-24.0"/>
    </contour>
  </outline>
</glyph>
<glyph name="n" format="2">
	<unicode hex="006E"/>
	<advance height="2048" width="1160"/>
	<outline>
		<contour>
			<point x="100" y="944" type="line" smooth="yes"/>
			<point x="100" y="986"/>
			<point x="169" y="1000"/>
			<point x="202" y="1000" type="curve" smooth="yes"/>
			<point x="234" y="1000"/>
			<point x="303" y="986"/>
			<point x="303" y="944" type="curve" smooth="yes"/>
			<point x="303" y="918" type="line"/>
			<point x="383" y="977"/>
			<point x="482" y="1000"/>
			<point x="580" y="1000" type="curve" smooth="yes"/>
			<point x="856" y="1000"/>
			<point x="1060" y="826"/>
			<point x="1060" y="550" type="curve" smooth="yes"/>
			<point x="1060" y="32" type="line" smooth="yes"/>
			<point x="1060" y="-10"/>
			<point x="991" y="-24"/>
			<point x="958" y="-24" type="curve" smooth="yes"/>
			<point x="926" y="-24"/>
			<point x="857" y="-10"/>
			<point x="857" y="32" type="curve" smooth="yes"/>
			<point x="857" y="550" type="line" smooth="yes"/>
			<point x="857" y="712"/>
			<point x="765" y="889"/>
			<point x="580" y="889" type="curve" smooth="yes"/>
			<point x="402" y="889"/>
			<point x="303" y="721"/>
			<point x="303" y="563" type="curve" smooth="yes"/>
			<point x="303" y="32" type="line" smooth="yes"/>
			<point x="303" y="-10"/>
			<point x="234" y="-24"/>
			<point x="202" y="-24" type="curve" smooth="yes"/>
			<point x="169" y="-24"/>
			<point x="100" y="-10"/>
			<point x="100" y="32" type="curve" smooth="yes"/>
		</contour>
	</outline>
</glyph>
<glyph name="o" format="2">
  <advance height="2048" width="1190.0"/>
  <unicode hex="006F"/>
  <outline>
    <contour>
      <point x="595.0" y="-24.0" type="curve" smooth="yes"/>
      <point x="907.0" y="-24.0"/>
      <point x="1140.0" y="176.0"/>
      <point x="1140.0" y="488.0" type="curve" smooth="yes"/>
      <point x="1140.0" y="800.0"/>
      <point x="907.0" y="1000.0"/>
      <point x="595.0" y="1000.0" type="curve" smooth="yes"/>
      <point x="283.0" y="1000.0"/>
      <point x="50.0" y="800.0"/>
      <point x="50.0" y="488.0" type="curve" smooth="yes"/>
      <point x="50.0" y="176.0"/>
      <point x="283.0" y="-24.0"/>
    </contour>
    <contour>
      <point x="595.0" y="87.0" type="curve" smooth="yes"/>
      <point x="373.0" y="87.0"/>
      <point x="253.0" y="290.0"/>
      <point x="253.0" y="488.0" type="curve" smooth="yes"/>
      <point x="253.0" y="686.0"/>
      <point x="373.0" y="889.0"/>
      <point x="595.0" y="889.0" type="curve" smooth="yes"/>
      <point x="817.0" y="889.0"/>
      <point x="937.0" y="686.0"/>
      <point x="937.0" y="488.0" type="curve" smooth="yes"/>
      <point x="937.0" y="290.0"/>
      <point x="817.0" y="87.0"/>
    </contour>
  </outline>
</glyph>
<glyph name="p" format="2">
  <advance height="2048" width="1174.0"/>
  <unicode hex="0070"/>
  <outline>
    <contour>
      <point x="202.0" y="-404.0" type="curve" smooth="yes"/>
      <point x="234.0" y="-404.0"/>
      <point x="303.0" y="-390.0"/>
      <point x="303.0" y="-348.0" type="curve" smooth="yes"/>
      <point x="303.0" y="92.0" type="line"/>
      <point x="383.0" y="12.0"/>
      <point x="499.0" y="-24.0"/>
      <point x="612.0" y="-24.0" type="curve" smooth="yes"/>
      <point x="921.0" y="-24.0"/>
      <point x="1124.0" y="187.0"/>
      <point x="1124.0" y="488.0" type="curve" smooth="yes"/>
      <point x="1124.0" y="789.0"/>
      <point x="921.0" y="1000.0"/>
      <point x="612.0" y="1000.0" type="curve" smooth="yes"/>
      <point x="499.0" y="1000.0"/>
      <point x="383.0" y="965.0"/>
      <point x="303.0" y="884.0" type="curve"/>
      <point x="303.0" y="945.0" type="line" smooth="yes"/>
      <point x="303.0" y="987.0"/>
      <point x="234.0" y="1001.0"/>
      <point x="202.0" y="1001.0" type="curve" smooth="yes"/>
      <point x="169.0" y="1001.0"/>
      <point x="100.0" y="987.0"/>
      <point x="100.0" y="945.0" type="curve" smooth="yes"/>
      <point x="100.0" y="-348.0" type="line" smooth="yes"/>
      <point x="100.0" y="-390.0"/>
      <point x="169.0" y="-404.0"/>
    </contour>
    <contour>
      <point x="612.0" y="88.0" type="curve" smooth="yes"/>
      <point x="402.0" y="88.0"/>
      <point x="303.0" y="309.0"/>
      <point x="303.0" y="488.0" type="curve" smooth="yes"/>
      <point x="303.0" y="667.0"/>
      <point x="402.0" y="888.0"/>
      <point x="612.0" y="888.0" type="curve" smooth="yes"/>
      <point x="822.0" y="888.0"/>
      <point x="921.0" y="667.0"/>
      <point x="921.0" y="488.0" type="curve" smooth="yes"/>
      <point x="921.0" y="309.0"/>
      <point x="822.0" y="88.0"/>
    </contour>
  </outline>
</glyph>
<glyph name="r" format="2">
  <advance height="2048" width="804.0"/>
  <unicode hex="0072"/>
  <outline>
    <contour>
      <point x="202.0" y="-24.0" type="curve" smooth="yes"/>
      <point x="234.0" y="-24.0"/>
      <point x="303.0" y="-10.0"/>
      <point x="303.0" y="32.0" type="curve" smooth="yes"/>
      <point x="303.0" y="513.0" type="line" smooth="yes"/>
      <point x="303.0" y="598.0"/>
      <point x="312.0" y="692.0"/>
      <point x="350.0" y="769.0" type="curve" smooth="yes"/>
      <point x="383.0" y="837.0"/>
      <point x="439.0" y="891.0"/>
      <point x="525.0" y="891.0" type="curve" smooth="yes"/>
      <point x="563.0" y="891.0"/>
      <point x="600.0" y="876.0"/>
      <point x="630.0" y="854.0" type="curve" smooth="yes"/>
      <point x="645.0" y="842.0"/>
      <point x="665.0" y="837.0"/>
      <point x="685.0" y="837.0" type="curve" smooth="yes"/>
      <point x="707.0" y="837.0"/>
      <point x="729.0" y="844.0"/>
      <point x="747.0" y="856.0" type="curve" smooth="yes"/>
      <point x="767.0" y="869.0"/>
      <point x="779.0" y="887.0"/>
      <point x="779.0" y="905.0" type="curve" smooth="yes"/>
      <point x="779.0" y="918.0"/>
      <point x="771.0" y="932.0"/>
      <point x="754.0" y="943.0" type="curve" smooth="yes"/>
      <point x="689.0" y="985.0"/>
      <point x="622.0" y="1000.0"/>
      <point x="545.0" y="1000.0" type="curve" smooth="yes"/>
      <point x="451.0" y="1000.0"/>
      <point x="358.0" y="961.0"/>
      <point x="303.0" y="883.0" type="curve"/>
      <point x="303.0" y="944.0" type="line" smooth="yes"/>
      <point x="303.0" y="986.0"/>
      <point x="234.0" y="1000.0"/>
      <point x="202.0" y="1000.0" type="curve" smooth="yes"/>
      <point x="169.0" y="1000.0"/>
      <point x="100.0" y="986.0"/>
      <point x="100.0" y="944.0" type="curve" smooth="yes"/>
      <point x="100.0" y="32.0" type="line" smooth="yes"/>
      <point x="100.0" y="-10.0"/>
      <point x="169.0" y="-24.0"/>
    </contour>
  </outline>
</glyph>
<glyph name="s" format="2">
	<unicode hex="0073"/>
	<advance height="2048" width="1096"/>
	<outline>
		<contour>
			<point x="968" y="743" type="curve"/>
			<point x="968" y="740"/>
			<point x="969" y="738"/>
			<point x="969" y="735" type="curve" smooth="yes"/>
			<point x="969" y="695"/>
			<point x="900" y="681"/>
			<point x="868" y="680" type="curve" smooth="yes"/>
			<point x="836" y="680"/>
			<point x="776" y="692"/>
			<point x="767" y="728" type="curve" smooth="yes"/>
			<point x="742" y="832"/>
			<point x="656" y="891"/>
			<point x="549" y="889" type="curve" smooth="yes"/>
			<point x="451" y="888"/>
			<point x="326" y="828"/>
			<point x="327" y="718" type="curve" smooth="yes"/>
			<point x="328" y="669"/>
			<point x="383" y="639"/>
			<point x="423" y="623" type="curve" smooth="yes"/>
			<point x="472" y="604"/>
			<point x="526" y="592"/>
			<point x="578" y="584" type="curve" smooth="yes"/>
			<point x="684" y="568"/>
			<point x="781" y="557"/>
			<point x="873" y="499" type="curve" smooth="yes"/>
			<point x="951" y="449"/>
			<point x="994" y="386"/>
			<point x="996" y="294" type="curve" smooth="yes"/>
			<point x="1001" y="92"/>
			<point x="771" y="-12"/>
			<point x="594" y="-23" type="curve" smooth="yes"/>
			<point x="380" y="-35"/>
			<point x="161" y="45"/>
			<point x="101" y="264" type="curve"/>
			<point x="100" y="267"/>
			<point x="100" y="271"/>
			<point x="100" y="274" type="curve" smooth="yes"/>
			<point x="100" y="313"/>
			<point x="170" y="328"/>
			<point x="201" y="328" type="curve" smooth="yes"/>
			<point x="233" y="328"/>
			<point x="292" y="316"/>
			<point x="302" y="281" type="curve" smooth="yes"/>
			<point x="336" y="152"/>
			<point x="436" y="80"/>
			<point x="572" y="88" type="curve" smooth="yes"/>
			<point x="676" y="94"/>
			<point x="795" y="172"/>
			<point x="794" y="283" type="curve" smooth="yes"/>
			<point x="794" y="332"/>
			<point x="748" y="361"/>
			<point x="707" y="379" type="curve" smooth="yes"/>
			<point x="659" y="400"/>
			<point x="603" y="411"/>
			<point x="552" y="418" type="curve" smooth="yes"/>
			<point x="445" y="434"/>
			<point x="342" y="442"/>
			<point x="250" y="503" type="curve" smooth="yes"/>
			<point x="178" y="551"/>
			<point x="128" y="621"/>
			<point x="125" y="708" type="curve" smooth="yes"/>
			<point x="117" y="911"/>
			<point x="375" y="997"/>
			<point x="544" y="1000" type="curve" smooth="yes"/>
			<point x="722" y="1003"/>
			<point x="922" y="930"/>
		</contour>
	</outline>
</glyph>
<glyph name="t" format="2">
	<unicode hex="0074"/>
	<advance height="2048" width="859"/>
	<outline>
		<contour>
			<point x="466" y="1325" type="curve" smooth="yes"/>
			<point x="466" y="1000" type="line"/>
			<point x="634" y="1000" type="line" smooth="yes"/>
			<point x="666" y="1000"/>
			<point x="736" y="986"/>
			<point x="736" y="944" type="curve" smooth="yes"/>
			<point x="736" y="902"/>
			<point x="666" y="888"/>
			<point x="634" y="888" type="curve" smooth="yes"/>
			<point x="466" y="888" type="line"/>
			<point x="466" y="252" type="line" smooth="yes"/>
			<point x="466" y="163"/>
			<point x="498" y="88"/>
			<point x="600" y="88" type="curve" smooth="yes"/>
			<point x="624" y="87"/>
			<point x="649" y="91"/>
			<point x="673" y="96" type="curve" smooth="yes"/>
			<point x="685" y="98"/>
			<point x="697" y="99"/>
			<point x="708" y="99" type="curve" smooth="yes"/>
			<point x="739" y="98"/>
			<point x="785" y="89"/>
			<point x="803" y="61" type="curve"/>
			<point x="806" y="55"/>
			<point x="809" y="49"/>
			<point x="809" y="41" type="curve" smooth="yes"/>
			<point x="809" y="8"/>
			<point x="752" y="-8"/>
			<point x="726" y="-13" type="curve" smooth="yes"/>
			<point x="684" y="-20"/>
			<point x="642" y="-24"/>
			<point x="599" y="-24" type="curve" smooth="yes"/>
			<point x="416" y="-23"/>
			<point x="263" y="54"/>
			<point x="263" y="252" type="curve" smooth="yes"/>
			<point x="263" y="888" type="line"/>
			<point x="151" y="888" type="line" smooth="yes"/>
			<point x="119" y="888"/>
			<point x="50" y="902"/>
			<point x="50" y="944" type="curve" smooth="yes"/>
			<point x="50" y="986"/>
			<point x="119" y="1000"/>
			<point x="151" y="1000" type="curve" smooth="yes"/>
			<point x="263" y="1000" type="line"/>
			<point x="263" y="1325" type="line" smooth="yes"/>
			<point x="263" y="1367"/>
			<point x="332" y="1381"/>
			<point x="365" y="1381" type="curve" smooth="yes"/>
			<point x="397" y="1381"/>
			<point x="466" y="1367"/>
		</contour>
	</outline>
</glyph>
<glyph name="v" format="2">
	<unicode hex="0076"/>
	<advance height="2048" width="1077"/>
	<outline>
		<contour>
			<point x="540" y="-24" type="curve" smooth="yes"/>
			<point x="569" y="-24"/>
			<point x="633" y="-12"/>
			<point x="645" y="18" type="curve" smooth="yes"/>
			<point x="1050" y="952" type="line"/>
			<point x="1052" y="955"/>
			<point x="1052" y="959"/>
			<point x="1052" y="962" type="curve" smooth="yes"/>
			<point x="1052" y="985"/>
			<point x="1012" y="999"/>
			<point x="972" y="999" type="curve" smooth="yes"/>
			<point x="938" y="999"/>
			<point x="905" y="989"/>
			<point x="896" y="969" type="curve" smooth="yes"/>
			<point x="566" y="209" type="line"/>
			<point x="235" y="958" type="line" smooth="yes"/>
			<point x="223" y="985"/>
			<point x="179" y="999"/>
			<point x="134" y="999" type="curve" smooth="yes"/>
			<point x="80" y="999"/>
			<point x="25" y="980"/>
			<point x="25" y="948" type="curve" smooth="yes"/>
			<point x="25" y="944"/>
			<point x="26" y="940"/>
			<point x="28" y="935" type="curve" smooth="yes"/>
			<point x="433" y="18" type="line" smooth="yes"/>
			<point x="448" y="-16"/>
			<point x="507" y="-24"/>
		</contour>
	</outline>
</glyph>
<glyph name="w" format="2">
	<unicode hex="0077"/>
	<advance height="2048" width="1641"/>
	<outline>
		<contour>
			<point x="27" y="936" type="line"/>
			<point x="26" y="940"/>
			<point x="25" y="943"/>
			<point x="25" y="947" type="curve" smooth="yes"/>
			<point x="25" y="981"/>
			<point x="84" y="996"/>
			<point x="111" y="999" type="curve"/>
			<point x="118" y="999"/>
			<point x="124" y="999"/>
			<point x="131" y="999" type="curve" smooth="yes"/>
			<point x="162" y="1000"/>
			<point x="221" y="990"/>
			<point x="235" y="957" type="curve" smooth="yes"/>
			<point x="522" y="249" type="line"/>
			<point x="744" y="954" type="line" smooth="yes"/>
			<point x="755" y="990"/>
			<point x="820" y="999"/>
			<point x="852" y="999" type="curve" smooth="yes"/>
			<point x="884" y="999"/>
			<point x="945" y="990"/>
			<point x="956" y="954" type="curve" smooth="yes"/>
			<point x="1170" y="251" type="line"/>
			<point x="1460" y="968" type="line" smooth="yes"/>
			<point x="1470" y="993"/>
			<point x="1514" y="1000"/>
			<point x="1537" y="1000" type="curve" smooth="yes"/>
			<point x="1542" y="1000"/>
			<point x="1547" y="1000"/>
			<point x="1552" y="999" type="curve"/>
			<point x="1572" y="997"/>
			<point x="1616" y="986"/>
			<point x="1616" y="960" type="curve" smooth="yes"/>
			<point x="1616" y="957"/>
			<point x="1616" y="955"/>
			<point x="1614" y="952" type="curve"/>
			<point x="1238" y="21" type="line" smooth="yes"/>
			<point x="1224" y="-14"/>
			<point x="1163" y="-24"/>
			<point x="1129" y="-24" type="curve" smooth="yes"/>
			<point x="1097" y="-24"/>
			<point x="1036" y="-15"/>
			<point x="1025" y="21" type="curve" smooth="yes"/>
			<point x="822" y="692" type="line"/>
			<point x="610" y="23" type="line" smooth="yes"/>
			<point x="599" y="-14"/>
			<point x="536" y="-24"/>
			<point x="503" y="-24" type="curve" smooth="yes"/>
			<point x="470" y="-24"/>
			<point x="413" y="-15"/>
			<point x="399" y="19" type="curve" smooth="yes"/>
		</contour>
	</outline>
</glyph>
<glyph name="x" format="2">
	<unicode hex="0078"/>
	<advance height="2048" width="1046"/>
	<outline>
		<contour>
			<point x="34" y="924" type="line" smooth="yes"/>
			<point x="2" y="963"/>
			<point x="63" y="990"/>
			<point x="95" y="996" type="curve" smooth="yes"/>
			<point x="137" y="1005"/>
			<point x="209" y="1000"/>
			<point x="237" y="967" type="curve" smooth="yes"/>
			<point x="538" y="612" type="line"/>
			<point x="857" y="974" type="line" smooth="yes"/>
			<point x="879" y="999"/>
			<point x="933" y="1003"/>
			<point x="965" y="996" type="curve"/>
			<point x="990" y="992"/>
			<point x="1037" y="970"/>
			<point x="1011" y="941" type="curve" smooth="yes"/>
			<point x="629" y="505" type="line"/>
			<point x="1012" y="53" type="line" smooth="yes"/>
			<point x="1044" y="15"/>
			<point x="983" y="-13"/>
			<point x="951" y="-19" type="curve" smooth="yes"/>
			<point x="911" y="-27"/>
			<point x="838" y="-24"/>
			<point x="809" y="11" type="curve" smooth="yes"/>
			<point x="509" y="365" type="line"/>
			<point x="189" y="2" type="line" smooth="yes"/>
			<point x="167" y="-23"/>
			<point x="113" y="-27"/>
			<point x="81" y="-20" type="curve" smooth="yes"/>
			<point x="56" y="-15"/>
			<point x="9" y="6"/>
			<point x="35" y="35" type="curve" smooth="yes"/>
			<point x="418" y="472" type="line"/>
		</contour>
	</outline>
</glyph>
<glyph name="y" format="2">
	<unicode hex="0079"/>
	<advance height="2048" width="1010"/>
	<outline>
		<contour>
			<point x="985" y="33" type="line"/>
			<point x="980" y="-257"/>
			<point x="782" y="-391"/>
			<point x="508" y="-400" type="curve" smooth="yes"/>
			<point x="344" y="-406"/>
			<point x="130" y="-360"/>
			<point x="32" y="-217" type="curve" smooth="yes"/>
			<point x="28" y="-211"/>
			<point x="25" y="-204"/>
			<point x="25" y="-197" type="curve" smooth="yes"/>
			<point x="25" y="-166"/>
			<point x="65" y="-150"/>
			<point x="90" y="-144" type="curve"/>
			<point x="102" y="-142"/>
			<point x="113" y="-141"/>
			<point x="125" y="-141" type="curve" smooth="yes"/>
			<point x="156" y="-141"/>
			<point x="202" y="-150"/>
			<point x="221" y="-177" type="curve" smooth="yes"/>
			<point x="281" y="-264"/>
			<point x="397" y="-292"/>
			<point x="496" y="-289" type="curve" smooth="yes"/>
			<point x="699" y="-282"/>
			<point x="782" y="-155"/>
			<point x="782" y="44" type="curve" smooth="yes"/>
			<point x="782" y="97" type="line"/>
			<point x="709" y="11"/>
			<point x="603" y="-19"/>
			<point x="505" y="-19" type="curve" smooth="yes"/>
			<point x="229" y="-19"/>
			<point x="25" y="155"/>
			<point x="25" y="430" type="curve" smooth="yes"/>
			<point x="25" y="949" type="line" smooth="yes"/>
			<point x="25" y="991"/>
			<point x="94" y="1005"/>
			<point x="127" y="1005" type="curve" smooth="yes"/>
			<point x="159" y="1005"/>
			<point x="228" y="991"/>
			<point x="228" y="949" type="curve" smooth="yes"/>
			<point x="228" y="430" type="line" smooth="yes"/>
			<point x="228" y="269"/>
			<point x="320" y="92"/>
			<point x="505" y="92" type="curve" smooth="yes"/>
			<point x="683" y="92"/>
			<point x="782" y="270"/>
			<point x="782" y="428" type="curve" smooth="yes"/>
			<point x="782" y="949" type="line" smooth="yes"/>
			<point x="782" y="991"/>
			<point x="851" y="1005"/>
			<point x="883" y="1005" type="curve" smooth="yes"/>
			<point x="916" y="1005"/>
			<point x="985" y="991"/>
			<point x="985" y="949" type="curve" smooth="yes"/>
		</contour>
	</outline>
</glyph>
<glyph name="z" format="2">
	<unicode hex="007A"/>
	<advance height="2048" width="1049"/>
	<outline>
		<contour>
			<point x="150" y="865" type="line" smooth="yes"/>
			<point x="118" y="865"/>
			<point x="49" y="879"/>
			<point x="49" y="920" type="curve" smooth="yes"/>
			<point x="49" y="962"/>
			<point x="118" y="976"/>
			<point x="150" y="976" type="curve" smooth="yes"/>
			<point x="910" y="976" type="line" smooth="yes"/>
			<point x="936" y="976"/>
			<point x="967" y="969"/>
			<point x="990" y="958" type="curve" smooth="yes"/>
			<point x="1015" y="945"/>
			<point x="1036" y="921"/>
			<point x="1013" y="896" type="curve" smooth="yes"/>
			<point x="304" y="111" type="line"/>
			<point x="922" y="111" type="line" smooth="yes"/>
			<point x="955" y="111"/>
			<point x="1024" y="97"/>
			<point x="1024" y="55" type="curve" smooth="yes"/>
			<point x="1024" y="14"/>
			<point x="955" y="0"/>
			<point x="922" y="0" type="curve" smooth="yes"/>
			<point x="142" y="0" type="line" smooth="yes"/>
			<point x="118" y="0"/>
			<point x="80" y="7"/>
			<point x="58" y="18" type="curve" smooth="yes"/>
			<point x="33" y="30"/>
			<point x="12" y="54"/>
			<point x="35" y="80" type="curve" smooth="yes"/>
			<point x="744" y="865" type="line"/>
		</contour>
	</outline>
</glyph>
<glyph name="braceleft" format="2">
	<unicode hex="007B"/>
	<advance height="2048" width="688"/>
	<outline>
		<contour>
			<point x="149" y="575" type="curve" smooth="yes"/>
			<point x="235" y="575"/>
			<point x="220" y="696"/>
			<point x="220" y="754" type="curve" smooth="yes"/>
			<point x="220" y="1218" type="line" smooth="yes"/>
			<point x="220" y="1266"/>
			<point x="242" y="1310"/>
			<point x="277" y="1343" type="curve" smooth="yes"/>
			<point x="354" y="1414"/>
			<point x="440" y="1410"/>
			<point x="538" y="1410" type="curve" smooth="yes"/>
			<point x="570" y="1410"/>
			<point x="638" y="1396"/>
			<point x="638" y="1355" type="curve" smooth="yes"/>
			<point x="638" y="1313"/>
			<point x="570" y="1299"/>
			<point x="538" y="1299" type="curve" smooth="yes"/>
			<point x="509" y="1299"/>
			<point x="471" y="1307"/>
			<point x="448" y="1286" type="curve" smooth="yes"/>
			<point x="429" y="1269"/>
			<point x="420" y="1244"/>
			<point x="420" y="1218" type="curve" smooth="yes"/>
			<point x="420" y="754" type="line" smooth="yes"/>
			<point x="420" y="681"/>
			<point x="422" y="566"/>
			<point x="353" y="520" type="curve"/>
			<point x="422" y="474"/>
			<point x="420" y="359"/>
			<point x="420" y="286" type="curve" smooth="yes"/>
			<point x="420" y="-178" type="line" smooth="yes"/>
			<point x="420" y="-204"/>
			<point x="429" y="-229"/>
			<point x="448" y="-246" type="curve" smooth="yes"/>
			<point x="471" y="-267"/>
			<point x="509" y="-259"/>
			<point x="538" y="-259" type="curve" smooth="yes"/>
			<point x="570" y="-259"/>
			<point x="638" y="-273"/>
			<point x="638" y="-315" type="curve" smooth="yes"/>
			<point x="638" y="-356"/>
			<point x="570" y="-370"/>
			<point x="538" y="-370" type="curve" smooth="yes"/>
			<point x="440" y="-370"/>
			<point x="354" y="-374"/>
			<point x="277" y="-303" type="curve" smooth="yes"/>
			<point x="242" y="-270"/>
			<point x="220" y="-226"/>
			<point x="220" y="-178" type="curve" smooth="yes"/>
			<point x="220" y="286" type="line" smooth="yes"/>
			<point x="220" y="344"/>
			<point x="235" y="465"/>
			<point x="149" y="465" type="curve" smooth="yes"/>
			<point x="83" y="465"/>
			<point x="50" y="492"/>
			<point x="50" y="520" type="curve" smooth="yes"/>
			<point x="50" y="547"/>
			<point x="83" y="575"/>
		</contour>
	</outline>
</glyph>
<glyph name="bar" format="2">
  <advance height="2048" width="355.0"/>
  <unicode hex="007C"/>
  <outline>
    <contour>
      <point x="178.0" y="-430.0" type="curve" smooth="yes"/>
      <point x="200.0" y="-430.0"/>
      <point x="255.0" y="-421.0"/>
      <point x="255.0" y="-391.0" type="curve" smooth="yes"/>
      <point x="255.0" y="1311.0" type="line" smooth="yes"/>
      <point x="255.0" y="1341.0"/>
      <point x="200.0" y="1350.0"/>
      <point x="178.0" y="1350.0" type="curve" smooth="yes"/>
      <point x="155.0" y="1350.0"/>
      <point x="100.0" y="1341.0"/>
      <point x="100.0" y="1311.0" type="curve" smooth="yes"/>
      <point x="100.0" y="-391.0" type="line" smooth="yes"/>
      <point x="100.0" y="-421.0"/>
      <point x="155.0" y="-430.0"/>
    </contour>
  </outline>
</glyph>
<glyph name="asciitilde" format="2">
	<unicode hex="007E"/>
	<advance height="2048" width="1315"/>
	<outline>
		<contour>
			<point x="302" y="1123" type="curve" smooth="yes"/>
			<point x="297" y="1084"/>
			<point x="228" y="1072"/>
			<point x="195" y="1073" type="curve" smooth="yes"/>
			<point x="164" y="1075"/>
			<point x="100" y="1089"/>
			<point x="100" y="1127" type="curve" smooth="yes"/>
			<point x="101" y="1201"/>
			<point x="132" y="1273"/>
			<point x="186" y="1326" type="curve" smooth="yes"/>
			<point x="241" y="1381"/>
			<point x="315" y="1412"/>
			<point x="395" y="1415" type="curve" smooth="yes"/>
			<point x="547" y="1421"/>
			<point x="631" y="1361"/>
			<point x="737" y="1270" type="curve" smooth="yes"/>
			<point x="779" y="1234"/>
			<point x="851" y="1168"/>
			<point x="910" y="1167" type="curve" smooth="yes"/>
			<point x="972" y="1165"/>
			<point x="1008" y="1322"/>
			<point x="1013" y="1366" type="curve" smooth="yes"/>
			<point x="1017" y="1405"/>
			<point x="1086" y="1417"/>
			<point x="1120" y="1416" type="curve" smooth="yes"/>
			<point x="1151" y="1415"/>
			<point x="1215" y="1401"/>
			<point x="1215" y="1363" type="curve" smooth="yes"/>
			<point x="1215" y="1303"/>
			<point x="1180" y="1206"/>
			<point x="1142" y="1158" type="curve" smooth="yes"/>
			<point x="1084" y="1085"/>
			<point x="997" y="1058"/>
			<point x="902" y="1060" type="curve" smooth="yes"/>
			<point x="740" y="1064"/>
			<point x="652" y="1139"/>
			<point x="565" y="1214" type="curve" smooth="yes"/>
			<point x="531" y="1243"/>
			<point x="457" y="1311"/>
			<point x="409" y="1309" type="curve" smooth="yes"/>
			<point x="347" y="1306"/>
			<point x="308" y="1168"/>
		</contour>
	</outline>
</glyph>
<glyph name="cent" format="2">
	<unicode hex="00A2"/>
	<advance height="2048" width="1224"/>
	<outline>
		<contour>
			<point x="634.107" y="166.767" type="line"/>
			<point x="831.537" y="166.767"/>
			<point x="1072.072" y="265.288"/>
			<point x="1120.114" y="471.461" type="curve" smooth="yes"/>
			<point x="1121.505" y="477.429"/>
			<point x="1124" y="486.117"/>
			<point x="1124" y="491.808" type="curve" smooth="yes"/>
			<point x="1124" y="532.688"/>
			<point x="1053.127" y="546.685"/>
			<point x="1022.022" y="546.685" type="curve" smooth="yes"/>
			<point x="990.029" y="546.685"/>
			<point x="927.687" y="533.865"/>
			<point x="920.933" y="496.696" type="curve" smooth="yes"/>
			<point x="897.693" y="368.788"/>
			<point x="766.967" y="277.854"/>
			<point x="638.106" y="277.854" type="curve" smooth="yes"/>
			<point x="602.178" y="277.854"/>
			<point x="569.222" y="282.788"/>
			<point x="539.176" y="291.861" type="curve"/>
			<point x="828.21" y="1016.454" type="line"/>
			<point x="876.034" y="978.664"/>
			<point x="909.724" y="925.509"/>
			<point x="918.934" y="861.728" type="curve" smooth="yes"/>
			<point x="924.43" y="823.661"/>
			<point x="988.03" y="810.85"/>
			<point x="1020.023" y="810.85" type="curve" smooth="yes"/>
			<point x="1052.016" y="810.85"/>
			<point x="1121.112" y="825.736"/>
			<point x="1121.112" y="865.727" type="curve" smooth="yes"/>
			<point x="1121.112" y="871.601"/>
			<point x="1120.412" y="875.994"/>
			<point x="1119.396" y="881.797" type="curve" smooth="yes"/>
			<point x="1096.997" y="1009.807"/>
			<point x="998.103" y="1096.779"/>
			<point x="879.505" y="1145.047" type="curve"/>
			<point x="952.511" y="1328.07" type="line" smooth="yes"/>
			<point x="954.129" y="1332.126"/>
			<point x="956.482" y="1337.615"/>
			<point x="956.482" y="1341.897" type="curve" smooth="yes"/>
			<point x="956.482" y="1371.537"/>
			<point x="900.524" y="1380"/>
			<point x="876.499" y="1380" type="curve" smooth="yes"/>
			<point x="847.394" y="1380"/>
			<point x="807.294" y="1372.704"/>
			<point x="797.405" y="1347.896" type="curve" smooth="yes"/>
			<point x="732.231" y="1184.404" type="line"/>
			<point x="702.44" y="1188.648"/>
			<point x="672.808" y="1190.768"/>
			<point x="644.104" y="1190.768" type="curve" smooth="yes"/>
			<point x="330.45" y="1190.768"/>
			<point x="100" y="998.103"/>
			<point x="100" y="674.879" type="curve" smooth="yes"/>
			<point x="100" y="462.417"/>
			<point x="196.265" y="309.199"/>
			<point x="351.565" y="229.487" type="curve"/>
			<point x="270.923" y="27.195" type="line" smooth="yes"/>
			<point x="269.295" y="23.111"/>
			<point x="267.526" y="19.577"/>
			<point x="267.519" y="15.073" type="curve" smooth="yes"/>
			<point x="267.484" y="-9.222"/>
			<point x="309.744" y="-23.465"/>
			<point x="351.08" y="-23.465" type="curve" smooth="yes"/>
			<point x="385.142" y="-23.465"/>
			<point x="417.55" y="-13.046"/>
			<point x="426.374" y="9.075" type="curve" smooth="yes"/>
			<point x="494.636" y="180.204" type="line"/>
			<point x="538.559" y="171.31"/>
			<point x="585.214" y="166.767"/>
			<point x="634.107" y="166.767" type="curve"/>
		</contour>
		<contour>
			<point x="408.737" y="372.907" type="line"/>
			<point x="337.607" y="448.417"/>
			<point x="302.179" y="559.794"/>
			<point x="301.956" y="672.88" type="curve" smooth="yes"/>
			<point x="301.551" y="878.171"/>
			<point x="416.152" y="1079.681"/>
			<point x="642.993" y="1079.681" type="curve" smooth="yes"/>
			<point x="658.47" y="1079.681"/>
			<point x="673.884" y="1078.468"/>
			<point x="689.071" y="1076.136" type="curve"/>
			<point x="408.737" y="372.907" type="line"/>
		</contour>
	</outline>
</glyph>
<glyph name="pound" format="2">
	<unicode hex="00A3"/>
	<advance height="2048" width="1275"/>
	<outline>
		<contour>
			<point x="1125" y="1021" type="curve"/>
			<point x="1126" y="1018"/>
			<point x="1126" y="1016"/>
			<point x="1126" y="1014" type="curve" smooth="yes"/>
			<point x="1126" y="973"/>
			<point x="1054" y="959"/>
			<point x="1023" y="959" type="curve" smooth="yes"/>
			<point x="993" y="959"/>
			<point x="931" y="971"/>
			<point x="924" y="1009" type="curve" smooth="yes"/>
			<point x="901" y="1124"/>
			<point x="826" y="1267"/>
			<point x="690" y="1269" type="curve" smooth="yes"/>
			<point x="540" y="1272"/>
			<point x="431" y="1123"/>
			<point x="431" y="985" type="curve" smooth="yes"/>
			<point x="431" y="896"/>
			<point x="460" y="810"/>
			<point x="488" y="726" type="curve"/>
			<point x="790" y="726" type="line" smooth="yes"/>
			<point x="822" y="726"/>
			<point x="891" y="712"/>
			<point x="891" y="670" type="curve" smooth="yes"/>
			<point x="891" y="628"/>
			<point x="822" y="614"/>
			<point x="790" y="614" type="curve" smooth="yes"/>
			<point x="522" y="614" type="line"/>
			<point x="535" y="565"/>
			<point x="544" y="515"/>
			<point x="544" y="464" type="curve" smooth="yes"/>
			<point x="544" y="355"/>
			<point x="503" y="262"/>
			<point x="436" y="177" type="curve"/>
			<point x="451" y="178"/>
			<point x="466" y="178"/>
			<point x="481" y="178" type="curve" smooth="yes"/>
			<point x="629" y="179"/>
			<point x="757" y="96"/>
			<point x="889" y="99" type="curve" smooth="yes"/>
			<point x="947" y="101"/>
			<point x="1003" y="120"/>
			<point x="1054" y="147" type="curve" smooth="yes"/>
			<point x="1075" y="158"/>
			<point x="1101" y="163"/>
			<point x="1124" y="163" type="curve" smooth="yes"/>
			<point x="1148" y="163"/>
			<point x="1176" y="158"/>
			<point x="1197" y="145" type="curve" smooth="yes"/>
			<point x="1211" y="137"/>
			<point x="1225" y="124"/>
			<point x="1225" y="107" type="curve" smooth="yes"/>
			<point x="1225" y="88"/>
			<point x="1209" y="74"/>
			<point x="1194" y="66" type="curve" smooth="yes"/>
			<point x="1101" y="17"/>
			<point x="1002" y="-15"/>
			<point x="895" y="-17" type="curve" smooth="yes"/>
			<point x="738" y="-20"/>
			<point x="611" y="67"/>
			<point x="483" y="67" type="curve" smooth="yes"/>
			<point x="400" y="66"/>
			<point x="317" y="33"/>
			<point x="245" y="-6" type="curve" smooth="yes"/>
			<point x="224" y="-18"/>
			<point x="197" y="-24"/>
			<point x="172" y="-24" type="curve" smooth="yes"/>
			<point x="152" y="-24"/>
			<point x="132" y="-21"/>
			<point x="113" y="-14" type="curve" smooth="yes"/>
			<point x="94" y="-6"/>
			<point x="70" y="9"/>
			<point x="70" y="32" type="curve" smooth="yes"/>
			<point x="70" y="45"/>
			<point x="78" y="56"/>
			<point x="88" y="64" type="curve" smooth="yes"/>
			<point x="217" y="165"/>
			<point x="342" y="294"/>
			<point x="342" y="466" type="curve" smooth="yes"/>
			<point x="341" y="516"/>
			<point x="331" y="566"/>
			<point x="317" y="614" type="curve"/>
			<point x="151" y="614" type="line" smooth="yes"/>
			<point x="119" y="614"/>
			<point x="50" y="628"/>
			<point x="50" y="670" type="curve" smooth="yes"/>
			<point x="50" y="712"/>
			<point x="119" y="726"/>
			<point x="151" y="726" type="curve" smooth="yes"/>
			<point x="282" y="726" type="line"/>
			<point x="254" y="811"/>
			<point x="229" y="895"/>
			<point x="229" y="986" type="curve" smooth="yes"/>
			<point x="229" y="1233"/>
			<point x="458" y="1381"/>
			<point x="691" y="1381" type="curve" smooth="yes"/>
			<point x="923" y="1381"/>
			<point x="1081" y="1242"/>
		</contour>
	</outline>
</glyph>
<glyph name="currency" format="2">
	<unicode hex="00A4"/>
	<advance height="2048" width="967"/>
	<outline>
		<contour>
			<point x="482.945" y="110.018" type="line"/>
			<point x="370.993" y="110.018"/>
			<point x="316.128" y="223.969"/>
			<point x="316.128" y="323.925" type="curve" smooth="yes"/>
			<point x="316.128" y="422.994"/>
			<point x="370.993" y="530.058"/>
			<point x="482.945" y="530.058" type="curve" smooth="yes"/>
			<point x="596.007" y="530.058"/>
			<point x="649.983" y="422.994"/>
			<point x="649.983" y="323.925" type="curve" smooth="yes"/>
			<point x="649.983" y="223.969"/>
			<point x="596.007" y="110.018"/>
			<point x="482.945" y="110.018" type="curve"/>
		</contour>
		<contour>
			<point x="777.928" y="-23.924" type="curve" smooth="yes"/>
			<point x="793.032" y="-23.924"/>
			<point x="807.957" y="-22.06"/>
			<point x="821.02" y="-17.926" type="curve" smooth="yes"/>
			<point x="843.053" y="-10.954"/>
			<point x="867" y="6.063"/>
			<point x="867" y="26.055" type="curve" smooth="yes"/>
			<point x="867" y="34.052"/>
			<point x="863.001" y="42.048"/>
			<point x="855.005" y="50.044" type="curve" smooth="yes"/>
			<point x="767.932" y="137.118" type="line"/>
			<point x="807.915" y="189.984"/>
			<point x="829.017" y="257.954"/>
			<point x="829.017" y="323.925" type="curve" smooth="yes"/>
			<point x="829.017" y="389.897"/>
			<point x="807.915" y="450.981"/>
			<point x="767.932" y="504.069" type="curve"/>
			<point x="855.005" y="590.032" type="line" smooth="yes"/>
			<point x="863.053" y="597.977"/>
			<point x="867" y="606.025"/>
			<point x="867" y="614.022" type="curve" smooth="yes"/>
			<point x="867" y="634.013"/>
			<point x="843.053" y="651.03"/>
			<point x="821.02" y="658.003" type="curve" smooth="yes"/>
			<point x="807.957" y="662.136"/>
			<point x="793.032" y="664"/>
			<point x="777.928" y="664" type="curve" smooth="yes"/>
			<point x="749.051" y="664"/>
			<point x="719.108" y="656.847"/>
			<point x="701.072" y="638.9" type="curve" smooth="yes"/>
			<point x="655.981" y="594.03" type="line"/>
			<point x="602.004" y="618.908"/>
			<point x="542.03" y="628.904"/>
			<point x="482.945" y="628.904" type="curve" smooth="yes"/>
			<point x="424.081" y="628.904"/>
			<point x="364.996" y="618.908"/>
			<point x="311.019" y="594.03" type="curve"/>
			<point x="266.15" y="638.9" type="line" smooth="yes"/>
			<point x="248.158" y="656.892"/>
			<point x="218.171" y="664"/>
			<point x="189.072" y="664" type="curve" smooth="yes"/>
			<point x="173.079" y="664"/>
			<point x="158.227" y="661.907"/>
			<point x="146.202" y="658.003" type="curve" smooth="yes"/>
			<point x="124.02" y="650.801"/>
			<point x="100" y="634.013"/>
			<point x="100" y="614.022" type="curve" smooth="yes"/>
			<point x="100" y="606.913"/>
			<point x="103.988" y="598.018"/>
			<point x="111.995" y="590.032" type="curve" smooth="yes"/>
			<point x="198.18" y="504.069" type="line"/>
			<point x="159.085" y="452.092"/>
			<point x="138.206" y="387.898"/>
			<point x="138.206" y="323.925" type="curve" smooth="yes"/>
			<point x="138.206" y="255.368"/>
			<point x="156.698" y="192.269"/>
			<point x="198.18" y="137.118" type="curve"/>
			<point x="111.995" y="50.044" type="line" smooth="yes"/>
			<point x="104.04" y="42.007"/>
			<point x="100" y="33.163"/>
			<point x="100" y="26.055" type="curve" smooth="yes"/>
			<point x="100" y="6.063"/>
			<point x="124.02" y="-10.724"/>
			<point x="146.202" y="-17.926" type="curve" smooth="yes"/>
			<point x="158.227" y="-21.83"/>
			<point x="173.079" y="-23.924"/>
			<point x="189.072" y="-23.924" type="curve" smooth="yes"/>
			<point x="218.171" y="-23.924"/>
			<point x="248.046" y="-16.927"/>
			<point x="266.15" y="1.177" type="curve" smooth="yes"/>
			<point x="311.019" y="46.046" type="line"/>
			<point x="364.996" y="21.168"/>
			<point x="424.081" y="11.172"/>
			<point x="482.945" y="11.172" type="curve" smooth="yes"/>
			<point x="542.03" y="11.172"/>
			<point x="602.004" y="21.168"/>
			<point x="655.981" y="46.046" type="curve"/>
			<point x="701.072" y="1.177" type="line" smooth="yes"/>
			<point x="719.22" y="-16.882"/>
			<point x="749.051" y="-23.924"/>
		</contour>
	</outline>
</glyph>
<glyph name="yen" format="2">
	<unicode hex="00A5"/>
	<advance height="2048" width="1106"/>
	<outline>
		<contour>
			<point x="655" y="31" type="line" smooth="yes"/>
			<point x="655" y="-11"/>
			<point x="585" y="-24"/>
			<point x="553" y="-24" type="curve" smooth="yes"/>
			<point x="525" y="-24"/>
			<point x="500" y="-18"/>
			<point x="482" y="-8" type="curve" smooth="yes"/>
			<point x="463" y="2"/>
			<point x="452" y="16"/>
			<point x="452" y="31" type="curve" smooth="yes"/>
			<point x="452" y="365" type="line"/>
			<point x="190" y="365" type="line" smooth="yes"/>
			<point x="134" y="365"/>
			<point x="88" y="390"/>
			<point x="88" y="422" type="curve" smooth="yes"/>
			<point x="88" y="453"/>
			<point x="134" y="479"/>
			<point x="190" y="479" type="curve" smooth="yes"/>
			<point x="452" y="479" type="line"/>
			<point x="452" y="627" type="line"/>
			<point x="190" y="627" type="line" smooth="yes"/>
			<point x="134" y="627"/>
			<point x="88" y="653"/>
			<point x="88" y="684" type="curve" smooth="yes"/>
			<point x="88" y="715"/>
			<point x="134" y="741"/>
			<point x="190" y="741" type="curve" smooth="yes"/>
			<point x="393" y="741" type="line"/>
			<point x="58" y="1306" type="line" smooth="yes"/>
			<point x="54" y="1313"/>
			<point x="50" y="1319"/>
			<point x="50" y="1327" type="curve" smooth="yes"/>
			<point x="50" y="1365"/>
			<point x="129" y="1381"/>
			<point x="158" y="1381" type="curve" smooth="yes"/>
			<point x="191" y="1381"/>
			<point x="247" y="1376"/>
			<point x="264" y="1345" type="curve" smooth="yes"/>
			<point x="580" y="781" type="line"/>
			<point x="894" y="1353" type="line" smooth="yes"/>
			<point x="910" y="1383"/>
			<point x="969" y="1384"/>
			<point x="1000" y="1378" type="curve" smooth="yes"/>
			<point x="1020" y="1375"/>
			<point x="1056" y="1362"/>
			<point x="1056" y="1338" type="curve" smooth="yes"/>
			<point x="1056" y="1333"/>
			<point x="1053" y="1328"/>
			<point x="1051" y="1323" type="curve"/>
			<point x="713" y="741" type="line"/>
			<point x="916" y="741" type="line" smooth="yes"/>
			<point x="972" y="741"/>
			<point x="1018" y="715"/>
			<point x="1018" y="684" type="curve" smooth="yes"/>
			<point x="1018" y="653"/>
			<point x="972" y="627"/>
			<point x="916" y="627" type="curve" smooth="yes"/>
			<point x="655" y="627" type="line"/>
			<point x="655" y="479" type="line"/>
			<point x="916" y="479" type="line" smooth="yes"/>
			<point x="972" y="479"/>
			<point x="1018" y="453"/>
			<point x="1018" y="422" type="curve" smooth="yes"/>
			<point x="1018" y="390"/>
			<point x="972" y="365"/>
			<point x="916" y="365" type="curve" smooth="yes"/>
			<point x="655" y="365" type="line"/>
		</contour>
	</outline>
</glyph>
<glyph name="brokenbar" format="2">
	<unicode hex="00A6"/>
	<advance height="2048" width="355"/>
	<outline>
		<contour>
			<point x="177.944" y="-24.001" type="curve" smooth="yes"/>
			<point x="199.928" y="-24.001"/>
			<point x="255" y="-15.113"/>
			<point x="255" y="14.883" type="curve" smooth="yes"/>
			<point x="255" y="707.546" type="line"/>
			<point x="100" y="707.546" type="line"/>
			<point x="100" y="14.883" type="line" smooth="yes"/>
			<point x="100" y="-15.113"/>
			<point x="155.071" y="-24.001"/>
		</contour>
		<contour>
			<point x="255" y="1024.454" type="line"/>
			<point x="255" y="1717.116" type="line" smooth="yes"/>
			<point x="255" y="1747.112"/>
			<point x="199.928" y="1756"/>
			<point x="177.944" y="1756" type="curve" smooth="yes"/>
			<point x="155.071" y="1756"/>
			<point x="100" y="1747.112"/>
			<point x="100" y="1717.116" type="curve" smooth="yes"/>
			<point x="100" y="1024.454" type="line"/>
		</contour>
	</outline>
</glyph>
<glyph name="section" format="2">
	<unicode hex="00A7"/>
	<advance height="2048" width="1192"/>
	<outline>
		<contour>
			<point x="861.742" y="682.464" type="line"/>
			<point x="879.501" y="718.863"/>
			<point x="889.566" y="758.794"/>
			<point x="889.566" y="799.553" type="curve" smooth="yes"/>
			<point x="889.566" y="852.357"/>
			<point x="870.241" y="899.59"/>
			<point x="829.187" y="934.138" type="curve" smooth="yes"/>
			<point x="772.139" y="982.161"/>
			<point x="688.873" y="1000.304"/>
			<point x="616.79" y="1013.377" type="curve" smooth="yes"/>
			<point x="530.716" y="1028.986"/>
			<point x="448.2" y="1038.216"/>
			<point x="362.989" y="1086.295" type="curve"/>
			<point x="341.782" y="1051.153"/>
			<point x="329.675" y="1011.128"/>
			<point x="329.675" y="968.993" type="curve" smooth="yes"/>
			<point x="329.675" y="914.489"/>
			<point x="351.668" y="869.011"/>
			<point x="394.428" y="835.049" type="curve" smooth="yes"/>
			<point x="453.371" y="788.236"/>
			<point x="536.74" y="770.336"/>
			<point x="620.21" y="754.643" type="curve" smooth="yes"/>
			<point x="710.175" y="737.727"/>
			<point x="787.828" y="724.028"/>
			<point x="861.742" y="682.464" type="curve"/>
		</contour>
		<contour>
			<point x="242.464" y="1185.627" type="line"/>
			<point x="195.13" y="1243.514"/>
			<point x="167.305" y="1314.485"/>
			<point x="167.305" y="1391.056" type="curve" smooth="yes"/>
			<point x="167.305" y="1626.71"/>
			<point x="408.495" y="1756"/>
			<point x="622.722" y="1756" type="curve" smooth="yes"/>
			<point x="843.073" y="1756"/>
			<point x="1009.097" y="1645.677"/>
			<point x="1060.461" y="1429.384" type="curve" smooth="yes"/>
			<point x="1061.353" y="1425.628"/>
			<point x="1062.697" y="1420.232"/>
			<point x="1062.697" y="1416.445" type="curve" smooth="yes"/>
			<point x="1062.697" y="1373.574"/>
			<point x="991.846" y="1361.712"/>
			<point x="959.419" y="1361.712" type="curve" smooth="yes"/>
			<point x="923.966" y="1361.712"/>
			<point x="868.397" y="1371.778"/>
			<point x="860.092" y="1412.845" type="curve" smooth="yes"/>
			<point x="836.02" y="1531.94"/>
			<point x="754.377" y="1643.502"/>
			<point x="621.186" y="1643.502" type="curve" smooth="yes"/>
			<point x="490.578" y="1643.502"/>
			<point x="370.77" y="1530.628"/>
			<point x="370.77" y="1400.197" type="curve" smooth="yes"/>
			<point x="370.77" y="1343.666"/>
			<point x="394.139" y="1298.093"/>
			<point x="438.583" y="1263.86" type="curve" smooth="yes"/>
			<point x="497.155" y="1218.737"/>
			<point x="579.826" y="1201.203"/>
			<point x="662.514" y="1185.656" type="curve" smooth="yes"/>
			<point x="778.897" y="1163.772"/>
			<point x="874.672" y="1146.99"/>
			<point x="968.359" y="1068.09" type="curve" smooth="yes"/>
			<point x="1046.636" y="1002.167"/>
			<point x="1091" y="910.761"/>
			<point x="1091" y="808.694" type="curve" smooth="yes"/>
			<point x="1091" y="706.837"/>
			<point x="1051.775" y="631.893"/>
			<point x="986.507" y="573.794" type="curve"/>
			<point x="1027.941" y="517.311"/>
			<point x="1050.906" y="450.1"/>
			<point x="1050.906" y="377.49" type="curve" smooth="yes"/>
			<point x="1050.906" y="127.097"/>
			<point x="811.166" y="-24"/>
			<point x="576.999" y="-24" type="curve" smooth="yes"/>
			<point x="337.711" y="-24"/>
			<point x="157.507" y="109.831"/>
			<point x="102.868" y="341.598" type="curve" smooth="yes"/>
			<point x="101.534" y="347.261"/>
			<point x="99" y="354.445"/>
			<point x="99" y="360.224" type="curve" smooth="yes"/>
			<point x="99" y="402.858"/>
			<point x="171.145" y="414.437"/>
			<point x="203.279" y="414.437" type="curve" smooth="yes"/>
			<point x="238.579" y="414.437"/>
			<point x="293.598" y="404.631"/>
			<point x="302.605" y="364.114" type="curve" smooth="yes"/>
			<point x="332.829" y="228.408"/>
			<point x="421.427" y="88.477"/>
			<point x="577.503" y="88.477" type="curve" smooth="yes"/>
			<point x="723.463" y="88.477"/>
			<point x="848.471" y="227.089"/>
			<point x="848.471" y="368.348" type="curve" smooth="yes"/>
			<point x="848.471" y="421.152"/>
			<point x="829.146" y="468.385"/>
			<point x="788.093" y="502.934" type="curve" smooth="yes"/>
			<point x="731.413" y="550.646"/>
			<point x="648.921" y="568.831"/>
			<point x="577.294" y="581.881" type="curve" smooth="yes"/>
			<point x="466.976" y="601.98"/>
			<point x="362.56" y="611.14"/>
			<point x="250.904" y="704.463" type="curve" smooth="yes"/>
			<point x="174.012" y="768.731"/>
			<point x="126.21" y="859.483"/>
			<point x="126.21" y="959.851" type="curve" smooth="yes"/>
			<point x="126.21" y="1061.801"/>
			<point x="171.915" y="1133.178"/>
			<point x="242.464" y="1185.627" type="curve"/>
		</contour>
	</outline>
</glyph>
<glyph name="dieresis" format="2">
  <advance height="2048" width="629.0"/>
  <unicode hex="00A8"/>
  <outline>
    <contour>
      <point x="447.0" y="1285.0" type="curve" smooth="yes"/>
      <point x="393.0" y="1285.0"/>
      <point x="344.0" y="1244.0"/>
      <point x="344.0" y="1182.0" type="curve" smooth="yes"/>
      <point x="344.0" y="1121.0"/>
      <point x="393.0" y="1080.0"/>
      <point x="447.0" y="1080.0" type="curve" smooth="yes"/>
      <point x="500.0" y="1080.0"/>
      <point x="549.0" y="1121.0"/>
      <point x="549.0" y="1182.0" type="curve" smooth="yes"/>
      <point x="549.0" y="1244.0"/>
      <point x="500.0" y="1285.0"/>
    </contour>
    <contour>
      <point x="183.0" y="1285.0" type="curve" smooth="yes"/>
      <point x="129.0" y="1285.0"/>
      <point x="80.0" y="1244.0"/>
      <point x="80.0" y="1182.0" type="curve" smooth="yes"/>
      <point x="80.0" y="1121.0"/>
      <point x="129.0" y="1080.0"/>
      <point x="183.0" y="1080.0" type="curve" smooth="yes"/>
      <point x="236.0" y="1080.0"/>
      <point x="285.0" y="1121.0"/>
      <point x="285.0" y="1182.0" type="curve" smooth="yes"/>
      <point x="285.0" y="1244.0"/>
      <point x="236.0" y="1285.0"/>
    </contour>
  </outline>
</glyph>
<glyph name="copyright" format="2">
	<unicode hex="00A9"/>
	<advance height="2048" width="1323"/>
	<outline>
		<contour>
			<point x="966" y="613" type="curve" smooth="yes"/>
			<point x="969" y="589"/>
			<point x="931" y="580"/>
			<point x="914" y="580" type="curve"/>
			<point x="895" y="579"/>
			<point x="856" y="585"/>
			<point x="853" y="609" type="curve" smooth="yes"/>
			<point x="842" y="695"/>
			<point x="764" y="757"/>
			<point x="678" y="756" type="curve" smooth="yes"/>
			<point x="534" y="754"/>
			<point x="467" y="612"/>
			<point x="469" y="484" type="curve" smooth="yes"/>
			<point x="469" y="414"/>
			<point x="489" y="341"/>
			<point x="531" y="289" type="curve" smooth="yes"/>
			<point x="564" y="247"/>
			<point x="612" y="220"/>
			<point x="676" y="220" type="curve" smooth="yes"/>
			<point x="718" y="221"/>
			<point x="759" y="237"/>
			<point x="791" y="263" type="curve" smooth="yes"/>
			<point x="824" y="289"/>
			<point x="847" y="326"/>
			<point x="855" y="368" type="curve"/>
			<point x="858" y="391"/>
			<point x="897" y="397"/>
			<point x="916" y="396" type="curve" smooth="yes"/>
			<point x="933" y="395"/>
			<point x="971" y="386"/>
			<point x="967" y="362" type="curve" smooth="yes"/>
			<point x="957" y="301"/>
			<point x="921" y="253"/>
			<point x="873" y="219" type="curve" smooth="yes"/>
			<point x="817" y="179"/>
			<point x="745" y="158"/>
			<point x="677" y="158" type="curve" smooth="yes"/>
			<point x="574" y="158"/>
			<point x="494" y="192"/>
			<point x="439" y="250" type="curve" smooth="yes"/>
			<point x="385" y="307"/>
			<point x="356" y="388"/>
			<point x="356" y="483" type="curve" smooth="yes"/>
			<point x="354" y="681"/>
			<point x="474" y="815"/>
			<point x="676" y="818" type="curve" smooth="yes"/>
			<point x="802" y="820"/>
			<point x="948" y="751"/>
		</contour>
		<contour>
			<point x="1223" y="488" type="curve" smooth="yes"/>
			<point x="1223" y="167"/>
			<point x="968" y="-24"/>
			<point x="662" y="-24" type="curve" smooth="yes"/>
			<point x="355" y="-24"/>
			<point x="100" y="167"/>
			<point x="100" y="488" type="curve" smooth="yes"/>
			<point x="100" y="809"/>
			<point x="355" y="1000"/>
			<point x="662" y="1000" type="curve" smooth="yes"/>
			<point x="968" y="1000"/>
			<point x="1223" y="809"/>
		</contour>
		<contour>
			<point x="1054" y="488" type="curve" smooth="yes"/>
			<point x="1054" y="719"/>
			<point x="900" y="905"/>
			<point x="662" y="905" type="curve" smooth="yes"/>
			<point x="423" y="905"/>
			<point x="269" y="719"/>
			<point x="269" y="488" type="curve" smooth="yes"/>
			<point x="269" y="257"/>
			<point x="423" y="71"/>
			<point x="662" y="71" type="curve" smooth="yes"/>
			<point x="900" y="71"/>
			<point x="1054" y="257"/>
		</contour>
	</outline>
</glyph>
<glyph name="feminineordinal" format="2">
	<unicode hex="00AA"/>
	<advance height="2048" width="891"/>
	<outline>
		<contour>
			<point x="723.632" y="1060" type="line" smooth="yes"/>
			<point x="740.804" y="1060"/>
			<point x="757.391" y="1062.944"/>
			<point x="770.452" y="1069.842" type="curve" smooth="yes"/>
			<point x="783.816" y="1076.901"/>
			<point x="791" y="1087.175"/>
			<point x="791" y="1097.016" type="curve" smooth="yes"/>
			<point x="791" y="1105.682"/>
			<point x="785.005" y="1114.976"/>
			<point x="772.507" y="1122.134" type="curve" smooth="yes"/>
			<point x="734.222" y="1144.059"/>
			<point x="729.503" y="1190.876"/>
			<point x="729.503" y="1229.948" type="curve" smooth="yes"/>
			<point x="729.503" y="1514.908" type="line" smooth="yes"/>
			<point x="729.503" y="1678.054"/>
			<point x="560.487" y="1737"/>
			<point x="423.631" y="1737" type="curve" smooth="yes"/>
			<point x="349.658" y="1737"/>
			<point x="269.508" y="1720.058"/>
			<point x="208.317" y="1679.568" type="curve" smooth="yes"/>
			<point x="162.511" y="1649.258"/>
			<point x="119.814" y="1600.102"/>
			<point x="119.814" y="1543.257" type="curve" smooth="yes"/>
			<point x="119.814" y="1515.601"/>
			<point x="165.153" y="1506.976"/>
			<point x="186.162" y="1506.976" type="curve" smooth="yes"/>
			<point x="207.449" y="1506.976"/>
			<point x="252.976" y="1514.974"/>
			<point x="253.23" y="1543.257" type="curve" smooth="yes"/>
			<point x="253.562" y="1580.276"/>
			<point x="280.944" y="1612.774"/>
			<point x="310.617" y="1631.83" type="curve" smooth="yes"/>
			<point x="343.615" y="1653.021"/>
			<point x="384.003" y="1663.557"/>
			<point x="423.631" y="1663.557" type="curve" smooth="yes"/>
			<point x="515.682" y="1663.557"/>
			<point x="596.087" y="1615.291"/>
			<point x="596.087" y="1514.908" type="curve" smooth="yes"/>
			<point x="596.087" y="1452.04" type="line"/>
			<point x="570.256" y="1438.233"/>
			<point x="530.627" y="1434.855"/>
			<point x="489.678" y="1434.855" type="curve" smooth="yes"/>
			<point x="453.426" y="1434.855"/>
			<point x="408.098" y="1437.499"/>
			<point x="380.358" y="1437.499" type="curve" smooth="yes"/>
			<point x="250.172" y="1437.499"/>
			<point x="99" y="1412.381"/>
			<point x="99" y="1252.422" type="curve" smooth="yes"/>
			<point x="99" y="1110.97"/>
			<point x="255.137" y="1060"/>
			<point x="376.077" y="1060" type="curve" smooth="yes"/>
			<point x="451.371" y="1060"/>
			<point x="560.422" y="1075.864"/>
			<point x="617.222" y="1141.963" type="curve"/>
			<point x="627.056" y="1104.948"/>
			<point x="650.095" y="1085.589"/>
			<point x="675.344" y="1071.164" type="curve" smooth="yes"/>
			<point x="688.406" y="1063.701"/>
			<point x="706.46" y="1060"/>
			<point x="723.632" y="1060" type="curve" smooth="yes"/>
		</contour>
		<contour>
			<point x="376.077" y="1133.444" type="line" smooth="yes"/>
			<point x="300.05" y="1133.444"/>
			<point x="234.003" y="1170.459"/>
			<point x="234.003" y="1252.422" type="curve" smooth="yes"/>
			<point x="234.003" y="1348.159"/>
			<point x="299.048" y="1364.79"/>
			<point x="380.358" y="1364.79" type="curve" smooth="yes"/>
			<point x="421.297" y="1364.79"/>
			<point x="462.478" y="1361.412"/>
			<point x="503.622" y="1361.412" type="curve" smooth="yes"/>
			<point x="534.59" y="1361.412"/>
			<point x="565.706" y="1362.734"/>
			<point x="596.087" y="1368.022" type="curve"/>
			<point x="596.087" y="1304.566" type="line" smooth="yes"/>
			<point x="596.087" y="1194.843"/>
			<point x="475.148" y="1133.444"/>
			<point x="376.077" y="1133.444" type="curve" smooth="yes"/>
		</contour>
	</outline>
</glyph>
<glyph name="guillemotleft" format="2">
  <advance height="2048" width="982.0"/>
  <unicode hex="00AB"/>
  <outline>
    <contour>
      <point x="804.0" y="380.0" type="curve" smooth="yes"/>
      <point x="819.0" y="380.0"/>
      <point x="833.0" y="382.0"/>
      <point x="845.0" y="386.0" type="curve" smooth="yes"/>
      <point x="863.0" y="392.0"/>
      <point x="882.0" y="406.0"/>
      <point x="882.0" y="422.0" type="curve" smooth="yes"/>
      <point x="882.0" y="429.0"/>
      <point x="879.0" y="436.0"/>
      <point x="871.0" y="443.0" type="curve" smooth="yes"/>
      <point x="581.0" y="707.0" type="line"/>
      <point x="871.0" y="971.0" type="line" smooth="yes"/>
      <point x="879.0" y="978.0"/>
      <point x="882.0" y="985.0"/>
      <point x="882.0" y="992.0" type="curve" smooth="yes"/>
      <point x="882.0" y="1008.0"/>
      <point x="863.0" y="1022.0"/>
      <point x="845.0" y="1028.0" type="curve" smooth="yes"/>
      <point x="833.0" y="1032.0"/>
      <point x="819.0" y="1034.0"/>
      <point x="804.0" y="1034.0" type="curve" smooth="yes"/>
      <point x="779.0" y="1034.0"/>
      <point x="754.0" y="1028.0"/>
      <point x="739.0" y="1014.0" type="curve" smooth="yes"/>
      <point x="425.0" y="729.0" type="line" smooth="yes"/>
      <point x="419.0" y="723.0"/>
      <point x="414.0" y="716.0"/>
      <point x="414.0" y="707.0" type="curve" smooth="yes"/>
      <point x="414.0" y="698.0"/>
      <point x="418.0" y="691.0"/>
      <point x="425.0" y="686.0" type="curve"/>
      <point x="739.0" y="400.0" type="line" smooth="yes"/>
      <point x="754.0" y="386.0"/>
      <point x="779.0" y="380.0"/>
    </contour>
    <contour>
      <point x="490.0" y="380.0" type="curve" smooth="yes"/>
      <point x="505.0" y="380.0"/>
      <point x="519.0" y="382.0"/>
      <point x="531.0" y="386.0" type="curve" smooth="yes"/>
      <point x="550.0" y="392.0"/>
      <point x="568.0" y="406.0"/>
      <point x="568.0" y="422.0" type="curve" smooth="yes"/>
      <point x="568.0" y="429.0"/>
      <point x="565.0" y="436.0"/>
      <point x="557.0" y="443.0" type="curve" smooth="yes"/>
      <point x="267.0" y="707.0" type="line"/>
      <point x="557.0" y="971.0" type="line" smooth="yes"/>
      <point x="565.0" y="978.0"/>
      <point x="568.0" y="985.0"/>
      <point x="568.0" y="992.0" type="curve" smooth="yes"/>
      <point x="568.0" y="1008.0"/>
      <point x="550.0" y="1022.0"/>
      <point x="531.0" y="1028.0" type="curve" smooth="yes"/>
      <point x="519.0" y="1032.0"/>
      <point x="505.0" y="1034.0"/>
      <point x="490.0" y="1034.0" type="curve" smooth="yes"/>
      <point x="465.0" y="1034.0"/>
      <point x="440.0" y="1028.0"/>
      <point x="425.0" y="1014.0" type="curve" smooth="yes"/>
      <point x="111.0" y="729.0" type="line" smooth="yes"/>
      <point x="105.0" y="723.0"/>
      <point x="100.0" y="716.0"/>
      <point x="100.0" y="707.0" type="curve" smooth="yes"/>
      <point x="100.0" y="699.0"/>
      <point x="105.0" y="691.0"/>
      <point x="111.0" y="686.0" type="curve" smooth="yes"/>
      <point x="425.0" y="400.0" type="line" smooth="yes"/>
      <point x="441.0" y="386.0"/>
      <point x="466.0" y="380.0"/>
    </contour>
  </outline>
</glyph>
<glyph name="logicalnot" format="2">
	<unicode hex="00AC"/>
	<advance height="2048" width="988"/>
	<outline>
		<contour>
			<point x="201.499" y="324.373" type="line"/>
			<point x="145.443" y="324.373"/>
			<point x="100" y="349.81"/>
			<point x="100" y="381.187" type="curve" smooth="yes"/>
			<point x="100" y="412.563"/>
			<point x="145.443" y="438"/>
			<point x="201.499" y="438" type="curve" smooth="yes"/>
			<point x="786.501" y="438" type="line" smooth="yes"/>
			<point x="842.558" y="438"/>
			<point x="888" y="412.563"/>
			<point x="888" y="381.187" type="curve" smooth="yes"/>
			<point x="888" y="32.813" type="line" smooth="yes"/>
			<point x="888" y="1.436"/>
			<point x="842.558" y="-24"/>
			<point x="786.501" y="-24" type="curve" smooth="yes"/>
			<point x="730.445" y="-24"/>
			<point x="685.002" y="1.436"/>
			<point x="685.002" y="32.813" type="curve" smooth="yes"/>
			<point x="685.002" y="324.373" type="line"/>
			<point x="201.499" y="324.373" type="line"/>
		</contour>
	</outline>
</glyph>
<glyph name="registered" format="2">
  <advance height="2048" width="1323.0"/>
  <unicode hex="00AE"/>
  <outline>
    <contour>
      <point x="662.0" y="-24.0" type="curve" smooth="yes"/>
      <point x="968.0" y="-24.0"/>
      <point x="1223.0" y="167.0"/>
      <point x="1223.0" y="488.0" type="curve" smooth="yes"/>
      <point x="1223.0" y="809.0"/>
      <point x="968.0" y="1000.0"/>
      <point x="662.0" y="1000.0" type="curve" smooth="yes"/>
      <point x="355.0" y="1000.0"/>
      <point x="100.0" y="809.0"/>
      <point x="100.0" y="488.0" type="curve" smooth="yes"/>
      <point x="100.0" y="167.0"/>
      <point x="355.0" y="-24.0"/>
    </contour>
    <contour>
      <point x="662.0" y="71.0" type="curve" smooth="yes"/>
      <point x="423.0" y="71.0"/>
      <point x="269.0" y="257.0"/>
      <point x="269.0" y="488.0" type="curve" smooth="yes"/>
      <point x="269.0" y="719.0"/>
      <point x="423.0" y="905.0"/>
      <point x="662.0" y="905.0" type="curve" smooth="yes"/>
      <point x="900.0" y="905.0"/>
      <point x="1054.0" y="719.0"/>
      <point x="1054.0" y="488.0" type="curve" smooth="yes"/>
      <point x="1054.0" y="257.0"/>
      <point x="900.0" y="71.0"/>
    </contour>
    <contour>
      <point x="453.0" y="202.0" type="curve" smooth="yes"/>
      <point x="469.0" y="202.0"/>
      <point x="504.0" y="210.0"/>
      <point x="504.0" y="231.0" type="curve" smooth="yes"/>
      <point x="504.0" y="461.0" type="line"/>
      <point x="631.0" y="461.0" type="line" smooth="yes"/>
      <point x="674.0" y="461.0"/>
      <point x="700.0" y="404.0"/>
      <point x="717.0" y="364.0" type="curve" smooth="yes"/>
      <point x="745.0" y="301.0"/>
      <point x="771.0" y="242.0"/>
      <point x="836.0" y="210.0" type="curve" smooth="yes"/>
      <point x="846.0" y="205.0"/>
      <point x="859.0" y="203.0"/>
      <point x="871.0" y="203.0" type="curve" smooth="yes"/>
      <point x="885.0" y="203.0"/>
      <point x="898.0" y="206.0"/>
      <point x="908.0" y="212.0" type="curve" smooth="yes"/>
      <point x="917.0" y="217.0"/>
      <point x="921.0" y="224.0"/>
      <point x="921.0" y="231.0" type="curve" smooth="yes"/>
      <point x="921.0" y="239.0"/>
      <point x="915.0" y="247.0"/>
      <point x="905.0" y="252.0" type="curve" smooth="yes"/>
      <point x="862.0" y="273.0"/>
      <point x="839.0" y="328.0"/>
      <point x="820.0" y="370.0" type="curve" smooth="yes"/>
      <point x="804.0" y="404.0"/>
      <point x="788.0" y="441.0"/>
      <point x="760.0" y="468.0" type="curve"/>
      <point x="831.0" y="486.0"/>
      <point x="892.0" y="541.0"/>
      <point x="892.0" y="617.0" type="curve" smooth="yes"/>
      <point x="892.0" y="717.0"/>
      <point x="794.0" y="774.0"/>
      <point x="704.0" y="774.0" type="curve" smooth="yes"/>
      <point x="453.0" y="774.0" type="line" smooth="yes"/>
      <point x="436.0" y="774.0"/>
      <point x="401.0" y="767.0"/>
      <point x="401.0" y="745.0" type="curve" smooth="yes"/>
      <point x="401.0" y="231.0" type="line" smooth="yes"/>
      <point x="401.0" y="210.0"/>
      <point x="436.0" y="202.0"/>
    </contour>
    <contour>
      <point x="704.0" y="518.0" type="curve" smooth="yes"/>
      <point x="504.0" y="518.0" type="line"/>
      <point x="504.0" y="717.0" type="line"/>
      <point x="704.0" y="717.0" type="line" smooth="yes"/>
      <point x="753.0" y="717.0"/>
      <point x="790.0" y="663.0"/>
      <point x="790.0" y="617.0" type="curve" smooth="yes"/>
      <point x="790.0" y="572.0"/>
      <point x="753.0" y="518.0"/>
    </contour>
  </outline>
</glyph>
<glyph name="degree" format="2">
  <advance height="2048" width="633.0"/>
  <unicode hex="00B0"/>
  <outline>
    <contour>
      <point x="316.0" y="1080.0" type="curve" smooth="yes"/>
      <point x="484.0" y="1080.0"/>
      <point x="633.0" y="1175.0"/>
      <point x="633.0" y="1348.0" type="curve" smooth="yes"/>
      <point x="633.0" y="1520.0"/>
      <point x="484.0" y="1615.0"/>
      <point x="316.0" y="1615.0" type="curve" smooth="yes"/>
      <point x="149.0" y="1615.0"/>
      <point x="0.0" y="1520.0"/>
      <point x="0.0" y="1348.0" type="curve" smooth="yes"/>
      <point x="0.0" y="1175.0"/>
      <point x="149.0" y="1080.0"/>
    </contour>
    <contour>
      <point x="316.0" y="1173.0" type="curve" smooth="yes"/>
      <point x="222.0" y="1173.0"/>
      <point x="173.0" y="1267.0"/>
      <point x="173.0" y="1348.0" type="curve" smooth="yes"/>
      <point x="173.0" y="1428.0"/>
      <point x="222.0" y="1522.0"/>
      <point x="316.0" y="1522.0" type="curve" smooth="yes"/>
      <point x="411.0" y="1522.0"/>
      <point x="460.0" y="1428.0"/>
      <point x="460.0" y="1348.0" type="curve" smooth="yes"/>
      <point x="460.0" y="1267.0"/>
      <point x="411.0" y="1173.0"/>
    </contour>
  </outline>
</glyph>
<glyph name="plusminus" format="2">
	<unicode hex="00B1"/>
	<advance height="2048" width="1090"/>
	<outline>
		<contour>
			<point x="545" y="149.99" type="curve" smooth="yes"/>
			<point x="576.992" y="149.99"/>
			<point x="646.975" y="163.987"/>
			<point x="646.975" y="205.088" type="curve" smooth="yes"/>
			<point x="646.975" y="519.898" type="line"/>
			<point x="888.914" y="519.898" type="line" smooth="yes"/>
			<point x="921.129" y="519.898"/>
			<point x="990" y="533.894"/>
			<point x="990" y="574.995" type="curve" smooth="yes"/>
			<point x="990" y="616.096"/>
			<point x="921.129" y="630.093"/>
			<point x="888.914" y="630.093" type="curve" smooth="yes"/>
			<point x="646.975" y="630.093" type="line"/>
			<point x="646.975" y="944.903" type="line" smooth="yes"/>
			<point x="646.975" y="986.004"/>
			<point x="576.992" y="1000"/>
			<point x="545" y="1000" type="curve" smooth="yes"/>
			<point x="513.008" y="1000"/>
			<point x="443.025" y="986.004"/>
			<point x="443.025" y="944.903" type="curve" smooth="yes"/>
			<point x="443.025" y="630.093" type="line"/>
			<point x="201.086" y="630.093" type="line" smooth="yes"/>
			<point x="169.094" y="630.093"/>
			<point x="99" y="616.096"/>
			<point x="99" y="574.995" type="curve" smooth="yes"/>
			<point x="99" y="533.894"/>
			<point x="169.094" y="519.898"/>
			<point x="201.086" y="519.898" type="curve" smooth="yes"/>
			<point x="443.025" y="519.898" type="line"/>
			<point x="443.025" y="205.088" type="line" smooth="yes"/>
			<point x="443.025" y="163.987"/>
			<point x="513.008" y="149.99"/>
		</contour>
		<contour>
			<point x="201.975" y="-23.744" type="curve" smooth="yes"/>
			<point x="888.025" y="-23.744" type="line" smooth="yes"/>
			<point x="921.128" y="-23.744"/>
			<point x="990" y="-9.525"/>
			<point x="990" y="31.353" type="curve" smooth="yes"/>
			<point x="990" y="72.454"/>
			<point x="921.127" y="86.451"/>
			<point x="888.025" y="86.451" type="curve" smooth="yes"/>
			<point x="201.975" y="86.451" type="line" smooth="yes"/>
			<point x="169.095" y="86.451"/>
			<point x="100" y="72.454"/>
			<point x="100" y="31.353" type="curve" smooth="yes"/>
			<point x="100" y="-9.525"/>
			<point x="169.094" y="-23.744"/>
		</contour>
	</outline>
</glyph>
<glyph name="two_super" format="2">
	<unicode hex="00B2"/>
	<advance height="2048" width="478"/>
	<outline>
		<contour>
			<point x="134" y="1449" type="curve" smooth="yes"/>
			<point x="134" y="1423"/>
			<point x="91" y="1414"/>
			<point x="70" y="1414" type="curve" smooth="yes"/>
			<point x="49" y="1414"/>
			<point x="8" y="1421"/>
			<point x="4" y="1446" type="curve" smooth="yes"/>
			<point x="-7" y="1515"/>
			<point x="42" y="1589"/>
			<point x="102" y="1621" type="curve" smooth="yes"/>
			<point x="145" y="1644"/>
			<point x="194" y="1653"/>
			<point x="242" y="1653" type="curve" smooth="yes"/>
			<point x="349" y="1653"/>
			<point x="459" y="1597"/>
			<point x="476" y="1485" type="curve" smooth="yes"/>
			<point x="497" y="1347"/>
			<point x="357" y="1278"/>
			<point x="251" y="1227" type="curve" smooth="yes"/>
			<point x="216" y="1210"/>
			<point x="176" y="1193"/>
			<point x="155" y="1158" type="curve" smooth="yes"/>
			<point x="139" y="1133"/>
			<point x="134" y="1101"/>
			<point x="131" y="1071" type="curve"/>
			<point x="410" y="1071" type="line" smooth="yes"/>
			<point x="431" y="1071"/>
			<point x="475" y="1062"/>
			<point x="475" y="1036" type="curve" smooth="yes"/>
			<point x="475" y="1009"/>
			<point x="431" y="1000"/>
			<point x="410" y="1000" type="curve" smooth="yes"/>
			<point x="65" y="1000" type="line" smooth="yes"/>
			<point x="44" y="1000"/>
			<point x="0" y="1009"/>
			<point x="0" y="1036" type="curve" smooth="yes"/>
			<point x="0" y="1085"/>
			<point x="6" y="1138"/>
			<point x="32" y="1181" type="curve" smooth="yes"/>
			<point x="64" y="1233"/>
			<point x="113" y="1254"/>
			<point x="165" y="1280" type="curve" smooth="yes"/>
			<point x="245" y="1319"/>
			<point x="362" y="1373"/>
			<point x="346" y="1479" type="curve" smooth="yes"/>
			<point x="339" y="1530"/>
			<point x="298" y="1582"/>
			<point x="242" y="1582" type="curve" smooth="yes"/>
			<point x="215" y="1582"/>
			<point x="194" y="1574"/>
			<point x="178" y="1561" type="curve" smooth="yes"/>
			<point x="147" y="1537"/>
			<point x="134" y="1494"/>
		</contour>
	</outline>
</glyph>
<glyph name="three_super" format="2">
  <advance height="2048" width="482.0"/>
  <unicode hex="00B3"/>
  <outline>
    <contour>
      <point x="248.0" y="1000.0" type="curve" smooth="yes"/>
      <point x="366.0" y="1000.0"/>
      <point x="482.0" y="1069.0"/>
      <point x="482.0" y="1195.0" type="curve" smooth="yes"/>
      <point x="482.0" y="1265.0"/>
      <point x="446.0" y="1323.0"/>
      <point x="384.0" y="1356.0" type="curve"/>
      <point x="433.0" y="1387.0"/>
      <point x="464.0" y="1435.0"/>
      <point x="464.0" y="1493.0" type="curve" smooth="yes"/>
      <point x="464.0" y="1618.0"/>
      <point x="344.0" y="1677.0"/>
      <point x="230.0" y="1677.0" type="curve" smooth="yes"/>
      <point x="169.0" y="1677.0"/>
      <point x="105.0" y="1660.0"/>
      <point x="59.0" y="1620.0" type="curve" smooth="yes"/>
      <point x="20.0" y="1585.0"/>
      <point x="0.0" y="1540.0"/>
      <point x="0.0" y="1489.0" type="curve"/>
      <point x="1.0" y="1475.0" type="line" smooth="yes"/>
      <point x="2.0" y="1447.0"/>
      <point x="47.0" y="1440.0"/>
      <point x="68.0" y="1440.0" type="curve" smooth="yes"/>
      <point x="90.0" y="1440.0"/>
      <point x="132.0" y="1449.0"/>
      <point x="132.0" y="1476.0" type="curve" smooth="yes"/>
      <point x="132.0" y="1487.0" type="line" smooth="yes"/>
      <point x="132.0" y="1517.0"/>
      <point x="140.0" y="1549.0"/>
      <point x="160.0" y="1572.0" type="curve" smooth="yes"/>
      <point x="177.0" y="1592.0"/>
      <point x="200.0" y="1605.0"/>
      <point x="227.0" y="1605.0" type="curve" smooth="yes"/>
      <point x="291.0" y="1605.0"/>
      <point x="333.0" y="1553.0"/>
      <point x="333.0" y="1493.0" type="curve" smooth="yes"/>
      <point x="333.0" y="1440.0"/>
      <point x="297.0" y="1398.0"/>
      <point x="245.0" y="1390.0" type="curve" smooth="yes"/>
      <point x="234.0" y="1388.0"/>
      <point x="223.0" y="1388.0"/>
      <point x="212.0" y="1387.0" type="curve" smooth="yes"/>
      <point x="192.0" y="1386.0"/>
      <point x="151.0" y="1376.0"/>
      <point x="151.0" y="1351.0" type="curve" smooth="yes"/>
      <point x="151.0" y="1324.0"/>
      <point x="195.0" y="1315.0"/>
      <point x="217.0" y="1315.0" type="curve" smooth="yes"/>
      <point x="243.0" y="1316.0" type="line" smooth="yes"/>
      <point x="310.0" y="1316.0"/>
      <point x="351.0" y="1260.0"/>
      <point x="351.0" y="1196.0" type="curve" smooth="yes"/>
      <point x="351.0" y="1138.0"/>
      <point x="314.0" y="1072.0"/>
      <point x="248.0" y="1072.0" type="curve" smooth="yes"/>
      <point x="173.0" y="1072.0"/>
      <point x="131.0" y="1127.0"/>
      <point x="131.0" y="1197.0" type="curve" smooth="yes"/>
      <point x="131.0" y="1224.0"/>
      <point x="87.0" y="1233.0"/>
      <point x="66.0" y="1233.0" type="curve" smooth="yes"/>
      <point x="45.0" y="1233.0"/>
      <point x="0.0" y="1224.0"/>
      <point x="0.0" y="1197.0" type="curve" smooth="yes"/>
      <point x="0.0" y="1060.0"/>
      <point x="123.0" y="1000.0"/>
    </contour>
  </outline>
</glyph>
<glyph name="micro" format="2">
	<unicode hex="00B5"/>
	<advance height="2048" width="995"/>
	<outline>
		<contour>
			<point x="303.083" y="349.455" type="line"/>
			<point x="349.508" y="286.995"/>
			<point x="417.575" y="250.349"/>
			<point x="505.939" y="250" type="curve" smooth="yes"/>
			<point x="598.678" y="249.636"/>
			<point x="668.333" y="291.755"/>
			<point x="711.924" y="364.479" type="curve"/>
			<point x="711.924" y="308.21" type="line" smooth="yes"/>
			<point x="711.924" y="276.821"/>
			<point x="747.382" y="251.374"/>
			<point x="803.462" y="251.374" type="curve" smooth="yes"/>
			<point x="859.542" y="251.374"/>
			<point x="895" y="276.821"/>
			<point x="895" y="308.21" type="curve" smooth="yes"/>
			<point x="895" y="973.164" type="line" smooth="yes"/>
			<point x="895" y="1004.553"/>
			<point x="849.538" y="1030"/>
			<point x="793.458" y="1030" type="curve" smooth="yes"/>
			<point x="737.378" y="1030"/>
			<point x="691.916" y="1004.553"/>
			<point x="691.916" y="973.164" type="curve" smooth="yes"/>
			<point x="691.916" y="569.077" type="line"/>
			<point x="691.537" y="459.816"/>
			<point x="630.981" y="340.503"/>
			<point x="506.575" y="340.917" type="curve" smooth="yes"/>
			<point x="371.237" y="341.317"/>
			<point x="303.1" y="475.436"/>
			<point x="303.083" y="595.555" type="curve" smooth="yes"/>
			<point x="303.083" y="973.164" type="line" smooth="yes"/>
			<point x="303.083" y="1004.553"/>
			<point x="257.621" y="1030"/>
			<point x="201.542" y="1030" type="curve" smooth="yes"/>
			<point x="145.462" y="1030"/>
			<point x="99" y="1004.553"/>
			<point x="99" y="973.164" type="curve" smooth="yes"/>
			<point x="99" y="32.836" type="line" smooth="yes"/>
			<point x="99" y="1.447"/>
			<point x="145.462" y="-24"/>
			<point x="201.542" y="-24" type="curve" smooth="yes"/>
			<point x="257.621" y="-24"/>
			<point x="303.083" y="1.447"/>
			<point x="303.083" y="32.836" type="curve" smooth="yes"/>
			<point x="303.083" y="349.455" type="line"/>
		</contour>
	</outline>
</glyph>
<glyph name="paragraph" format="2">
  <advance height="2048" width="1091.0"/>
  <unicode hex="00B6"/>
  <outline>
    <contour>
      <point x="801.0" y="-24.0" type="curve" smooth="yes"/>
      <point x="824.0" y="-24.0"/>
      <point x="879.0" y="-15.0"/>
      <point x="879.0" y="15.0" type="curve" smooth="yes"/>
      <point x="879.0" y="1269.0" type="line"/>
      <point x="890.0" y="1269.0" type="line" smooth="yes"/>
      <point x="922.0" y="1269.0"/>
      <point x="991.0" y="1283.0"/>
      <point x="991.0" y="1325.0" type="curve" smooth="yes"/>
      <point x="991.0" y="1367.0"/>
      <point x="922.0" y="1381.0"/>
      <point x="890.0" y="1381.0" type="curve" smooth="yes"/>
      <point x="405.0" y="1381.0" type="line" smooth="yes"/>
      <point x="237.0" y="1381.0"/>
      <point x="100.0" y="1249.0"/>
      <point x="100.0" y="1083.0" type="curve" smooth="yes"/>
      <point x="100.0" y="947.0"/>
      <point x="194.0" y="831.0"/>
      <point x="327.0" y="796.0" type="curve"/>
      <point x="327.0" y="15.0" type="line" smooth="yes"/>
      <point x="327.0" y="-15.0"/>
      <point x="382.0" y="-24.0"/>
      <point x="404.0" y="-24.0" type="curve" smooth="yes"/>
      <point x="427.0" y="-24.0"/>
      <point x="482.0" y="-15.0"/>
      <point x="482.0" y="15.0" type="curve" smooth="yes"/>
      <point x="482.0" y="1269.0" type="line"/>
      <point x="724.0" y="1269.0" type="line"/>
      <point x="724.0" y="15.0" type="line" smooth="yes"/>
      <point x="724.0" y="-15.0"/>
      <point x="778.0" y="-24.0"/>
    </contour>
  </outline>
</glyph>
<glyph name="periodcentered" format="2">
	<unicode hex="00B7"/>
	<advance height="2048" width="440"/>
	<outline>
		<contour>
			<point x="220.65" y="690" type="curve" smooth="yes"/>
			<point x="157.465" y="690"/>
			<point x="100" y="641.896"/>
			<point x="100" y="569.35" type="curve" smooth="yes"/>
			<point x="100" y="498.104"/>
			<point x="157.465" y="450"/>
			<point x="220.65" y="450" type="curve" smooth="yes"/>
			<point x="282.535" y="450"/>
			<point x="340" y="498.104"/>
			<point x="340" y="569.35" type="curve" smooth="yes"/>
			<point x="340" y="641.896"/>
			<point x="282.535" y="690"/>
		</contour>
	</outline>
</glyph>
